<svg width="177" height="98" viewBox="0 0 177 98" fill="none" xmlns="http://www.w3.org/2000/svg">
<mask id="path-1-outside-1_102_2878" maskUnits="userSpaceOnUse" x="1.29785" y="0.438721" width="174" height="97" fill="black">
<rect fill="white" x="1.29785" y="0.438721" width="174" height="97"/>
<path d="M21.7188 55.4241C25.1603 55.4242 27.1396 58.1917 27.1396 58.1917C26.3653 58.7969 26.0205 59.4886 26.0205 60.2668C26.0219 61.9108 34.8926 71.7042 52.2637 71.0745C64.9114 71.0744 72.0524 66.4921 73.7734 61.5637C74.6339 58.8833 76.0973 57.4998 79.625 57.4133L84.6152 57.3264C88.9173 57.24 89.8633 58.7969 89.8633 63.4661C89.8633 64.2441 89.7775 65.0224 89.6055 65.887C92.1867 65.714 94.9402 65.5413 97.5215 65.5413C103.716 65.5413 109.825 71.2477 109.825 78.8567C109.825 84.7364 106.384 88.5413 100.188 88.5413C93.9076 88.5411 89.0898 83.785 89.0898 78.2512C89.0898 76.0033 87.8846 74.2743 86.3359 72.8909C80.8292 80.7592 68.6113 89.1457 46.585 89.1458C29.0778 90.4377 9.41476 77.3873 9.41406 68.3948C8.40514 59.4313 14.061 55.4241 21.7188 55.4241ZM144.709 34.8831C147.086 34.728 147.887 35.7104 148.301 39.0178C148.714 42.3255 150.239 53.7175 150.239 58.4202C150.239 63.2776 148.12 65.1893 143.314 65.6028C141.299 65.8095 139.128 65.7581 136.906 65.7581C135.563 65.7581 134.115 65.7062 132.668 65.6545V66.2229C132.668 66.8947 132.616 67.5157 132.513 68.0325C134.218 68.0325 136.182 68.0842 138.508 68.0842C147.397 68.0842 156.441 67.05 158.508 67.05C160.42 67.0501 162.332 67.4637 162.332 71.3391C162.332 74.3882 157.939 78.1615 151.737 81.4172C152.099 81.4689 152.461 81.469 152.823 81.469C160.213 80.7487 162.461 79.0719 165.381 76.8723C166.027 76.2263 166.569 76.5024 166.569 76.8176C166.569 86.5622 158.972 88.2903 151.789 88.2903C147.345 88.2902 143.882 87.257 140.937 85.9133C135.614 87.6187 130.032 88.7034 125.123 88.7034C116.958 88.7034 113.702 86.6883 113.702 82.1409C113.702 78.1099 117.682 75.6809 128.534 75.6809C134.632 75.6809 138.56 76.8694 141.764 78.1614C146.362 76.3013 150.134 74.3893 150.136 73.7688C150.136 73.4587 149.877 73.303 149.205 73.303C148.274 73.3032 143.83 74.0266 138.663 74.0266C135.717 74.0266 130.188 73.9238 127.811 73.7688C117.061 73.097 116.286 72.4248 116.027 70.9778C115.924 70.4093 115.976 69.4271 116.183 68.8586C116.699 67.5153 117.733 67.1019 120.368 67.1536C121.143 67.1536 121.971 67.2573 123.263 67.4124C123.211 67.0506 123.211 66.6881 123.211 66.2747V65.2415C121.816 65.1381 120.524 65.0343 119.387 64.9309C116.028 64.6208 115.511 64.0528 115.511 60.9524C115.511 57.8 116.544 56.8698 119.18 57.6965C123.676 59.0402 129.516 59.6604 134.374 59.6604C136.286 59.6604 138.405 59.6084 140.679 59.4534C140.679 57.0762 140.575 55.0608 140.42 53.1487C138.921 53.097 137.63 53.0451 136.751 52.9934C135.511 55.3706 132.461 56.6106 126.88 56.6106C118.612 56.6105 115.511 53.8205 115.511 48.2395C115.511 43.8468 118.198 41.7795 126.519 41.7795C132.41 41.7796 135.614 43.4328 136.854 46.5334L139.748 46.5852C139.541 43.9275 138.25 35.5288 141.479 35.3479L144.709 34.8831ZM126.725 78.9368C122.849 78.9368 121.867 79.867 121.867 80.8489C121.868 81.5723 123.315 82.5021 126.776 82.5022C128.223 82.5022 130.498 82.0371 133.082 81.262C130.912 79.9183 128.947 78.9368 126.725 78.9368ZM157.009 31.4729C159.386 31.2662 160.73 32.6092 161.195 35.3479C161.712 38.4486 162.436 55.6808 162.436 58.8333C162.436 63.4325 161.453 64.6214 159.18 64.7249L156.544 64.8284C154.115 64.9317 153.133 64.2591 153.133 60.4348C153.133 55.2148 152.358 40.3092 151.789 36.175C151.376 32.9713 151.893 31.9891 154.373 31.7307L157.009 31.4729ZM34.4531 9.42407C39.0138 9.42419 52.7795 11.1535 58.2861 11.1536C65.6857 11.1536 68.0947 12.4506 68.0947 17.7249C68.0947 21.3563 66.2883 22.8261 62.6748 23.345C62.8469 28.7923 62.7603 36.575 62.3301 42.7141C62.9322 42.5412 63.5346 42.4544 64.1367 42.4543C67.3203 42.4543 69.2998 44.3571 69.2998 47.6428C69.2997 54.9921 66.5462 58.1916 56.3936 58.1917C49.2523 58.1917 37.723 57.4127 33.6787 56.7209C28.6023 55.9428 27.1387 53.2627 27.1387 49.4583C27.1387 45.9996 29.9785 44.7021 34.0225 44.2698C34.1945 36.6608 33.8505 27.4953 33.0762 21.0969C29.6345 19.8864 27.6553 17.898 27.6553 14.9583C27.6553 11.4996 30.4952 9.42407 34.4531 9.42407ZM97.5859 8.4729C101.544 8.12713 103.608 10.3756 104.555 14.9583C105.587 20.2327 106.534 37.6992 106.534 46.6917C106.534 53.8681 105.76 56.2889 101.802 56.2024L98.4463 56.1165C94.0581 56.03 91.9072 55.1649 91.9072 48.6799C91.9072 40.0333 90.7882 23.2589 89.9277 16.2551C89.2394 10.8942 90.1006 9.25093 94.1445 8.8186L97.5859 8.4729ZM81.0879 10.8938C85.1314 10.5481 87.4543 12.6236 88.0566 17.2922C88.745 22.826 89.8633 36.0556 89.8633 43.9241C89.8633 51.1006 88.4011 53.3487 84.4434 53.5217L80.6572 53.6086C76.5273 53.6086 74.8926 52.1387 74.8926 45.7405C74.8926 43.8382 74.8927 41.7625 74.8066 39.6008L71.623 39.342C67.063 39.0827 65.5996 37.8718 65.6855 34.0676L65.7725 30.7815C65.8585 27.6687 66.977 25.8527 70.6768 26.0256C71.4511 26.0256 72.6557 26.0261 74.1182 26.1125C73.9461 23.4321 73.6878 20.8377 73.4297 18.676C72.8274 13.3153 73.4297 11.413 77.6455 11.1536L81.0879 10.8938ZM126.674 47.1536C123.832 47.1536 122.695 47.8254 122.694 48.9622C122.694 50.2541 123.728 50.926 127.448 50.926C130.032 50.926 131.066 50.4613 131.066 49.3762C131.066 47.7742 129.826 47.1536 126.674 47.1536ZM45.5518 23.0862C45.9819 28.3605 45.9819 37.0068 45.5518 44.2698C47.2724 44.2698 48.9074 44.3567 50.4561 44.3567C50.8863 37.6124 50.8863 29.2252 50.4561 23.259C48.5633 23.259 47.0144 23.1726 45.5518 23.0862ZM117.007 11.8127C121.003 11.8127 122.956 12.4287 124.429 14.0608C125.57 15.3234 126.231 17.2947 126.592 20.22C126.742 20.1892 126.922 20.1887 127.103 20.1887L129.866 20.2502C129.746 18.2488 129.567 18.1848 129.326 16.553C129.086 14.7362 129.386 14.1509 130.678 13.9045C131.819 13.7198 133.262 13.5657 133.803 13.5657C135.185 13.5657 135.966 14.2124 136.236 15.8752C136.717 19.0778 136.957 21.636 136.957 24.9309C136.957 30.5355 135.184 34.5386 132.06 37.0022C129.536 38.973 126.501 37.6799 127.703 35.4319C128.935 33.2147 129.927 29.5193 130.047 26.2551C128.995 26.2551 128.034 26.1941 127.463 26.1633C127.223 26.1325 127.012 26.1321 126.832 26.0706C126.742 34.4774 122.836 40.051 118.059 40.051C111.599 40.051 109.826 38.5732 109.826 34.1389C109.826 33.3998 109.886 32.5374 109.946 31.6135C110.097 29.9198 110.187 27.5177 110.187 24.9309C110.187 16.9552 110.878 14.276 112.26 13.0442C113.311 12.1512 114.423 11.8128 117.007 11.8127ZM117.428 17.1711C116.376 17.1711 116.046 18.0947 116.046 25.2698C116.046 29.3031 115.865 31.705 115.865 32.5061C115.865 33.9534 116.226 34.385 117.397 34.385C118.749 33.2149 120.433 30.074 120.433 25.7629C120.433 18.9882 119.531 17.1712 117.428 17.1711Z"/>
</mask>
<path d="M21.7188 55.4241C25.1603 55.4242 27.1396 58.1917 27.1396 58.1917C26.3653 58.7969 26.0205 59.4886 26.0205 60.2668C26.0219 61.9108 34.8926 71.7042 52.2637 71.0745C64.9114 71.0744 72.0524 66.4921 73.7734 61.5637C74.6339 58.8833 76.0973 57.4998 79.625 57.4133L84.6152 57.3264C88.9173 57.24 89.8633 58.7969 89.8633 63.4661C89.8633 64.2441 89.7775 65.0224 89.6055 65.887C92.1867 65.714 94.9402 65.5413 97.5215 65.5413C103.716 65.5413 109.825 71.2477 109.825 78.8567C109.825 84.7364 106.384 88.5413 100.188 88.5413C93.9076 88.5411 89.0898 83.785 89.0898 78.2512C89.0898 76.0033 87.8846 74.2743 86.3359 72.8909C80.8292 80.7592 68.6113 89.1457 46.585 89.1458C29.0778 90.4377 9.41476 77.3873 9.41406 68.3948C8.40514 59.4313 14.061 55.4241 21.7188 55.4241ZM144.709 34.8831C147.086 34.728 147.887 35.7104 148.301 39.0178C148.714 42.3255 150.239 53.7175 150.239 58.4202C150.239 63.2776 148.12 65.1893 143.314 65.6028C141.299 65.8095 139.128 65.7581 136.906 65.7581C135.563 65.7581 134.115 65.7062 132.668 65.6545V66.2229C132.668 66.8947 132.616 67.5157 132.513 68.0325C134.218 68.0325 136.182 68.0842 138.508 68.0842C147.397 68.0842 156.441 67.05 158.508 67.05C160.42 67.0501 162.332 67.4637 162.332 71.3391C162.332 74.3882 157.939 78.1615 151.737 81.4172C152.099 81.4689 152.461 81.469 152.823 81.469C160.213 80.7487 162.461 79.0719 165.381 76.8723C166.027 76.2263 166.569 76.5024 166.569 76.8176C166.569 86.5622 158.972 88.2903 151.789 88.2903C147.345 88.2902 143.882 87.257 140.937 85.9133C135.614 87.6187 130.032 88.7034 125.123 88.7034C116.958 88.7034 113.702 86.6883 113.702 82.1409C113.702 78.1099 117.682 75.6809 128.534 75.6809C134.632 75.6809 138.56 76.8694 141.764 78.1614C146.362 76.3013 150.134 74.3893 150.136 73.7688C150.136 73.4587 149.877 73.303 149.205 73.303C148.274 73.3032 143.83 74.0266 138.663 74.0266C135.717 74.0266 130.188 73.9238 127.811 73.7688C117.061 73.097 116.286 72.4248 116.027 70.9778C115.924 70.4093 115.976 69.4271 116.183 68.8586C116.699 67.5153 117.733 67.1019 120.368 67.1536C121.143 67.1536 121.971 67.2573 123.263 67.4124C123.211 67.0506 123.211 66.6881 123.211 66.2747V65.2415C121.816 65.1381 120.524 65.0343 119.387 64.9309C116.028 64.6208 115.511 64.0528 115.511 60.9524C115.511 57.8 116.544 56.8698 119.18 57.6965C123.676 59.0402 129.516 59.6604 134.374 59.6604C136.286 59.6604 138.405 59.6084 140.679 59.4534C140.679 57.0762 140.575 55.0608 140.42 53.1487C138.921 53.097 137.63 53.0451 136.751 52.9934C135.511 55.3706 132.461 56.6106 126.88 56.6106C118.612 56.6105 115.511 53.8205 115.511 48.2395C115.511 43.8468 118.198 41.7795 126.519 41.7795C132.41 41.7796 135.614 43.4328 136.854 46.5334L139.748 46.5852C139.541 43.9275 138.25 35.5288 141.479 35.3479L144.709 34.8831ZM126.725 78.9368C122.849 78.9368 121.867 79.867 121.867 80.8489C121.868 81.5723 123.315 82.5021 126.776 82.5022C128.223 82.5022 130.498 82.0371 133.082 81.262C130.912 79.9183 128.947 78.9368 126.725 78.9368ZM157.009 31.4729C159.386 31.2662 160.73 32.6092 161.195 35.3479C161.712 38.4486 162.436 55.6808 162.436 58.8333C162.436 63.4325 161.453 64.6214 159.18 64.7249L156.544 64.8284C154.115 64.9317 153.133 64.2591 153.133 60.4348C153.133 55.2148 152.358 40.3092 151.789 36.175C151.376 32.9713 151.893 31.9891 154.373 31.7307L157.009 31.4729ZM34.4531 9.42407C39.0138 9.42419 52.7795 11.1535 58.2861 11.1536C65.6857 11.1536 68.0947 12.4506 68.0947 17.7249C68.0947 21.3563 66.2883 22.8261 62.6748 23.345C62.8469 28.7923 62.7603 36.575 62.3301 42.7141C62.9322 42.5412 63.5346 42.4544 64.1367 42.4543C67.3203 42.4543 69.2998 44.3571 69.2998 47.6428C69.2997 54.9921 66.5462 58.1916 56.3936 58.1917C49.2523 58.1917 37.723 57.4127 33.6787 56.7209C28.6023 55.9428 27.1387 53.2627 27.1387 49.4583C27.1387 45.9996 29.9785 44.7021 34.0225 44.2698C34.1945 36.6608 33.8505 27.4953 33.0762 21.0969C29.6345 19.8864 27.6553 17.898 27.6553 14.9583C27.6553 11.4996 30.4952 9.42407 34.4531 9.42407ZM97.5859 8.4729C101.544 8.12713 103.608 10.3756 104.555 14.9583C105.587 20.2327 106.534 37.6992 106.534 46.6917C106.534 53.8681 105.76 56.2889 101.802 56.2024L98.4463 56.1165C94.0581 56.03 91.9072 55.1649 91.9072 48.6799C91.9072 40.0333 90.7882 23.2589 89.9277 16.2551C89.2394 10.8942 90.1006 9.25093 94.1445 8.8186L97.5859 8.4729ZM81.0879 10.8938C85.1314 10.5481 87.4543 12.6236 88.0566 17.2922C88.745 22.826 89.8633 36.0556 89.8633 43.9241C89.8633 51.1006 88.4011 53.3487 84.4434 53.5217L80.6572 53.6086C76.5273 53.6086 74.8926 52.1387 74.8926 45.7405C74.8926 43.8382 74.8927 41.7625 74.8066 39.6008L71.623 39.342C67.063 39.0827 65.5996 37.8718 65.6855 34.0676L65.7725 30.7815C65.8585 27.6687 66.977 25.8527 70.6768 26.0256C71.4511 26.0256 72.6557 26.0261 74.1182 26.1125C73.9461 23.4321 73.6878 20.8377 73.4297 18.676C72.8274 13.3153 73.4297 11.413 77.6455 11.1536L81.0879 10.8938ZM126.674 47.1536C123.832 47.1536 122.695 47.8254 122.694 48.9622C122.694 50.2541 123.728 50.926 127.448 50.926C130.032 50.926 131.066 50.4613 131.066 49.3762C131.066 47.7742 129.826 47.1536 126.674 47.1536ZM45.5518 23.0862C45.9819 28.3605 45.9819 37.0068 45.5518 44.2698C47.2724 44.2698 48.9074 44.3567 50.4561 44.3567C50.8863 37.6124 50.8863 29.2252 50.4561 23.259C48.5633 23.259 47.0144 23.1726 45.5518 23.0862ZM117.007 11.8127C121.003 11.8127 122.956 12.4287 124.429 14.0608C125.57 15.3234 126.231 17.2947 126.592 20.22C126.742 20.1892 126.922 20.1887 127.103 20.1887L129.866 20.2502C129.746 18.2488 129.567 18.1848 129.326 16.553C129.086 14.7362 129.386 14.1509 130.678 13.9045C131.819 13.7198 133.262 13.5657 133.803 13.5657C135.185 13.5657 135.966 14.2124 136.236 15.8752C136.717 19.0778 136.957 21.636 136.957 24.9309C136.957 30.5355 135.184 34.5386 132.06 37.0022C129.536 38.973 126.501 37.6799 127.703 35.4319C128.935 33.2147 129.927 29.5193 130.047 26.2551C128.995 26.2551 128.034 26.1941 127.463 26.1633C127.223 26.1325 127.012 26.1321 126.832 26.0706C126.742 34.4774 122.836 40.051 118.059 40.051C111.599 40.051 109.826 38.5732 109.826 34.1389C109.826 33.3998 109.886 32.5374 109.946 31.6135C110.097 29.9198 110.187 27.5177 110.187 24.9309C110.187 16.9552 110.878 14.276 112.26 13.0442C113.311 12.1512 114.423 11.8128 117.007 11.8127ZM117.428 17.1711C116.376 17.1711 116.046 18.0947 116.046 25.2698C116.046 29.3031 115.865 31.705 115.865 32.5061C115.865 33.9534 116.226 34.385 117.397 34.385C118.749 33.2149 120.433 30.074 120.433 25.7629C120.433 18.9882 119.531 17.1712 117.428 17.1711Z" fill="#64421A"/>
<path d="M21.7188 55.4241L21.719 47.6722H21.7188V55.4241ZM27.1396 58.1917L31.9134 64.2992L37.7664 59.7244L33.4448 53.682L27.1396 58.1917ZM26.0205 60.2668H18.2687L18.2687 60.2733L26.0205 60.2668ZM52.2637 71.0745L52.2636 63.3226H52.1232L51.9828 63.3277L52.2637 71.0745ZM73.7734 61.5637L81.0919 64.1194L81.1243 64.0266L81.1544 63.933L73.7734 61.5637ZM79.625 57.4133L79.49 49.6627L79.4625 49.6631L79.4351 49.6638L79.625 57.4133ZM84.6152 57.3264L84.7502 65.0771L84.7606 65.0769L84.771 65.0767L84.6152 57.3264ZM89.8633 63.4661L97.6151 63.4663V63.4661H89.8633ZM89.6055 65.887L82.0027 64.3739L80.0277 74.2979L90.1236 73.6215L89.6055 65.887ZM97.5215 65.5413V57.7894V57.7894V65.5413ZM109.825 78.8567H117.577V78.8567L109.825 78.8567ZM100.188 88.5413L100.188 96.2931H100.188V88.5413ZM89.0898 78.2512H96.8417V78.2509L89.0898 78.2512ZM86.3359 72.8909L91.5002 67.1097L84.9902 61.2944L79.985 68.4461L86.3359 72.8909ZM46.585 89.1458L46.5849 81.3939H46.2993L46.0145 81.4149L46.585 89.1458ZM9.41406 68.3948L17.1659 68.3942L17.1659 67.9596L17.1173 67.5277L9.41406 68.3948ZM144.709 34.8831L144.204 27.1476L143.903 27.1673L143.605 27.2103L144.709 34.8831ZM148.301 39.0178L140.609 39.9793V39.9793L148.301 39.0178ZM150.239 58.4202L157.991 58.4203V58.4202H150.239ZM143.314 65.6028L142.65 57.8795L142.587 57.8849L142.524 57.8914L143.314 65.6028ZM136.906 65.7581L136.906 58.0062H136.906V65.7581ZM132.668 65.6545L132.945 57.9076L124.916 57.6209V65.6545H132.668ZM132.513 68.0325L124.911 66.5122L123.057 75.7843H132.513V68.0325ZM138.508 68.0842V75.8361V68.0842ZM158.508 67.05L158.508 59.2982H158.508V67.05ZM162.332 71.3391H170.084V71.3388L162.332 71.3391ZM151.737 81.4172L148.134 74.5538L126.903 85.7L150.641 89.0912L151.737 81.4172ZM152.823 81.469V89.2208H153.2L153.575 89.1843L152.823 81.469ZM165.381 76.8723L170.045 83.0639L170.479 82.7374L170.862 82.3537L165.381 76.8723ZM166.569 76.8176L174.321 76.8177V76.8176H166.569ZM151.789 88.2903L151.789 96.0421H151.789V88.2903ZM140.937 85.9133L144.154 78.8605L141.426 77.6165L138.571 78.5311L140.937 85.9133ZM125.123 88.7034V96.4552V88.7034ZM113.702 82.1409H105.95V82.1412L113.702 82.1409ZM128.534 75.6809L128.534 67.9291H128.534V75.6809ZM141.764 78.1614L138.865 85.3508L141.768 86.5215L144.67 85.3476L141.764 78.1614ZM150.136 73.7688L157.888 73.7854L157.888 73.7771V73.7688H150.136ZM149.205 73.303V65.5511L149.203 65.5511L149.205 73.303ZM138.663 74.0266V81.7785H138.663L138.663 74.0266ZM127.811 73.7688L128.315 66.0334L128.305 66.0327L128.294 66.032L127.811 73.7688ZM116.027 70.9778L123.658 69.6151L123.656 69.6032L123.654 69.5913L116.027 70.9778ZM116.183 68.8586L108.948 66.0753L108.922 66.1422L108.897 66.2095L116.183 68.8586ZM120.368 67.1536L120.216 74.9039L120.292 74.9054H120.368V67.1536ZM123.263 67.4124L122.339 75.109L132.365 76.312L130.937 66.3161L123.263 67.4124ZM123.211 65.2415H130.963V58.0426L123.784 57.5108L123.211 65.2415ZM119.387 64.9309L118.674 72.6499L118.685 72.6509L119.387 64.9309ZM115.511 60.9524H107.759V60.9525L115.511 60.9524ZM119.18 57.6965L116.859 65.093L116.91 65.1087L116.96 65.1238L119.18 57.6965ZM134.374 59.6604V67.4123L134.374 67.4123L134.374 59.6604ZM140.679 59.4534L141.206 67.1873L148.431 66.6947V59.4534H140.679ZM140.42 53.1487L148.146 52.5222L147.588 45.6394L140.687 45.4014L140.42 53.1487ZM136.751 52.9934L137.206 45.2549L132.199 44.9604L129.878 49.4077L136.751 52.9934ZM126.88 56.6106L126.88 64.3624H126.88V56.6106ZM115.511 48.2395H107.759V48.2398L115.511 48.2395ZM126.519 41.7795L126.519 34.0277H126.519V41.7795ZM136.854 46.5334L129.657 49.4124L131.569 54.192L136.716 54.2841L136.854 46.5334ZM139.748 46.5852L139.609 54.3358L148.138 54.4884L147.477 45.984L139.748 46.5852ZM141.479 35.3479L141.913 43.0876L142.25 43.0688L142.584 43.0207L141.479 35.3479ZM126.725 78.9368V71.1849L126.724 71.1849L126.725 78.9368ZM121.867 80.8489H114.115L114.115 80.8544L121.867 80.8489ZM126.776 82.5022L126.776 90.2541H126.776V82.5022ZM133.082 81.262L135.31 88.6869L151.808 83.7373L137.162 74.6708L133.082 81.262ZM157.009 31.4729L156.337 23.7502L156.296 23.7538L156.254 23.7579L157.009 31.4729ZM161.195 35.3479L168.842 34.0735L168.84 34.0617L168.838 34.0498L161.195 35.3479ZM162.436 58.8333L170.187 58.8333V58.8333H162.436ZM159.18 64.7249L159.484 72.4707L159.508 72.4698L159.532 72.4687L159.18 64.7249ZM156.544 64.8284L156.24 57.0825L156.227 57.083L156.214 57.0835L156.544 64.8284ZM153.133 60.4348H160.885V60.4347L153.133 60.4348ZM151.789 36.175L144.101 37.167L144.105 37.199L144.109 37.231L151.789 36.175ZM154.373 31.7307L153.618 24.0157L153.594 24.0181L153.57 24.0206L154.373 31.7307ZM34.4531 9.42407L34.4533 1.67222H34.4531V9.42407ZM58.2861 11.1536L58.2861 18.9054H58.2861V11.1536ZM68.0947 17.7249H75.8466V17.7248L68.0947 17.7249ZM62.6748 23.345L61.573 15.6718L54.7078 16.6576L54.9268 23.5897L62.6748 23.345ZM62.3301 42.7141L54.5972 42.1722L53.8229 53.2217L64.4694 50.1649L62.3301 42.7141ZM64.1367 42.4543V34.7025H64.1361L64.1367 42.4543ZM69.2998 47.6428L77.0517 47.6429V47.6428H69.2998ZM56.3936 58.1917V65.9435L56.3936 65.9435L56.3936 58.1917ZM33.6787 56.7209L34.9856 49.08L34.9195 49.0688L34.8533 49.0586L33.6787 56.7209ZM27.1387 49.4583H19.3868V49.4583L27.1387 49.4583ZM34.0225 44.2698L34.8465 51.9777L41.6184 51.2537L41.7723 44.445L34.0225 44.2698ZM33.0762 21.0969L40.7719 20.1656L40.193 15.3827L35.6482 13.7842L33.0762 21.0969ZM27.6553 14.9583H19.9034V14.9584L27.6553 14.9583ZM97.5859 8.4729L96.9113 0.750463L96.8612 0.75484L96.8111 0.759867L97.5859 8.4729ZM104.555 14.9583L112.162 13.4691L112.154 13.4297L112.146 13.3904L104.555 14.9583ZM106.534 46.6917L114.286 46.6917V46.6917H106.534ZM101.802 56.2024L101.603 63.9517L101.618 63.9521L101.632 63.9524L101.802 56.2024ZM98.4463 56.1165L98.6448 48.3671L98.6219 48.3666L98.599 48.3661L98.4463 56.1165ZM91.9072 48.6799H99.6591V48.6799L91.9072 48.6799ZM89.9277 16.2551L97.6217 15.3099L97.6192 15.2889L97.6165 15.2679L89.9277 16.2551ZM94.1445 8.8186L93.3697 1.10557L93.3451 1.10804L93.3205 1.11067L94.1445 8.8186ZM81.0879 10.8938L81.6712 18.6237L81.7097 18.6208L81.7481 18.6175L81.0879 10.8938ZM88.0566 17.2922L95.7492 16.3354L95.747 16.3178L95.7448 16.3003L88.0566 17.2922ZM89.8633 43.9241H97.6151V43.924L89.8633 43.9241ZM84.4434 53.5217L84.6213 61.2715L84.7016 61.2697L84.7819 61.2662L84.4434 53.5217ZM80.6572 53.6086L80.6572 61.3605L80.7462 61.3605L80.8351 61.3585L80.6572 53.6086ZM74.8926 45.7405H67.1407L67.1407 45.7406L74.8926 45.7405ZM74.8066 39.6008L82.5524 39.2925L82.2792 32.4308L75.4347 31.8745L74.8066 39.6008ZM71.623 39.342L72.2511 31.6157L72.1573 31.608L72.0633 31.6027L71.623 39.342ZM65.6855 34.0676L57.9364 33.8627L57.936 33.8776L57.9357 33.8926L65.6855 34.0676ZM65.7725 30.7815L58.0236 30.5673L58.0233 30.5765L65.7725 30.7815ZM70.6768 26.0256L70.3148 33.769L70.4957 33.7775H70.6768V26.0256ZM74.1182 26.1125L73.6607 33.8509L82.416 34.3685L81.8541 25.6159L74.1182 26.1125ZM73.4297 18.676L65.7263 19.5415L65.7293 19.5683L65.7325 19.5952L73.4297 18.676ZM77.6455 11.1536L78.1217 18.8908L78.1753 18.8875L78.2288 18.8834L77.6455 11.1536ZM126.674 47.1536L126.674 39.4017H126.674V47.1536ZM122.694 48.9622L114.942 48.9605V48.9622H122.694ZM127.448 50.926L127.448 58.6779H127.448V50.926ZM131.066 49.3762L138.818 49.3774V49.3762H131.066ZM45.5518 23.0862L46.0092 15.3478L37.1001 14.8212L37.8256 23.7163L45.5518 23.0862ZM45.5518 44.2698L37.8135 43.8114L37.3272 52.0216H45.5518V44.2698ZM50.4561 44.3567L50.456 52.1085L57.7292 52.1086L58.1922 44.8502L50.4561 44.3567ZM50.4561 23.259L58.1878 22.7015L57.6691 15.5072L50.4561 15.5072L50.4561 23.259ZM117.007 11.8127V4.06089H117.007L117.007 11.8127ZM124.429 14.0608L118.673 19.253L118.679 19.2597L124.429 14.0608ZM126.592 20.22L118.898 21.1682L119.925 29.4991L128.148 27.814L126.592 20.22ZM127.103 20.1887L127.275 12.4388L127.189 12.4369H127.103V20.1887ZM129.866 20.2502L129.694 28.0002L138.109 28.1875L137.604 19.7856L129.866 20.2502ZM129.326 16.553L121.641 17.5697L121.649 17.6262L121.657 17.6825L129.326 16.553ZM130.678 13.9045L129.439 6.25224L129.332 6.26959L129.225 6.28994L130.678 13.9045ZM133.803 13.5657L133.803 5.81382H133.803V13.5657ZM136.236 15.8752L143.902 14.7245L143.895 14.6777L143.888 14.631L136.236 15.8752ZM136.957 24.9309H144.709V24.9309L136.957 24.9309ZM132.06 37.0022L136.83 43.112L136.845 43.1009L136.859 43.0897L132.06 37.0022ZM127.703 35.4319L120.927 31.667L120.896 31.7218L120.867 31.7771L127.703 35.4319ZM130.047 26.2551L137.793 26.5403L138.089 18.5033L130.047 18.5033L130.047 26.2551ZM127.463 26.1633L126.478 33.8523L126.761 33.8886L127.045 33.9039L127.463 26.1633ZM126.832 26.0706L129.338 18.7348L119.196 15.2707L119.081 25.9874L126.832 26.0706ZM118.059 40.051V47.8029L118.059 47.8029L118.059 40.051ZM109.826 34.1389H102.074V34.139L109.826 34.1389ZM109.946 31.6135L102.225 30.9286L102.217 31.0194L102.211 31.1104L109.946 31.6135ZM110.187 24.9309L102.435 24.9309V24.9309H110.187ZM112.26 13.0442L107.242 7.13537L107.171 7.19541L107.102 7.25713L112.26 13.0442ZM117.428 17.1711L117.428 9.41929H117.428V17.1711ZM116.046 25.2698L108.294 25.2698V25.2698H116.046ZM115.865 32.5061L108.113 32.5055V32.5061H115.865ZM117.397 34.385L117.397 42.1369L120.286 42.1369L122.47 40.2464L117.397 34.385ZM120.433 25.7629L128.184 25.7631V25.7629H120.433ZM21.7188 55.4241L21.7185 63.1759C21.275 63.1759 21.0373 62.986 21.0768 63.0155C21.0867 63.0229 21.0932 63.0309 21.0788 63.0153C21.0684 63.0041 21.045 62.9779 21.0067 62.9302C20.9872 62.906 20.9634 62.8756 20.935 62.8381C20.9207 62.8192 20.9053 62.7985 20.8886 62.7758C20.8802 62.7644 20.8715 62.7526 20.8625 62.7401C20.858 62.7339 20.8534 62.7276 20.8488 62.7211C20.8464 62.7179 20.8441 62.7146 20.8417 62.7113C20.8405 62.7096 20.8387 62.7071 20.8381 62.7063C20.8363 62.7038 20.8345 62.7013 27.1396 58.1917C33.4448 53.682 33.443 53.6795 33.4411 53.6769C33.4405 53.6761 33.4387 53.6735 33.4374 53.6718C33.4349 53.6683 33.4324 53.6648 33.4298 53.6612C33.4247 53.654 33.4194 53.6467 33.4139 53.6392C33.403 53.6241 33.3914 53.6082 33.3792 53.5916C33.3548 53.5584 33.3278 53.5222 33.2982 53.4831C33.2391 53.405 33.1694 53.3151 33.0891 53.2153C32.9291 53.0163 32.7241 52.7738 32.4744 52.5031C31.9813 51.9686 31.2779 51.2848 30.3627 50.6003C28.5522 49.2461 25.604 47.6724 21.719 47.6722L21.7188 55.4241ZM27.1396 58.1917L22.3659 52.0841C20.0204 53.9173 18.2687 56.737 18.2687 60.2668H26.0205H33.7724C33.7724 61.0756 33.5797 61.9617 33.1416 62.7896C32.722 63.5828 32.2154 64.0632 31.9134 64.2992L27.1396 58.1917ZM26.0205 60.2668L18.2687 60.2733C18.27 61.8997 18.7594 63.1585 18.9981 63.7163C19.2938 64.4072 19.6406 65.0002 19.9442 65.4655C20.5571 66.4046 21.3103 67.3043 22.1096 68.1298C23.7299 69.8033 25.9438 71.5889 28.7058 73.2094C34.2885 76.4847 42.2973 79.1927 52.5445 78.8212L52.2637 71.0745L51.9828 63.3277C44.859 63.586 39.7469 61.7121 36.5511 59.8372C34.9239 58.8825 33.8341 57.9509 33.248 57.3455C32.944 57.0315 32.8683 56.9013 32.9279 56.9927C32.9549 57.0341 33.094 57.2487 33.2511 57.6158C33.3513 57.8498 33.7712 58.8395 33.7724 60.2604L26.0205 60.2668ZM52.2637 71.0745L52.2637 78.8263C65.9557 78.8262 77.6926 73.8535 81.0919 64.1194L73.7734 61.5637L66.455 59.008C66.4528 59.0144 66.0321 60.0615 63.6945 61.2113C61.4171 62.3316 57.7003 63.3226 52.2636 63.3226L52.2637 71.0745ZM73.7734 61.5637L81.1544 63.933C81.3312 63.382 81.2321 64.0501 80.3758 64.6979C79.5299 65.3379 78.9718 65.1835 79.8149 65.1629L79.625 57.4133L79.4351 49.6638C76.7505 49.7296 73.6968 50.3102 71.0222 52.3337C68.3371 54.3649 67.0761 57.065 66.3925 59.1945L73.7734 61.5637ZM79.625 57.4133L79.76 65.164L84.7502 65.0771L84.6152 57.3264L84.4802 49.5757L79.49 49.6627L79.625 57.4133ZM84.6152 57.3264L84.771 65.0767C85.4631 65.0628 85.4293 65.1388 85.0359 65.0215C84.801 64.9515 84.4292 64.8103 84.0022 64.5384C83.5624 64.2583 83.1544 63.8967 82.8134 63.473C82.1445 62.6417 82.0274 61.945 82.0391 62.0054C82.0553 62.0884 82.1114 62.4872 82.1114 63.4661H89.8633H97.6151C97.6151 61.2985 97.569 57.0796 94.8916 53.7528C91.7134 49.8036 87.0749 49.5236 84.4595 49.5761L84.6152 57.3264ZM89.8633 63.4661L82.1114 63.4658C82.1114 63.6493 82.0941 63.9146 82.0027 64.3739L89.6055 65.887L97.2082 67.4C97.4609 66.1302 97.6151 64.839 97.6151 63.4663L89.8633 63.4661ZM89.6055 65.887L90.1236 73.6215C92.7235 73.4473 95.2341 73.2931 97.5215 73.2931V65.5413V57.7894C94.6464 57.7894 91.65 57.9808 89.0873 58.1525L89.6055 65.887ZM97.5215 65.5413V73.2931C98.2534 73.2931 99.3895 73.6656 100.427 74.737C101.412 75.7552 102.073 77.1813 102.073 78.8567L109.825 78.8567L117.577 78.8567C117.577 67.2063 108.234 57.7894 97.5215 57.7894V65.5413ZM109.825 78.8567H102.073C102.073 80.3039 101.672 80.6037 101.764 80.5079C101.786 80.4857 101.76 80.531 101.581 80.5984C101.383 80.6727 100.949 80.7894 100.188 80.7894V88.5413V96.2931C104.901 96.2931 109.496 94.8063 112.895 91.2998C116.258 87.8317 117.577 83.2892 117.577 78.8567H109.825ZM100.188 88.5413L100.189 80.7894C97.7723 80.7893 96.8417 79.0988 96.8417 78.2512H89.0898H81.338C81.338 88.4712 90.0428 96.2929 100.188 96.2931L100.188 88.5413ZM89.0898 78.2512L96.8417 78.2509C96.8415 72.8942 93.8755 69.2315 91.5002 67.1097L86.3359 72.8909L81.1717 78.672C81.3365 78.8192 81.4386 78.9282 81.4965 78.9968C81.5535 79.0643 81.5527 79.0751 81.5256 79.0265C81.4962 78.9738 81.4444 78.8666 81.4019 78.7117C81.3583 78.5527 81.338 78.3926 81.338 78.2515L89.0898 78.2512ZM86.3359 72.8909L79.985 68.4461C76.1692 73.8983 66.5319 81.3938 46.5849 81.3939L46.585 89.1458L46.585 96.8976C70.6906 96.8975 85.4892 87.6201 92.6869 77.3357L86.3359 72.8909ZM46.585 89.1458L46.0145 81.4149C39.2178 81.9165 31.4958 79.5915 25.3971 75.9644C22.3884 74.1749 20.0909 72.2519 18.6439 70.5653C17.0495 68.7066 17.1659 67.9593 17.1659 68.3942L9.41406 68.3948L1.66221 68.3954C1.66259 73.3265 4.23716 77.5827 6.87678 80.6597C9.66399 83.9088 13.3766 86.8537 17.4721 89.2895C25.5819 94.1127 36.445 97.667 47.1555 96.8766L46.585 89.1458ZM9.41406 68.3948L17.1173 67.5277C16.9613 66.1418 17.1042 65.3143 17.2374 64.8852C17.3585 64.4951 17.5058 64.3097 17.6415 64.1814C17.9636 63.877 19.0857 63.1759 21.7188 63.1759V55.4241V47.6722C16.694 47.6722 11.1594 48.9748 6.99129 52.9148C2.58047 57.0843 1.00132 62.9582 1.71086 69.2618L9.41406 68.3948ZM144.709 34.8831L145.213 42.6185C145.322 42.6114 144.817 42.667 144.033 42.4371C143.09 42.1606 142.114 41.5803 141.36 40.7014C140.706 39.9399 140.506 39.2859 140.489 39.2305C140.472 39.1746 140.531 39.3583 140.609 39.9793L148.301 39.0178L155.993 38.0563C155.787 36.4133 155.333 33.177 153.123 30.6026C150.234 27.2378 146.381 27.0057 144.204 27.1476L144.709 34.8831ZM148.301 39.0178L140.609 39.9793C141.072 43.6847 142.487 54.3482 142.487 58.4202H150.239H157.991C157.991 53.0867 156.357 40.9664 155.993 38.0563L148.301 39.0178ZM150.239 58.4202L142.487 58.42C142.487 58.75 142.469 58.9724 142.452 59.1071C142.434 59.2408 142.421 59.2633 142.44 59.2037C142.46 59.14 142.513 58.9944 142.625 58.8026C142.74 58.6065 142.893 58.4022 143.082 58.2119C143.27 58.0229 143.453 57.8888 143.598 57.8009C143.738 57.7159 143.821 57.6874 143.81 57.6914C143.796 57.6963 143.702 57.7281 143.503 57.7671C143.304 57.8061 143.025 57.8472 142.65 57.8795L143.314 65.6028L143.979 73.3261C147.061 73.0609 151.023 72.2139 154.076 69.144C157.257 65.9445 157.991 61.8362 157.991 58.4203L150.239 58.4202ZM143.314 65.6028L142.524 57.8914C141.019 58.0457 139.422 58.0062 136.906 58.0062L136.906 65.7581L136.906 73.5099C138.835 73.5099 141.579 73.5733 144.105 73.3142L143.314 65.6028ZM136.906 65.7581V58.0062C135.727 58.0062 134.423 57.9604 132.945 57.9076L132.668 65.6545L132.391 73.4015C133.807 73.452 135.398 73.5099 136.906 73.5099V65.7581ZM132.668 65.6545H124.916V66.2229H132.668H140.42V65.6545H132.668ZM132.668 66.2229H124.916C124.916 66.3626 124.911 66.4649 124.905 66.5274C124.9 66.594 124.897 66.5856 124.911 66.5122L132.513 68.0325L140.114 69.5527C140.343 68.4059 140.42 67.2536 140.42 66.2229H132.668ZM132.513 68.0325V75.7843C133.303 75.7843 134.161 75.7963 135.177 75.8095C136.174 75.8225 137.29 75.8361 138.508 75.8361V68.0842V60.3324C137.4 60.3324 136.371 60.3201 135.379 60.3072C134.405 60.2945 133.428 60.2806 132.513 60.2806V68.0325ZM138.508 68.0842V75.8361C143.224 75.8361 147.92 75.5627 151.617 75.2994C153.453 75.1686 155.119 75.0345 156.347 74.9413C156.979 74.8933 157.49 74.8565 157.893 74.8319C158.092 74.8197 158.247 74.8116 158.363 74.8068C158.486 74.8017 158.526 74.8019 158.508 74.8019V67.05V59.2982C157.11 59.2982 153.68 59.6095 150.515 59.8349C146.951 60.0887 142.68 60.3324 138.508 60.3324V68.0842ZM158.508 67.05L158.508 74.8019C158.763 74.8019 158.592 74.8227 158.234 74.7434C157.824 74.6524 157.034 74.4018 156.222 73.7361C154.368 72.2156 154.58 70.4888 154.58 71.3394L162.332 71.3391L170.084 71.3388C170.084 68.314 169.34 64.4426 166.051 61.7465C163.074 59.3058 159.645 59.2982 158.508 59.2982L158.508 67.05ZM162.332 71.3391H154.58C154.58 70.7834 154.681 70.3549 154.769 70.0881C154.812 69.9551 154.855 69.8575 154.884 69.7964C154.913 69.7353 154.932 69.7043 154.932 69.7032C154.933 69.7019 154.919 69.7245 154.885 69.7705C154.852 69.8163 154.801 69.8805 154.731 69.9625C154.588 70.129 154.382 70.3457 154.099 70.6077C152.897 71.718 150.885 73.1093 148.134 74.5538L151.737 81.4172L155.341 88.2807C158.791 86.4694 162.076 84.3462 164.622 81.9936C166.788 79.9916 170.084 76.3147 170.084 71.3391H162.332ZM151.737 81.4172L150.641 89.0912C151.637 89.2335 152.549 89.2208 152.823 89.2208V81.469V73.7171C152.8 73.7171 152.78 73.7171 152.76 73.7171C152.74 73.7171 152.722 73.7171 152.705 73.7171C152.671 73.717 152.644 73.7168 152.622 73.7166C152.599 73.7164 152.583 73.7162 152.572 73.716C152.562 73.7158 152.557 73.7156 152.558 73.7156C152.558 73.7156 152.584 73.7165 152.63 73.7202C152.676 73.7239 152.745 73.7307 152.834 73.7433L151.737 81.4172ZM152.823 81.469L153.575 89.1843C157.751 88.7773 160.994 88.0531 163.803 86.8629C166.63 85.6649 168.604 84.1497 170.045 83.0639L165.381 76.8723L160.717 70.6807C159.238 71.7945 158.628 72.2175 157.754 72.5878C156.861 72.9661 155.285 73.4404 152.071 73.7537L152.823 81.469ZM165.381 76.8723L170.862 82.3537C170.114 83.1023 168.156 84.5475 165.234 84.1737C162.582 83.8345 158.817 81.4922 158.817 76.8176H166.569H174.321C174.321 71.8278 170.286 69.1899 167.201 68.7953C163.846 68.3662 161.294 69.9963 159.899 71.3909L165.381 76.8723ZM166.569 76.8176L158.817 76.8176C158.817 78.2425 158.544 78.8615 158.444 79.0483C158.363 79.1989 158.254 79.3429 157.934 79.5315C156.998 80.0838 155.061 80.5384 151.789 80.5384V88.2903V96.0421C155.701 96.0421 161.153 95.6328 165.812 92.8849C171.225 89.6912 174.321 84.1257 174.321 76.8177L166.569 76.8176ZM151.789 88.2903L151.789 80.5384C148.656 80.5384 146.289 79.8348 144.154 78.8605L140.937 85.9133L137.719 92.9661C141.475 94.6791 146.034 96.0421 151.789 96.0421L151.789 88.2903ZM140.937 85.9133L138.571 78.5311C133.754 80.0745 128.997 80.9515 125.123 80.9515V88.7034V96.4552C131.068 96.4552 137.473 95.1628 143.302 93.2956L140.937 85.9133ZM125.123 88.7034V80.9515C123.369 80.9515 122.12 80.8408 121.259 80.6867C120.38 80.5296 120.152 80.3703 120.262 80.4348C120.46 80.5501 120.894 80.8913 121.209 81.495C121.493 82.0386 121.454 82.3639 121.454 82.1405L113.702 82.1409L105.95 82.1412C105.95 84.1916 106.318 86.474 107.468 88.6745C108.649 90.9349 110.407 92.6325 112.439 93.8201C116.138 95.9816 120.752 96.4552 125.123 96.4552V88.7034ZM113.702 82.1409H121.454C121.454 82.4739 121.348 83.1393 120.895 83.8027C120.48 84.4108 120.105 84.5288 120.36 84.4081C120.649 84.2718 121.382 84.0048 122.811 83.786C124.215 83.5711 126.088 83.4328 128.534 83.4328V75.6809V67.9291C122.803 67.9291 117.681 68.5266 113.737 70.3905C111.641 71.3809 109.593 72.862 108.092 75.0591C106.554 77.3117 105.95 79.7923 105.95 82.1409H113.702ZM128.534 75.6809L128.534 83.4328C133.448 83.4328 136.387 84.3517 138.865 85.3508L141.764 78.1614L144.663 70.972C140.732 69.3871 135.816 67.9291 128.534 67.9291L128.534 75.6809ZM141.764 78.1614L144.67 85.3476C147.108 84.3617 149.44 83.3175 151.245 82.3802C152.115 81.9287 153.069 81.3965 153.895 80.8228C154.281 80.5546 154.906 80.096 155.518 79.467C155.825 79.1517 156.31 78.611 156.757 77.8577C157.171 77.1608 157.883 75.7311 157.888 73.7854L150.136 73.7688L142.384 73.7522C142.388 71.884 143.07 70.542 143.427 69.9422C143.816 69.286 144.215 68.8518 144.41 68.6518C144.629 68.4269 144.807 68.2787 144.892 68.2102C144.984 68.1354 145.043 68.0943 145.053 68.0879C145.065 68.0791 144.996 68.1274 144.811 68.2344C144.635 68.3362 144.4 68.4653 144.102 68.6202C142.871 69.2591 141.018 70.1009 138.857 70.9752L141.764 78.1614ZM150.136 73.7688H157.888C157.888 72.5931 157.633 71.0851 156.74 69.5904C155.842 68.0871 154.614 67.1249 153.512 66.5492C151.635 65.568 149.824 65.5511 149.205 65.5511V73.303V81.0548C149.1 81.0548 148.8 81.0507 148.381 80.9821C147.986 80.9173 147.219 80.7536 146.332 80.29C145.379 79.792 144.258 78.9269 143.43 77.54C142.606 76.1617 142.384 74.7894 142.384 73.7688H150.136ZM149.205 73.303L149.203 65.5511C148.447 65.5513 147.476 65.6641 147.059 65.7091C146.394 65.7809 145.657 65.864 144.778 65.9489C143.033 66.1173 140.902 66.2748 138.663 66.2748L138.663 74.0266L138.663 81.7785C141.591 81.7785 144.265 81.5742 146.268 81.3808C147.261 81.2849 148.132 81.1871 148.724 81.1232C149.564 81.0325 149.498 81.0548 149.207 81.0548L149.205 73.303ZM138.663 74.0266V66.2748C135.759 66.2748 130.433 66.1715 128.315 66.0334L127.811 73.7688L127.306 81.5042C129.943 81.6761 135.676 81.7785 138.663 81.7785V74.0266ZM127.811 73.7688L128.294 66.032C125.662 65.8675 123.745 65.7091 122.344 65.5503C120.888 65.3852 120.247 65.2466 120.046 65.1911C119.751 65.1099 120.823 65.324 121.947 66.4484C123.33 67.8308 123.618 69.3875 123.658 69.6151L116.027 70.9778L108.396 72.3405C108.566 73.2916 109.048 75.475 110.985 77.4113C112.663 79.0898 114.649 79.7852 115.924 80.1369C118.403 80.8206 122.106 81.1793 127.327 81.5056L127.811 73.7688ZM116.027 70.9778L123.654 69.5913C123.712 69.9116 123.723 70.1309 123.726 70.2111C123.729 70.3099 123.727 70.381 123.723 70.4349C123.72 70.4872 123.712 70.5789 123.688 70.713C123.668 70.8253 123.611 71.1136 123.468 71.5078L116.183 68.8586L108.897 66.2095C108.446 67.4503 108.305 68.6428 108.254 69.4015C108.201 70.1889 108.199 71.2556 108.4 72.3643L116.027 70.9778ZM116.183 68.8586L123.418 71.642C123.283 71.9921 122.979 72.632 122.363 73.2943C121.722 73.9846 121.003 74.4193 120.396 74.6657C120.117 74.7791 119.892 74.8406 119.749 74.8733C119.607 74.9056 119.526 74.9143 119.525 74.9144C119.525 74.9145 119.578 74.9087 119.7 74.9048C119.822 74.9009 119.99 74.8995 120.216 74.9039L120.368 67.1536L120.52 59.4032C119.059 59.3746 116.778 59.4022 114.566 60.3003C111.648 61.4845 109.86 63.7027 108.948 66.0753L116.183 68.8586ZM120.368 67.1536V74.9054C120.569 74.9054 120.849 74.9302 122.339 75.109L123.263 67.4124L124.186 59.7157C123.092 59.5844 121.718 59.4017 120.368 59.4017V67.1536ZM123.263 67.4124L130.937 66.3161C130.949 66.4051 130.956 66.4763 130.96 66.5245C130.964 66.5717 130.965 66.5981 130.965 66.5952C130.965 66.594 130.964 66.5871 130.964 66.5728C130.964 66.5585 130.964 66.5387 130.963 66.5114C130.963 66.4839 130.963 66.4516 130.963 66.4115C130.963 66.3706 130.963 66.3276 130.963 66.2747H123.211H115.459C115.459 66.5811 115.446 67.506 115.589 68.5086L123.263 67.4124ZM123.211 66.2747H130.963V65.2415H123.211H115.459V66.2747H123.211ZM123.211 65.2415L123.784 57.5108C122.415 57.4094 121.169 57.3091 120.089 57.2109L119.387 64.9309L118.685 72.6509C119.879 72.7595 121.217 72.8668 122.638 72.9721L123.211 65.2415ZM119.387 64.9309L120.099 57.2119C119.355 57.1432 119.266 57.0973 119.447 57.1477C119.689 57.2152 120.741 57.5434 121.764 58.6017C122.828 59.7029 123.151 60.855 123.239 61.2867C123.302 61.5958 123.263 61.6287 123.263 60.9523L115.511 60.9524L107.759 60.9525C107.759 61.8263 107.784 63.0929 108.049 64.3902C108.339 65.81 109.001 67.7048 110.614 69.3744C112.186 71.001 113.997 71.7231 115.281 72.0812C116.503 72.4222 117.739 72.5636 118.674 72.6499L119.387 64.9309ZM115.511 60.9524H123.263C123.263 60.5149 123.306 60.6088 123.203 60.9954C123.096 61.3996 122.708 62.5573 121.511 63.6223C120.213 64.7779 118.766 65.1173 117.829 65.1578C117.048 65.1916 116.643 65.0252 116.859 65.093L119.18 57.6965L121.5 50.3001C119.766 49.7561 115.093 48.5792 111.203 52.0423C109.418 53.6306 108.607 55.5602 108.223 56.9996C107.844 58.4214 107.759 59.8137 107.759 60.9524H115.511ZM119.18 57.6965L116.96 65.1238C122.388 66.746 129.023 67.4123 134.374 67.4123V59.6604V51.9085C130.009 51.9085 124.963 51.3344 121.399 50.2693L119.18 57.6965ZM134.374 59.6604L134.374 67.4123C136.426 67.4122 138.724 67.3565 141.206 67.1873L140.679 59.4534L140.151 51.7195C138.086 51.8603 136.146 51.9085 134.374 51.9086L134.374 59.6604ZM140.679 59.4534H148.431C148.431 56.8363 148.316 54.6095 148.146 52.5222L140.42 53.1487L132.693 53.7751C132.834 55.512 132.927 57.3161 132.927 59.4534H140.679ZM140.42 53.1487L140.687 45.4014C139.191 45.3498 137.982 45.3006 137.206 45.2549L136.751 52.9934L136.296 60.7319C137.277 60.7896 138.652 60.8442 140.153 60.8959L140.42 53.1487ZM136.751 52.9934L129.878 49.4077C130.06 49.0599 130.306 48.7723 130.545 48.5757C130.763 48.3957 130.869 48.3798 130.716 48.4374C130.323 48.5851 129.205 48.8587 126.88 48.8587V56.6106V64.3624C132.78 64.3624 140.175 63.1891 143.624 56.5792L136.751 52.9934ZM126.88 56.6106L126.88 48.8587C125.214 48.8587 124.112 48.7146 123.424 48.5496C122.75 48.3877 122.663 48.2519 122.829 48.3798C123.055 48.554 123.24 48.8191 123.319 49.0149C123.365 49.1311 123.263 48.9486 123.263 48.2393L115.511 48.2395L107.759 48.2398C107.759 52.5007 109.015 57.3046 113.36 60.6559C117.219 63.6321 122.185 64.3624 126.88 64.3624L126.88 56.6106ZM115.511 48.2395H123.263C123.263 47.8956 123.32 48.1563 123.074 48.6781C122.781 49.301 122.323 49.7364 121.992 49.9428C121.767 50.0827 121.876 49.9455 122.695 49.7943C123.5 49.6458 124.723 49.5314 126.519 49.5314V41.7795V34.0277C122.113 34.0277 117.466 34.4974 113.797 36.7817C111.754 38.054 110.104 39.8298 109.047 42.0758C108.037 44.2207 107.759 46.387 107.759 48.2395H115.511ZM126.519 41.7795L126.519 49.5314C128.85 49.5314 129.851 49.876 130.115 50.0007C130.202 50.042 130.105 50.01 129.95 49.8485C129.79 49.6811 129.696 49.5085 129.657 49.4124L136.854 46.5334L144.052 43.6544C141.007 36.0429 133.459 34.0277 126.519 34.0277L126.519 41.7795ZM136.854 46.5334L136.716 54.2841L139.609 54.3358L139.748 46.5852L139.887 38.8346L136.993 38.7828L136.854 46.5334ZM139.748 46.5852L147.477 45.984C147.442 45.5424 147.388 45.0154 147.343 44.5697C147.294 44.084 147.245 43.5896 147.201 43.072C147.11 42.0117 147.057 41.0274 147.075 40.2113C147.097 39.2367 147.212 39.1748 147.049 39.5985C146.947 39.8626 146.601 40.6637 145.725 41.4719C144.718 42.4008 143.36 43.0066 141.913 43.0876L141.479 35.3479L141.046 27.6082C135.905 27.8961 133.454 31.7644 132.586 34.0141C131.762 36.1465 131.608 38.3843 131.575 39.8642C131.509 42.8296 131.969 46.5407 132.02 47.1864L139.748 46.5852ZM141.479 35.3479L142.584 43.0207L145.813 42.5558L144.709 34.8831L143.605 27.2103L140.375 27.6751L141.479 35.3479ZM126.725 78.9368L126.724 71.1849C124.423 71.185 121.782 71.4197 119.45 72.5546C118.171 73.1771 116.748 74.1867 115.663 75.7883C114.541 77.4453 114.115 79.243 114.115 80.8489H121.867H129.619C129.619 81.9639 129.316 83.2771 128.499 84.4835C127.719 85.6345 126.784 86.2275 126.235 86.4947C125.716 86.7475 125.416 86.7744 125.563 86.7508C125.686 86.7309 126.045 86.6886 126.725 86.6886L126.725 78.9368ZM121.867 80.8489L114.115 80.8544C114.117 83.7309 115.551 85.7841 116.68 86.9071C117.819 88.0409 119.092 88.7165 120.105 89.1283C122.146 89.9577 124.46 90.254 126.776 90.2541L126.776 82.5022L126.777 74.7503C125.631 74.7503 125.49 74.5817 125.942 74.7653C126.161 74.8542 126.856 75.1617 127.616 75.9177C128.365 76.6628 129.617 78.3286 129.619 80.8434L121.867 80.8489ZM126.776 82.5022V90.2541C129.414 90.2541 132.594 89.5014 135.31 88.6869L133.082 81.262L130.855 73.837C129.74 74.1713 128.77 74.415 127.992 74.5696C127.605 74.6464 127.299 74.6947 127.071 74.7225C126.832 74.7516 126.743 74.7503 126.776 74.7503V82.5022ZM133.082 81.262L137.162 74.6708C134.852 73.2405 131.28 71.1849 126.725 71.1849V78.9368V86.6886C126.649 86.6886 126.717 86.6631 127.06 86.7995C127.465 86.9603 128.043 87.2593 129.002 87.8531L133.082 81.262ZM157.009 31.4729L157.68 39.1956C157.497 39.2115 157.022 39.2249 156.382 39.0338C155.705 38.8314 155.044 38.4586 154.499 37.9444C153.479 36.9816 153.465 36.1278 153.553 36.646L161.195 35.3479L168.838 34.0498C168.461 31.8293 167.542 28.9346 165.139 26.6674C162.49 24.1684 159.201 23.5012 156.337 23.7502L157.009 31.4729ZM161.195 35.3479L153.549 36.6223C153.548 36.6166 153.552 36.6418 153.561 36.7061C153.569 36.7682 153.58 36.8522 153.592 36.9607C153.617 37.1798 153.645 37.4616 153.676 37.8086C153.738 38.5035 153.804 39.3804 153.873 40.3996C154.009 42.4344 154.145 44.9255 154.266 47.4446C154.513 52.5633 154.684 57.4743 154.684 58.8333H162.436H170.187C170.187 57.0398 169.996 51.7585 169.752 46.6978C169.519 41.8591 169.195 36.1906 168.842 34.0735L161.195 35.3479ZM162.436 58.8333L154.684 58.8332C154.684 59.7485 154.632 60.2172 154.602 60.3958C154.568 60.5951 154.607 60.1548 155.009 59.4839C155.493 58.6757 156.279 57.906 157.291 57.4202C158.158 57.0034 158.81 56.9818 158.828 56.981L159.18 64.7249L159.532 72.4687C160.687 72.4162 162.313 72.2072 164.005 71.3946C165.839 70.5131 167.298 69.1394 168.312 67.4462C170.023 64.5867 170.187 61.2225 170.187 58.8333L162.436 58.8333ZM159.18 64.7249L158.875 56.979L156.24 57.0825L156.544 64.8284L156.848 72.5742L159.484 72.4707L159.18 64.7249ZM156.544 64.8284L156.214 57.0835C155.881 57.0977 156.231 57.0441 156.864 57.2023C157.675 57.4049 158.829 57.9241 159.784 59.0258C160.641 60.0143 160.861 60.9289 160.9 61.1053C160.935 61.2687 160.885 61.1254 160.885 60.4348H153.133H145.381C145.381 62.3312 145.465 66.1778 148.071 69.1831C151.178 72.7658 155.463 72.6332 156.874 72.5732L156.544 64.8284ZM153.133 60.4348L160.885 60.4347C160.885 55.0249 160.103 39.7344 159.469 35.1191L151.789 36.175L144.109 37.231C144.612 40.8841 145.381 55.4048 145.381 60.4349L153.133 60.4348ZM151.789 36.175L159.477 35.1831C159.398 34.5684 159.418 34.4398 159.411 34.5775C159.403 34.7142 159.348 35.6068 158.726 36.6946C158.011 37.9456 156.97 38.7309 156.085 39.135C155.382 39.4562 154.933 39.4661 155.176 39.4408L154.373 31.7307L153.57 24.0206C151.816 24.2033 147.624 24.8753 145.266 29.0022C144.256 30.7683 143.994 32.5233 143.929 33.7533C143.863 34.9843 143.974 36.1798 144.101 37.167L151.789 36.175ZM154.373 31.7307L155.128 39.4457L157.763 39.1879L157.009 31.4729L156.254 23.7579L153.618 24.0157L154.373 31.7307ZM34.4531 9.42407L34.4529 17.1759C36.274 17.176 40.3556 17.5528 45.3048 18.0081C49.8326 18.4246 55.0872 18.9054 58.2861 18.9054L58.2861 11.1536L58.2862 3.40171C55.9784 3.4017 51.5968 3.01776 46.725 2.56959C42.2745 2.16017 37.1928 1.67229 34.4533 1.67222L34.4531 9.42407ZM58.2861 11.1536V18.9054C59.9668 18.9054 61.034 18.9833 61.7075 19.0918C62.3997 19.2033 62.2389 19.2819 61.768 18.9786C61.504 18.8086 61.2034 18.5573 60.928 18.2186C60.6547 17.8826 60.4878 17.5608 60.3942 17.3243C60.2359 16.9241 60.3429 16.9084 60.3429 17.7249L68.0947 17.7249L75.8466 17.7248C75.8465 14.055 74.9801 9.0467 70.1624 5.94409C66.4877 3.57754 61.8247 3.40171 58.2861 3.40171V11.1536ZM68.0947 17.7249H60.3429C60.3429 18.0136 60.3041 17.8943 60.4256 17.5409C60.5663 17.1318 60.8505 16.6205 61.3109 16.1688C61.7441 15.7438 62.1213 15.5792 62.1993 15.5484C62.2508 15.5281 62.0878 15.5979 61.573 15.6718L62.6748 23.345L63.7766 31.0181C66.2084 30.669 69.5244 29.83 72.1687 27.2355C75.0455 24.4131 75.8466 20.8219 75.8466 17.7249H68.0947ZM62.6748 23.345L54.9268 23.5897C55.0917 28.8101 55.0067 36.3279 54.5972 42.1722L62.3301 42.7141L70.063 43.256C70.5138 36.8221 70.602 28.7746 70.4228 23.1002L62.6748 23.345ZM62.3301 42.7141L64.4694 50.1649C64.4072 50.1828 64.2902 50.2062 64.1373 50.2062L64.1367 42.4543L64.1361 34.7025C62.779 34.7026 61.4573 34.8997 60.1908 35.2633L62.3301 42.7141ZM64.1367 42.4543V50.2062C64.1867 50.2062 63.3323 50.193 62.4505 49.3176C61.558 48.4315 61.548 47.5672 61.548 47.6428H69.2998H77.0517C77.0517 44.4328 76.0518 40.9742 73.3737 38.3153C70.7062 35.667 67.2703 34.7025 64.1367 34.7025V42.4543ZM69.2998 47.6428L61.548 47.6427C61.5479 50.6566 60.9217 50.3903 61.5396 49.8478C61.7335 49.6776 61.6686 49.846 60.8412 50.0495C59.9772 50.2621 58.5778 50.4398 56.3935 50.4398L56.3936 58.1917L56.3936 65.9435C61.8334 65.9435 67.5668 65.1871 71.7682 61.4986C76.301 57.519 77.0516 51.9783 77.0517 47.6429L69.2998 47.6428ZM56.3936 58.1917V50.4398C49.4699 50.4398 38.4249 49.6683 34.9856 49.08L33.6787 56.7209L32.3718 64.3618C37.0211 65.157 49.0346 65.9435 56.3936 65.9435V58.1917ZM33.6787 56.7209L34.8533 49.0586C34.5177 49.0072 34.2844 48.9509 34.1344 48.9067C33.9853 48.8627 33.9312 48.8342 33.9465 48.8418C33.9644 48.8506 34.0467 48.8937 34.1652 48.9867C34.2858 49.0814 34.4179 49.2075 34.5435 49.3636C34.6688 49.5192 34.7623 49.673 34.8281 49.807C34.8924 49.938 34.9201 50.0294 34.9283 50.0596C34.9359 50.0876 34.9254 50.0581 34.9136 49.9544C34.9018 49.8501 34.8905 49.6885 34.8905 49.4582L27.1387 49.4583L19.3868 49.4583C19.3868 52.2328 19.9023 55.8998 22.4665 59.0853C25.0896 62.3438 28.8106 63.8171 32.5041 64.3833L33.6787 56.7209ZM27.1387 49.4583H34.8905C34.8905 49.6823 34.8356 50.2438 34.4783 50.9105C34.1208 51.5776 33.6572 51.9835 33.3657 52.178C33.1181 52.3431 33.0522 52.3202 33.3533 52.2349C33.6448 52.1524 34.1242 52.0549 34.8465 51.9777L34.0225 44.2698L33.1984 36.5618C30.797 36.8186 27.5582 37.4155 24.7625 39.2803C21.3977 41.5247 19.3868 45.1303 19.3868 49.4583H27.1387ZM34.0225 44.2698L41.7723 44.445C41.9505 36.5659 41.6012 27.0182 40.7719 20.1656L33.0762 21.0969L25.3805 22.0283C26.0999 27.9725 26.4385 36.7557 26.2726 44.0945L34.0225 44.2698ZM33.0762 21.0969L35.6482 13.7842C35.1849 13.6212 34.9095 13.4799 34.7718 13.3971C34.6368 13.3159 34.6825 13.3204 34.8069 13.457C34.9431 13.6067 35.1182 13.855 35.2481 14.1908C35.378 14.5265 35.4071 14.806 35.4071 14.9581L27.6553 14.9583L19.9034 14.9584C19.9035 18.3562 21.117 21.45 23.3434 23.8951C25.4193 26.175 28.052 27.5472 30.5041 28.4096L33.0762 21.0969ZM27.6553 14.9583H35.4071C35.4071 15.1751 35.3571 15.5577 35.1444 15.9991C34.9322 16.4395 34.6401 16.7678 34.3737 16.9782C33.8811 17.3672 33.7456 17.1759 34.4531 17.1759V9.42407V1.67222C31.2027 1.67222 27.6683 2.51873 24.7662 4.81016C21.6795 7.24735 19.9034 10.8824 19.9034 14.9583H27.6553ZM97.5859 8.4729L98.2606 16.1953C98.474 16.1767 98.3186 16.2232 97.9457 16.1093C97.7589 16.0522 97.5502 15.9643 97.3383 15.8392C97.1267 15.7142 96.95 15.5745 96.8113 15.4404C96.5367 15.1749 96.4947 15.0146 96.573 15.1858C96.6562 15.3679 96.8089 15.7797 96.9631 16.5261L104.555 14.9583L112.146 13.3904C111.54 10.4525 110.344 6.95965 107.588 4.29446C104.502 1.31075 100.604 0.427835 96.9113 0.750463L97.5859 8.4729ZM104.555 14.9583L96.9472 16.4475C97.3467 18.4882 97.8222 23.6495 98.1935 29.891C98.5538 35.9489 98.7823 42.4 98.7823 46.6917H106.534H114.286C114.286 41.9908 114.041 35.2125 113.67 28.9704C113.309 22.912 112.795 16.7027 112.162 13.4691L104.555 14.9583ZM106.534 46.6917L98.7823 46.6916C98.7823 48.3934 98.7339 49.5614 98.645 50.3783C98.55 51.2507 98.4513 51.2742 98.6138 50.9221C98.7159 50.701 98.9216 50.3299 99.29 49.9227C99.6714 49.5011 100.134 49.1446 100.637 48.8833C101.595 48.3854 102.254 48.4586 101.971 48.4524L101.802 56.2024L101.632 63.9524C103.329 63.9895 105.569 63.7924 107.785 62.6407C110.187 61.3926 111.752 59.4516 112.691 57.4191C113.541 55.5756 113.884 53.6537 114.058 52.0566C114.238 50.4038 114.286 48.5781 114.286 46.6917L106.534 46.6917ZM101.802 56.2024L102 48.4531L98.6448 48.3671L98.4463 56.1165L98.2478 63.8658L101.603 63.9517L101.802 56.2024ZM98.4463 56.1165L98.599 48.3661C98.1603 48.3575 97.8497 48.3406 97.6244 48.3196C97.3982 48.2986 97.3294 48.2795 97.3658 48.2882C97.4075 48.2981 97.6078 48.3491 97.8953 48.4918C98.1975 48.6418 98.5479 48.8695 98.8859 49.1924C99.2238 49.5152 99.4585 49.8464 99.6092 50.12C99.7525 50.3802 99.7952 50.5429 99.7925 50.5328C99.7887 50.5189 99.7518 50.3749 99.718 50.0517C99.6845 49.7307 99.6591 49.2838 99.6591 48.6799H91.9072H84.1554C84.1554 52.2317 84.6174 57.0028 88.1765 60.4028C91.6713 63.7415 96.2543 63.8266 98.2936 63.8668L98.4463 56.1165ZM91.9072 48.6799L99.6591 48.6799C99.6591 39.6992 98.5184 22.6087 97.6217 15.3099L89.9277 16.2551L82.2337 17.2003C83.0579 23.909 84.1554 40.3674 84.1554 48.6799L91.9072 48.6799ZM89.9277 16.2551L97.6165 15.2679C97.4684 14.1148 97.4567 13.5322 97.4691 13.2912C97.4818 13.0458 97.4999 13.6272 97.0272 14.4724C96.7781 14.9178 96.4416 15.3472 96.0292 15.7173C95.6258 16.0794 95.2417 16.3024 94.9662 16.4312C94.4966 16.6508 94.3468 16.593 94.9686 16.5265L94.1445 8.8186L93.3205 1.11067C90.7247 1.38818 86.0683 2.30507 83.4958 6.90491C82.3884 8.88507 82.0676 10.9095 81.986 12.4935C81.9041 14.0819 82.0429 15.7151 82.239 17.2423L89.9277 16.2551ZM94.1445 8.8186L94.9193 16.5316L98.3607 16.1859L97.5859 8.4729L96.8111 0.759867L93.3697 1.10557L94.1445 8.8186ZM81.0879 10.8938L81.7481 18.6175C82.0567 18.5911 82.0128 18.64 81.7419 18.5654C81.4277 18.479 81.013 18.2813 80.6391 17.9403C80.2841 17.6165 80.1648 17.3456 80.167 17.3507C80.1792 17.3789 80.2865 17.6488 80.3685 18.2842L88.0566 17.2922L95.7448 16.3003C95.3196 13.0048 94.1302 9.26106 91.0863 6.48503C87.872 3.55367 83.9006 2.87324 80.4277 3.17011L81.0879 10.8938ZM88.0566 17.2922L80.3641 18.2491C81.0288 23.593 82.1114 36.4824 82.1114 43.9241L89.8633 43.9241L97.6151 43.924C97.6151 35.6288 96.4612 22.059 95.7492 16.3354L88.0566 17.2922ZM89.8633 43.9241H82.1114C82.1114 45.496 82.0284 46.5267 81.9217 47.1822C81.8118 47.8579 81.7262 47.8139 81.9347 47.4551C82.0529 47.2516 82.2485 46.9769 82.5442 46.6946C82.8435 46.4089 83.1715 46.1858 83.4899 46.0265C84.0947 45.7237 84.4359 45.7628 84.1048 45.7773L84.4434 53.5217L84.7819 61.2662C86.4297 61.1941 88.4378 60.8874 90.4299 59.8902C92.5501 58.8288 94.1953 57.214 95.3402 55.2434C97.331 51.8167 97.6151 47.5856 97.6151 43.9241H89.8633ZM84.4434 53.5217L84.2655 45.7719L80.4793 45.8588L80.6572 53.6086L80.8351 61.3585L84.6213 61.2715L84.4434 53.5217ZM80.6572 53.6086L80.6572 45.8568C80.3604 45.8568 80.2027 45.843 80.1456 45.8361C80.0896 45.8294 80.1943 45.8368 80.4031 45.9044C80.6231 45.9757 80.9527 46.1121 81.3229 46.3593C81.7018 46.6122 82.0348 46.9225 82.3019 47.2596C82.8205 47.9142 82.8614 48.3733 82.7991 48.0767C82.7345 47.7688 82.6444 47.0673 82.6444 45.7404L74.8926 45.7405L67.1407 45.7406C67.1408 49.0311 67.4316 53.4568 70.1505 56.8881C73.3818 60.9661 78.0163 61.3605 80.6572 61.3605L80.6572 53.6086ZM74.8926 45.7405H82.6444C82.6444 43.8562 82.6455 41.6313 82.5524 39.2925L74.8066 39.6008L67.0609 39.9092C67.1399 41.8937 67.1407 43.8202 67.1407 45.7405H74.8926ZM74.8066 39.6008L75.4347 31.8745L72.2511 31.6157L71.623 39.342L70.995 47.0684L74.1786 47.3272L74.8066 39.6008ZM71.623 39.342L72.0633 31.6027C71.646 31.579 71.3355 31.5482 71.1092 31.5171C70.9983 31.5019 70.9162 31.4878 70.8592 31.4766C70.8022 31.4655 70.7763 31.4585 70.7767 31.4587C70.7771 31.4588 70.8099 31.4676 70.8688 31.4891C70.928 31.5108 71.0178 31.5468 71.1307 31.6021C71.3612 31.7152 71.6797 31.905 72.0209 32.204C72.7892 32.8772 73.1923 33.6729 73.3588 34.2264C73.4863 34.6499 73.4238 34.7581 73.4354 34.2426L65.6855 34.0676L57.9357 33.8926C57.8764 36.5188 58.2447 40.746 61.8032 43.8643C64.8663 46.5485 68.7844 46.945 71.1828 47.0814L71.623 39.342ZM65.6855 34.0676L73.4347 34.2726L73.5216 30.9864L65.7725 30.7815L58.0233 30.5765L57.9364 33.8627L65.6855 34.0676ZM65.7725 30.7815L73.5214 30.9957C73.5318 30.6177 73.5689 30.6209 73.5024 30.8512C73.4257 31.1168 73.191 31.7469 72.5844 32.4088C71.9444 33.1072 71.212 33.4899 70.6609 33.6611C70.1879 33.808 70.0005 33.7543 70.3148 33.769L70.6768 26.0256L71.0387 18.2822C68.0149 18.1409 64.0874 18.7337 61.1545 21.934C58.4775 24.8551 58.0822 28.4458 58.0236 30.5673L65.7725 30.7815ZM70.6768 26.0256V33.7775C71.4295 33.7775 72.4411 33.7788 73.6607 33.8509L74.1182 26.1125L74.5756 18.3742C72.8703 18.2734 71.4728 18.2738 70.6768 18.2738V26.0256ZM74.1182 26.1125L81.8541 25.6159C81.6713 22.7685 81.3984 20.0308 81.1269 17.7569L73.4297 18.676L65.7325 19.5952C65.9772 21.6446 66.2209 24.0957 66.3822 26.6092L74.1182 26.1125ZM73.4297 18.676L81.1331 17.8106C80.9968 16.5975 80.9732 15.9332 80.9871 15.587C81.0022 15.2123 81.0473 15.72 80.6331 16.5304C80.4061 16.9744 80.0756 17.4411 79.6308 17.8624C79.1911 18.2788 78.7501 18.5466 78.4015 18.7093C77.7937 18.9929 77.5297 18.9272 78.1217 18.8908L77.6455 11.1536L77.1693 3.41635C74.2348 3.59696 69.3543 4.53275 66.8286 9.4733C65.8121 11.4618 65.5561 13.4665 65.4959 14.9641C65.4345 16.4905 65.5615 18.0743 65.7263 19.5415L73.4297 18.676ZM77.6455 11.1536L78.2288 18.8834L81.6712 18.6237L81.0879 10.8938L80.5046 3.16392L77.0622 3.42369L77.6455 11.1536ZM126.674 47.1536V39.4017C124.902 39.4017 122.48 39.5689 120.237 40.6562C119 41.2558 117.586 42.2484 116.5 43.8505C115.378 45.5061 114.943 47.3173 114.942 48.9605L122.694 48.9622L130.446 48.9638C130.446 50.0386 130.153 51.3396 129.333 52.5496C128.549 53.706 127.597 54.3175 127 54.607C126.036 55.0742 125.603 54.9054 126.674 54.9054V47.1536ZM122.694 48.9622H114.942C114.942 50.3274 115.224 52.1602 116.366 53.9626C117.511 55.77 119.082 56.8541 120.463 57.4832C122.825 58.5588 125.485 58.6779 127.448 58.6779L127.448 50.926L127.448 43.1742C126.723 43.1742 126.33 43.1397 126.166 43.1178C125.965 43.0908 126.306 43.1083 126.889 43.3739C127.547 43.6735 128.627 44.3474 129.462 45.6654C130.294 46.9786 130.446 48.2428 130.446 48.9622H122.694ZM127.448 50.926V58.6779C128.886 58.6779 131.167 58.598 133.306 57.6716C134.529 57.1424 136.044 56.1941 137.214 54.5226C138.424 52.7951 138.818 50.9354 138.818 49.3774L131.066 49.3762L123.315 49.375C123.315 48.3595 123.58 46.9648 124.514 45.6297C125.41 44.3504 126.505 43.7218 127.146 43.4444C127.466 43.3059 127.719 43.2335 127.863 43.1977C127.939 43.179 127.996 43.1673 128.033 43.1606C128.07 43.1538 128.091 43.1511 128.093 43.1508C128.095 43.1505 128.044 43.1571 127.929 43.1633C127.815 43.1694 127.658 43.1742 127.448 43.1742V50.926ZM131.066 49.3762H138.818C138.818 47.9786 138.544 46.2013 137.517 44.4438C136.467 42.6459 134.981 41.4688 133.545 40.7439C131.09 39.5046 128.385 39.4017 126.674 39.4017L126.674 47.1536L126.674 54.9054C127.239 54.9054 127.497 54.9354 127.55 54.9431C127.631 54.9552 127.202 54.9087 126.559 54.5844C125.827 54.2149 124.848 53.4933 124.129 52.2624C123.434 51.0718 123.315 49.9729 123.315 49.3762H131.066ZM45.5518 23.0862L37.8256 23.7163C38.2176 28.5229 38.2295 36.7871 37.8135 43.8114L45.5518 44.2698L53.29 44.7281C53.7344 37.2264 53.7463 28.1982 53.278 22.456L45.5518 23.0862ZM45.5518 44.2698V52.0216C46.2947 52.0216 47.0357 52.0404 47.8625 52.0623C48.6542 52.0834 49.5588 52.1085 50.456 52.1085L50.4561 44.3567L50.4561 36.6048C49.8046 36.6048 49.1175 36.5865 48.2744 36.5641C47.4664 36.5426 46.5295 36.5179 45.5518 36.5179V44.2698ZM50.4561 44.3567L58.1922 44.8502C58.6419 37.7999 58.6462 29.059 58.1878 22.7015L50.4561 23.259L42.7243 23.8165C43.1263 29.3914 43.1306 37.4248 42.7199 43.8632L50.4561 44.3567ZM50.4561 23.259L50.4561 15.5072C48.806 15.5072 47.4489 15.4329 46.0092 15.3478L45.5518 23.0862L45.0943 30.8245C46.5798 30.9123 48.3206 31.0109 50.456 31.0109L50.4561 23.259ZM117.007 11.8127V19.5646C117.82 19.5646 118.399 19.5966 118.81 19.6412C119.219 19.6855 119.387 19.7345 119.4 19.7384C119.402 19.7391 119.365 19.7278 119.299 19.6981C119.232 19.6678 119.148 19.6243 119.056 19.566C118.857 19.4396 118.726 19.312 118.673 19.253L124.429 14.0608L130.185 8.86856C126.447 4.72547 121.632 4.06089 117.007 4.06089V11.8127ZM124.429 14.0608L118.679 19.2597C118.387 18.9371 118.377 18.762 118.48 19.0604C118.593 19.3843 118.758 20.0273 118.898 21.1682L126.592 20.22L134.285 19.2718C133.874 15.9312 132.974 11.9533 130.179 8.86192L124.429 14.0608ZM126.592 20.22L128.148 27.814C127.671 27.9118 127.309 27.9311 127.191 27.9365C127.072 27.942 126.987 27.9406 127.103 27.9406V20.1887V12.4369C127.037 12.4369 126.772 12.4357 126.48 12.4491C126.19 12.4624 125.663 12.4974 125.036 12.6259L126.592 20.22ZM127.103 20.1887L126.93 27.9387L129.694 28.0002L129.866 20.2502L130.039 12.5003L127.275 12.4388L127.103 20.1887ZM129.866 20.2502L137.604 19.7856C137.527 18.5088 137.418 17.6558 137.255 16.8064C137.102 16.0041 137.084 16.0273 136.995 15.4234L129.326 16.553L121.657 17.6825C121.808 18.7105 122.001 19.5816 122.027 19.7196C122.045 19.8105 122.085 19.9902 122.128 20.7149L129.866 20.2502ZM129.326 16.553L137.011 15.5363C136.978 15.2871 137.014 15.4227 136.998 15.7651C136.982 16.1109 136.899 17.0529 136.331 18.1659C135.691 19.4179 134.725 20.3303 133.738 20.895C132.901 21.3739 132.229 21.5003 132.13 21.5191L130.678 13.9045L129.225 6.28994C127.801 6.56163 124.383 7.47347 122.524 11.1138C121.114 13.8736 121.526 16.6973 121.641 17.5697L129.326 16.553ZM130.678 13.9045L131.916 21.5568C132.334 21.4893 132.843 21.422 133.297 21.3729C133.522 21.3487 133.704 21.3321 133.832 21.3224C133.998 21.3098 133.961 21.3175 133.803 21.3175V13.5657V5.81382C132.612 5.81382 130.664 6.0541 129.439 6.25224L130.678 13.9045ZM133.803 13.5657L133.803 21.3175C133.309 21.3175 131.693 21.1854 130.189 19.8029C128.804 18.5287 128.593 17.1658 128.585 17.1195L136.236 15.8752L143.888 14.631C143.61 12.9218 142.873 10.4041 140.684 8.39094C138.377 6.26931 135.679 5.81385 133.803 5.81382L133.803 13.5657ZM136.236 15.8752L128.57 17.026C129.007 19.9344 129.205 22.0999 129.205 24.9309L136.957 24.9309L144.709 24.9309C144.709 21.172 144.427 18.2213 143.902 14.7245L136.236 15.8752ZM136.957 24.9309H129.205C129.205 28.8703 128.027 30.3103 127.26 30.9147L132.06 37.0022L136.859 43.0897C142.342 38.767 144.709 32.2008 144.709 24.9309H136.957ZM132.06 37.0022L127.289 30.8924C127.734 30.5446 129.179 29.7551 131.285 30.5707C132.396 31.0015 133.975 32.0671 134.766 34.1427C135.586 36.2964 135.038 38.1544 134.539 39.0867L127.703 35.4319L120.867 31.7771C119.768 33.8334 119.148 36.6959 120.278 39.6628C121.379 42.5515 123.648 44.2387 125.684 45.0274C129.637 46.5589 133.861 45.4305 136.83 43.112L132.06 37.0022ZM127.703 35.4319L134.479 39.1967C136.396 35.7477 137.636 30.8215 137.793 26.5403L130.047 26.2551L122.3 25.9699C122.218 28.2172 121.474 30.6816 120.927 31.667L127.703 35.4319ZM130.047 26.2551L130.047 18.5033C129.251 18.5033 128.528 18.4577 127.88 18.4227L127.463 26.1633L127.045 33.9039C127.539 33.9306 128.739 34.007 130.047 34.007L130.047 26.2551ZM127.463 26.1633L128.448 18.4743C128.256 18.4497 128.094 18.4343 128.019 18.4271C127.904 18.4163 127.95 18.4206 127.979 18.4238C128.028 18.4292 128.189 18.4476 128.405 18.4883C128.627 18.53 128.952 18.6032 129.338 18.7348L126.832 26.0706L124.326 33.4063C125.234 33.7163 126.008 33.804 126.271 33.8332C126.352 33.8421 126.421 33.8489 126.465 33.8532C126.488 33.8553 126.509 33.8573 126.524 33.8587C126.541 33.8602 126.549 33.861 126.558 33.8619C126.595 33.8654 126.55 33.8615 126.478 33.8523L127.463 26.1633ZM126.832 26.0706L119.081 25.9874C119.047 29.0976 118.303 31.0647 117.699 31.9959C117.111 32.902 117.115 32.2992 118.059 32.2992L118.059 40.051L118.059 47.8029C123.78 47.8029 128.125 44.4132 130.707 40.4309C133.273 36.4736 134.527 31.4504 134.583 26.1537L126.832 26.0706ZM118.059 40.051V32.2992C116.682 32.2992 115.91 32.2156 115.519 32.14C115.13 32.0647 115.514 32.0704 116.126 32.5225C116.447 32.7602 116.761 33.0698 117.027 33.44C117.287 33.8036 117.438 34.1363 117.52 34.3693C117.597 34.5902 117.607 34.7054 117.601 34.6558C117.594 34.6046 117.578 34.4452 117.578 34.1388L109.826 34.1389L102.074 34.139C102.074 37.1189 102.632 41.8303 106.914 44.9932C110.393 47.5628 114.816 47.8029 118.059 47.8029V40.051ZM109.826 34.1389H117.578C117.578 33.7134 117.614 33.1537 117.682 32.1167L109.946 31.6135L102.211 31.1104C102.158 31.921 102.074 33.0863 102.074 34.1389H109.826ZM109.946 31.6135L117.668 32.2984C117.845 30.3028 117.938 27.6573 117.938 24.9309H110.187H102.435C102.435 27.378 102.348 29.5368 102.225 30.9286L109.946 31.6135ZM110.187 24.9309L117.938 24.9309C117.938 21.0422 118.117 18.9788 118.321 17.904C118.515 16.8802 118.54 17.8308 117.417 18.8313L112.26 13.0442L107.102 7.25713C104.598 9.48931 103.586 12.3955 103.089 15.0132C102.602 17.5799 102.435 20.8439 102.435 24.9309L110.187 24.9309ZM112.26 13.0442L117.277 18.953C117.202 19.017 117.022 19.1577 116.754 19.3021C116.48 19.4491 116.235 19.5359 116.065 19.5813C115.917 19.6211 115.887 19.6126 116.051 19.5971C116.22 19.5812 116.517 19.5646 117.007 19.5646L117.007 11.8127L117.007 4.06089C115.475 4.0609 113.758 4.14894 112.052 4.60591C110.106 5.12735 108.555 6.02027 107.242 7.13537L112.26 13.0442ZM117.428 17.1711V9.41929C115.889 9.41929 113.176 9.83152 111.007 12.2415C109.355 14.076 108.899 16.1781 108.727 17.0846C108.351 19.0655 108.294 21.8626 108.294 25.2698L116.046 25.2698L123.798 25.2698C123.798 23.5164 123.818 22.2426 123.859 21.3124C123.878 20.8519 123.902 20.516 123.924 20.2762C123.947 20.0289 123.964 19.946 123.958 19.975C123.956 19.9883 123.906 20.2623 123.745 20.6724C123.583 21.0843 123.233 21.8322 122.53 22.6136C121.763 23.465 120.782 24.1283 119.679 24.523C118.669 24.8848 117.828 24.923 117.428 24.923V17.1711ZM116.046 25.2698H108.294C108.294 27.1673 108.252 28.6764 108.209 29.8097C108.175 30.7165 108.113 31.918 108.113 32.5055L115.865 32.5061L123.617 32.5067C123.617 32.533 123.617 32.5066 123.621 32.3856C123.624 32.2737 123.63 32.1287 123.638 31.932C123.654 31.5548 123.679 31.0174 123.702 30.3904C123.75 29.1141 123.798 27.4056 123.798 25.2698H116.046ZM115.865 32.5061H108.113C108.113 33.2976 108.074 36.3116 110.195 38.9007C112.739 42.0053 116.242 42.1368 117.397 42.1369L117.397 34.385L117.398 26.6332C117.501 26.6332 118.145 26.632 119.011 26.9069C120.016 27.2261 121.215 27.8875 122.189 29.0758C123.091 30.177 123.406 31.2558 123.521 31.7912C123.629 32.3001 123.617 32.6088 123.617 32.5061H115.865ZM117.397 34.385L122.47 40.2464C125.909 37.2708 128.184 31.7597 128.184 25.7631L120.433 25.7629L112.681 25.7627C112.681 26.9134 112.455 27.7979 112.227 28.366C112.113 28.6511 112.013 28.8181 111.975 28.876C111.92 28.9599 112.009 28.7971 112.324 28.5236L117.397 34.385ZM120.433 25.7629H128.184C128.184 22.4006 128.012 18.9614 126.976 16.2027C126.391 14.6441 125.328 12.7331 123.34 11.2889C121.287 9.79743 119.099 9.41934 117.428 9.41929L117.428 17.1711L117.428 24.923C116.808 24.923 115.522 24.772 114.229 23.833C113.001 22.9412 112.558 21.9079 112.461 21.6504C112.379 21.4324 112.465 21.5662 112.549 22.3684C112.628 23.1232 112.681 24.2139 112.681 25.7629H120.433Z" fill="#F4F9E6" mask="url(#path-1-outside-1_102_2878)"/>
<path d="M117.006 10.5205C121.107 10.5205 123.537 11.1445 125.386 13.1943L125.644 13.4961C126.715 14.8325 127.335 16.6458 127.708 18.9102L128.444 18.9258C128.349 18.296 128.231 17.9882 128.047 16.7412L128.046 16.7314L128.044 16.7217C127.925 15.8193 127.87 14.8485 128.277 14.0518C128.759 13.1084 129.66 12.7836 130.436 12.6357L130.454 12.6318L130.471 12.6289C131.627 12.4419 133.153 12.2735 133.802 12.2734C134.691 12.2734 135.592 12.484 136.311 13.1455C136.923 13.7085 137.261 14.4686 137.443 15.3047L137.511 15.668L137.512 15.6758L137.514 15.6836C138.002 18.9349 138.249 21.5585 138.25 24.9307C138.25 30.8128 136.378 35.2441 132.86 38.0176L132.855 38.0205C131.308 39.2282 129.446 39.5575 128.017 39.0039C127.293 38.7233 126.628 38.1831 126.315 37.3633C125.997 36.5301 126.13 35.6343 126.564 34.8232L126.569 34.8135L126.574 34.8047C127.536 33.0726 128.372 30.2445 128.66 27.5166C128.45 27.5081 128.252 27.4976 128.071 27.4883C127.84 31.2708 126.845 34.512 125.287 36.916C123.535 39.6167 121.002 41.3428 118.058 41.3428C114.826 41.3428 112.373 40.995 110.751 39.7969C108.996 38.4999 108.534 36.4828 108.534 34.1387C108.534 33.3473 108.598 32.4341 108.657 31.5293L108.658 31.5146L108.659 31.499C108.804 29.8556 108.894 27.4939 108.894 24.9307C108.894 20.9265 109.066 18.1628 109.435 16.2178C109.806 14.2643 110.407 12.9654 111.4 12.0801L111.412 12.0693L111.423 12.0596C112.08 11.5017 112.79 11.0962 113.724 10.8457C114.619 10.606 115.674 10.5205 117.006 10.5205ZM117.611 18.7705C117.424 19.7561 117.337 21.6521 117.337 25.2695C117.337 27.3064 117.292 28.9327 117.247 30.1494C117.2 31.4036 117.157 32.1377 117.157 32.5068C117.157 32.5885 117.158 32.6621 117.161 32.7285C118.092 31.4684 119.14 29.0405 119.14 25.7627C119.14 22.3711 118.905 20.438 118.508 19.3799C118.321 18.8808 118.137 18.6869 118.025 18.6055C117.953 18.5531 117.85 18.5041 117.676 18.4795C117.656 18.5529 117.634 18.6484 117.611 18.7705Z" fill="#9CCC7B" stroke="white" stroke-width="2.58395"/>
<path d="M21.7185 54.1328C23.7999 54.1329 25.4204 54.9713 26.4929 55.7734C27.0307 56.1756 27.4438 56.5776 27.7253 56.8828C27.8667 57.036 27.9771 57.1665 28.0544 57.2627C28.0931 57.3108 28.1236 57.351 28.1462 57.3809C28.1574 57.3956 28.1664 57.4082 28.1736 57.418C28.1772 57.4228 28.1808 57.4271 28.1833 57.4307C28.1846 57.4325 28.1862 57.4341 28.1873 57.4355L28.1882 57.4375L28.1892 57.4385C28.1895 57.4389 28.19 57.44 27.1394 58.1914L28.1902 57.4395L28.9099 58.4463L27.9343 59.209C27.4756 59.5676 27.3395 59.8756 27.3162 60.166C27.3488 60.2403 27.4109 60.3593 27.5173 60.5225C27.7377 60.8603 28.096 61.3109 28.6062 61.8379C29.623 62.8883 31.1811 64.176 33.281 65.4082C37.4712 67.8669 43.7907 70.0887 52.2166 69.7832C58.2642 69.5639 63.0296 68.4434 66.4509 66.8311C69.6752 65.3116 71.5981 63.4125 72.407 61.5166L72.5535 61.1377C73.0256 59.6788 73.7188 58.394 74.9197 57.4854C76.1272 56.5718 77.6755 56.1681 79.5925 56.1211H79.6023L84.5886 56.0352L85.0027 56.0312C87.0481 56.0385 88.7575 56.4343 89.8591 57.8027C90.9507 59.1588 91.155 61.1591 91.155 63.4658C91.155 63.8091 91.1394 64.1502 91.1101 64.4941C93.223 64.3612 95.4241 64.249 97.5212 64.249C104.469 64.249 111.117 70.574 111.117 78.8564C111.117 82.045 110.18 84.8197 108.258 86.8027C106.329 88.7922 103.555 89.833 100.188 89.833C93.2636 89.8328 87.7979 84.5667 87.7976 78.252C87.7976 76.9736 87.2993 75.8716 86.4705 74.875C80.3153 82.7316 67.8494 90.4294 46.6179 90.4375C37.5564 91.0894 28.0285 88.0527 20.7732 83.7373C17.1307 81.5708 14.0076 79.0512 11.7791 76.4531C9.59442 73.9061 8.14787 71.1382 8.1228 68.4648C7.60511 63.7157 8.83619 60.06 11.4285 57.6094C13.9939 55.1843 17.6904 54.1328 21.7185 54.1328ZM34.4529 8.13184C36.8097 8.13189 41.4744 8.57348 46.1326 9.00195C50.8612 9.43691 55.6068 9.86131 58.2859 9.86133C61.9587 9.86133 64.7796 10.161 66.6648 11.375C68.7403 12.7117 69.3864 14.9155 69.3865 17.7246C69.3865 19.754 68.8767 21.416 67.6443 22.625C66.6932 23.5579 65.4319 24.0977 63.9919 24.418C64.1096 29.317 64.0391 35.7113 63.7214 41.1738C63.8596 41.1663 63.9979 41.1621 64.1365 41.1621C65.9851 41.1621 67.6335 41.7195 68.822 42.8994C70.0123 44.0812 70.5916 45.7386 70.5916 47.6426C70.5915 51.4274 69.8923 54.5482 67.5056 56.6436C65.1742 58.6903 61.5302 59.4834 56.3933 59.4834C49.2159 59.4834 37.606 58.7041 33.4607 57.9951V57.9941C30.7411 57.5737 28.7651 56.609 27.4978 55.0342C26.2373 53.4675 25.8464 51.5053 25.8464 49.458C25.8465 47.2957 26.7738 45.7039 28.3474 44.6543C29.5544 43.8493 31.0918 43.3987 32.7498 43.1377C32.8608 36.1146 32.5475 27.9862 31.8806 22.0244C30.3691 21.4066 29.0783 20.5986 28.1199 19.5459C26.978 18.2917 26.363 16.7492 26.363 14.958C26.3631 12.8377 27.251 11.0787 28.7693 9.87988C30.2568 8.70556 32.2622 8.13184 34.4529 8.13184ZM97.4734 7.18652C99.7378 6.98871 101.642 7.53166 103.097 8.93848C104.411 10.2078 105.219 12.0497 105.723 14.252L105.82 14.6973L105.823 14.71C106.359 17.4466 106.857 23.219 107.221 29.3535C107.588 35.5188 107.826 42.1611 107.826 46.6914C107.826 48.5009 107.778 50.053 107.635 51.3574C107.494 52.6525 107.254 53.7833 106.825 54.7119C106.382 55.6721 105.731 56.4277 104.806 56.9082C103.913 57.3726 102.88 57.5183 101.773 57.4941H101.768L98.4207 57.4072V57.4082C96.2524 57.3655 94.1262 57.1525 92.6384 55.7314C91.2988 54.4517 90.7385 52.4567 90.6345 49.6943C90.4211 50.5778 90.1345 51.3454 89.7546 51.999C89.2053 52.9444 88.4693 53.6481 87.5378 54.1143C86.6279 54.5697 85.5987 54.7644 84.4998 54.8125L84.4861 54.8135H84.4724L80.6863 54.9004H80.657C78.496 54.9004 76.523 54.5283 75.2136 52.876C73.9897 51.3313 73.6003 48.9547 73.6003 45.7402C73.6003 44.1775 73.5974 42.5171 73.5505 40.7939L71.5496 40.6309V40.6318C69.2499 40.501 67.3416 40.1287 66.0603 39.0059C64.6964 37.8106 64.3486 36.0608 64.3943 34.0381V34.0332L64.4802 30.748V30.7461C64.5259 29.0955 64.8431 27.4702 65.9167 26.2988C67.022 25.0929 68.6586 24.6491 70.6765 24.7334L72.1628 24.7451C72.3426 24.7485 72.5306 24.7541 72.7263 24.7598C72.5639 22.6228 72.3556 20.5827 72.1462 18.8291L72.1453 18.8203C71.9923 17.459 71.9084 16.2582 71.95 15.2236C71.9914 14.194 72.1596 13.2362 72.5798 12.4141C73.5003 10.6136 75.311 10.0055 77.5486 9.86523L80.99 9.60547V9.60645C83.2484 9.41572 85.2323 9.88927 86.7332 11.2578C87.4459 11.9078 88.001 12.7185 88.4226 13.6631C88.4184 13.3726 88.4235 13.0937 88.4373 12.8262C88.49 11.8001 88.6847 10.8615 89.1335 10.0586C90.0911 8.34612 91.8891 7.76056 94.0066 7.53418L94.0144 7.5332L97.4568 7.1875L97.4646 7.18652H97.4734ZM46.9421 24.4551C47.2488 29.4816 47.2393 36.6421 46.9158 42.9932C47.3191 43.0012 47.7151 43.0112 48.1023 43.0215C48.4901 43.0317 48.8686 43.042 49.239 43.0498C49.5674 37.037 49.5685 29.9608 49.2449 24.5381C48.4214 24.5224 47.6616 24.4911 46.9421 24.4551Z" fill="#64421A" stroke="white" stroke-width="2.58395"/>
<mask id="path-5-outside-2_102_2878" maskUnits="userSpaceOnUse" x="134.528" y="-2.27598" width="39.3561" height="37.1846" fill="black">
<rect fill="white" x="134.528" y="-2.27598" width="39.3561" height="37.1846"/>
<path d="M150.303 13.5899C150.974 12.5904 153.104 11.0414 156.256 12.8421C156.786 13.0598 157.984 14.1323 158.542 16.6791C158.868 18.742 161.103 20.1995 161.047 22.2873C161.021 23.2671 160.694 24.3828 159.81 25.52C158.687 26.6555 155.725 28.3937 152.856 26.2639C152.445 25.9092 151.21 25.2458 149.56 25.429C147.302 25.4416 143.119 24.1485 144.455 18.8741C144.569 18.4211 144.919 17.6323 145.584 16.8755C146.682 15.6279 148.6 15.4428 149.776 14.2694C149.973 14.073 150.153 13.8475 150.303 13.5899ZM143.993 8.31143C145.213 7.58267 146.945 8.23499 147.86 9.76753C148.775 11.3 148.528 13.133 147.308 13.8617C146.088 14.5904 144.357 13.9391 143.441 12.4068C142.526 10.8743 142.773 9.04021 143.993 8.31143ZM162.421 13.4558C163.955 12.5439 165.788 12.7945 166.514 14.0161C167.24 15.2379 166.585 16.9685 165.051 17.8805C163.516 18.7925 161.683 18.5408 160.957 17.319C160.231 16.0972 160.887 14.3677 162.421 13.4558ZM157.581 8.25769C158.545 6.75511 160.296 6.15853 161.492 6.92523C162.689 7.69232 162.878 9.53294 161.915 11.0357C160.951 12.5382 159.201 13.1341 158.004 12.3672C156.808 11.6002 156.618 9.76039 157.581 8.25769ZM151.474 4.50452C152.875 4.26295 154.257 5.49282 154.56 7.25164C154.864 9.01068 153.974 10.6331 152.574 10.8748C151.173 11.1164 149.791 9.88576 149.488 8.12669C149.185 6.36795 150.074 4.74639 151.474 4.50452Z"/>
</mask>
<path d="M150.303 13.5899C150.974 12.5904 153.104 11.0414 156.256 12.8421C156.786 13.0598 157.984 14.1323 158.542 16.6791C158.868 18.742 161.103 20.1995 161.047 22.2873C161.021 23.2671 160.694 24.3828 159.81 25.52C158.687 26.6555 155.725 28.3937 152.856 26.2639C152.445 25.9092 151.21 25.2458 149.56 25.429C147.302 25.4416 143.119 24.1485 144.455 18.8741C144.569 18.4211 144.919 17.6323 145.584 16.8755C146.682 15.6279 148.6 15.4428 149.776 14.2694C149.973 14.073 150.153 13.8475 150.303 13.5899ZM143.993 8.31143C145.213 7.58267 146.945 8.23499 147.86 9.76753C148.775 11.3 148.528 13.133 147.308 13.8617C146.088 14.5904 144.357 13.9391 143.441 12.4068C142.526 10.8743 142.773 9.04021 143.993 8.31143ZM162.421 13.4558C163.955 12.5439 165.788 12.7945 166.514 14.0161C167.24 15.2379 166.585 16.9685 165.051 17.8805C163.516 18.7925 161.683 18.5408 160.957 17.319C160.231 16.0972 160.887 14.3677 162.421 13.4558ZM157.581 8.25769C158.545 6.75511 160.296 6.15853 161.492 6.92523C162.689 7.69232 162.878 9.53294 161.915 11.0357C160.951 12.5382 159.201 13.1341 158.004 12.3672C156.808 11.6002 156.618 9.76039 157.581 8.25769ZM151.474 4.50452C152.875 4.26295 154.257 5.49282 154.56 7.25164C154.864 9.01068 153.974 10.6331 152.574 10.8748C151.173 11.1164 149.791 9.88576 149.488 8.12669C149.185 6.36795 150.074 4.74639 151.474 4.50452Z" fill="#F4F9E6"/>
<path d="M150.303 13.5899L147.085 11.4299L147.015 11.534L146.952 11.6424L150.303 13.5899ZM156.256 12.8421L154.333 16.2076L154.551 16.3318L154.782 16.427L156.256 12.8421ZM158.542 16.6791L162.37 16.0734L162.353 15.9611L162.328 15.8501L158.542 16.6791ZM161.047 22.2873L164.922 22.3903L164.922 22.3903L161.047 22.2873ZM159.81 25.52L162.566 28.2454L162.729 28.0808L162.871 27.8979L159.81 25.52ZM152.856 26.2639L150.325 29.1991L150.432 29.2915L150.546 29.3758L152.856 26.2639ZM149.56 25.429L149.582 29.3048L149.785 29.3037L149.988 29.2812L149.56 25.429ZM144.455 18.8741L140.697 17.9224L140.697 17.9225L144.455 18.8741ZM145.584 16.8755L142.674 14.3157L142.674 14.3158L145.584 16.8755ZM149.776 14.2694L152.514 17.0134L152.514 17.0131L149.776 14.2694ZM143.993 8.31143L142.006 4.98378L142.006 4.98379L143.993 8.31143ZM147.86 9.76753L151.188 7.78049L151.188 7.78018L147.86 9.76753ZM147.308 13.8617L149.295 17.1893L149.295 17.1893L147.308 13.8617ZM143.441 12.4068L140.114 14.3941L140.114 14.3945L143.441 12.4068ZM162.421 13.4558L160.441 10.1239L160.441 10.1239L162.421 13.4558ZM166.514 14.0161L169.846 12.0358L169.846 12.0352L166.514 14.0161ZM165.051 17.8805L167.031 21.2124L167.031 21.2124L165.051 17.8805ZM160.957 17.319L157.625 19.2987L157.625 19.2993L160.957 17.319ZM157.581 8.25769L154.318 6.16585L154.318 6.16614L157.581 8.25769ZM161.492 6.92523L163.584 3.66225L163.583 3.66177L161.492 6.92523ZM161.915 11.0357L165.178 13.1278L165.178 13.1275L161.915 11.0357ZM158.004 12.3672L155.912 15.6302L155.913 15.6304L158.004 12.3672ZM151.474 4.50452L150.815 0.684998L150.814 0.685152L151.474 4.50452ZM154.56 7.25164L158.38 6.59282L158.38 6.59239L154.56 7.25164ZM152.574 10.8748L153.232 14.6943L153.232 14.6943L152.574 10.8748ZM149.488 8.12669L145.668 8.78522L145.668 8.78552L149.488 8.12669ZM150.303 13.5899L153.521 15.7498C153.473 15.8219 153.438 15.8607 153.424 15.8755C153.408 15.892 153.4 15.8979 153.4 15.898C153.399 15.8987 153.4 15.8978 153.402 15.8966C153.404 15.8958 153.406 15.895 153.408 15.8942C153.411 15.8937 153.419 15.8914 153.436 15.8902C153.452 15.8891 153.489 15.8881 153.548 15.8965C153.66 15.9124 153.92 15.9716 154.333 16.2076L156.256 12.8421L158.179 9.47664C155.794 8.11452 153.404 7.83664 151.29 8.4376C149.316 8.99843 147.883 10.2411 147.085 11.4299L150.303 13.5899ZM156.256 12.8421L154.782 16.427C154.581 16.3443 154.442 16.2612 154.366 16.2117C154.284 16.1584 154.233 16.1158 154.207 16.0935C154.157 16.0493 154.172 16.0526 154.228 16.1306C154.333 16.2793 154.577 16.6927 154.756 17.5082L158.542 16.6791L162.328 15.8501C161.607 12.557 159.838 10.1238 157.729 9.2572L156.256 12.8421ZM158.542 16.6791L154.714 17.2848C154.891 18.4044 155.308 19.3244 155.689 20.0105C156.046 20.6552 156.485 21.284 156.719 21.6331C157.371 22.6043 157.164 22.5294 157.173 22.1843L161.047 22.2873L164.922 22.3903C164.987 19.9573 163.69 18.1097 163.157 17.3146C162.373 16.1466 162.369 16.0671 162.37 16.0734L158.542 16.6791ZM161.047 22.2873L157.173 22.1842C157.17 22.2769 157.154 22.3915 157.103 22.5326C157.053 22.6734 156.954 22.8796 156.75 23.1421L159.81 25.52L162.871 27.8979C164.255 26.1161 164.874 24.2054 164.922 22.3903L161.047 22.2873ZM159.81 25.52L157.054 22.7947C157.007 22.8423 156.867 22.9659 156.654 23.0945C156.445 23.2201 156.234 23.3096 156.047 23.3565C155.868 23.4013 155.739 23.4009 155.645 23.3848C155.564 23.3711 155.407 23.3307 155.167 23.152L152.856 26.2639L150.546 29.3758C153.038 31.2264 155.725 31.4281 157.929 30.8764C159.976 30.3641 161.6 29.2224 162.566 28.2454L159.81 25.52ZM152.856 26.2639L155.387 23.3287C154.242 22.3411 151.956 21.2631 149.132 21.5767L149.56 25.429L149.988 29.2812C150.189 29.2588 150.348 29.2892 150.456 29.3247C150.511 29.3428 150.539 29.3584 150.538 29.3575C150.536 29.3566 150.52 29.3478 150.49 29.3276C150.463 29.3093 150.405 29.2682 150.325 29.1991L152.856 26.2639ZM149.56 25.429L149.538 21.5531C149.323 21.5543 149.015 21.5212 148.712 21.4323C148.407 21.3429 148.234 21.2353 148.161 21.1736C148.122 21.1404 148.119 21.1354 148.106 21.0882C148.085 21.0125 148.004 20.6446 148.212 19.8258L144.455 18.8741L140.697 17.9225C140.237 19.7409 140.178 21.5124 140.636 23.1623C141.102 24.8406 142.036 26.147 143.158 27.0948C145.266 28.8761 147.905 29.3142 149.582 29.3048L149.56 25.429ZM144.455 18.8741L148.212 19.8258C148.193 19.8985 148.181 19.9246 148.189 19.9065C148.194 19.8924 148.209 19.857 148.237 19.8057C148.292 19.7007 148.378 19.5679 148.495 19.4352L145.584 16.8755L142.674 14.3158C141.614 15.521 140.967 16.8575 140.697 17.9224L144.455 18.8741ZM145.584 16.8755L148.495 19.4353C148.417 19.5234 148.406 19.4608 149.261 19.0702C149.848 18.802 151.335 18.1897 152.514 17.0134L149.776 14.2694L147.039 11.5254C147.042 11.5226 146.981 11.5895 146.04 12.0191C145.368 12.3263 143.849 12.9801 142.674 14.3157L145.584 16.8755ZM149.776 14.2694L152.514 17.0131C152.924 16.6042 153.319 16.1151 153.654 15.5373L150.303 13.5899L146.952 11.6424C146.988 11.58 147.023 11.5419 147.039 11.5257L149.776 14.2694ZM143.993 8.31143L145.98 11.6391C145.391 11.9909 144.861 11.8888 144.675 11.8188C144.497 11.7518 144.492 11.6873 144.533 11.7549L147.86 9.76753L151.188 7.78018C149.622 5.15821 145.732 2.75839 142.006 4.98378L143.993 8.31143ZM147.86 9.76753L144.532 11.7546C144.573 11.8221 144.518 11.7865 144.544 11.5976C144.57 11.4001 144.732 10.8854 145.32 10.5341L147.308 13.8617L149.295 17.1893C153.02 14.9647 152.754 10.4037 151.188 7.78049L147.86 9.76753ZM147.308 13.8617L145.32 10.5341C145.909 10.1828 146.439 10.2843 146.625 10.3545C146.804 10.4216 146.809 10.4866 146.769 10.4191L143.441 12.4068L140.114 14.3945C141.681 17.0174 145.57 19.4139 149.295 17.1893L147.308 13.8617ZM143.441 12.4068L146.769 10.4194C146.728 10.3518 146.783 10.3868 146.758 10.575C146.731 10.7719 146.569 11.2873 145.98 11.6391L143.993 8.31143L142.006 4.98379C138.279 7.20928 138.548 11.7724 140.114 14.3941L143.441 12.4068ZM162.421 13.4558L164.401 16.7877C164.469 16.7473 164.434 16.8018 164.245 16.776C164.048 16.749 163.533 16.5861 163.183 15.9969L166.514 14.0161L169.846 12.0352C167.628 8.30544 163.066 8.56354 160.441 10.1239L162.421 13.4558ZM166.514 14.0161L163.182 15.9964C162.832 15.4073 162.935 14.8778 163.005 14.6919C163.073 14.514 163.138 14.5087 163.07 14.5487L165.051 17.8805L167.031 21.2124C169.658 19.6508 172.063 15.7651 169.846 12.0358L166.514 14.0161ZM165.051 17.8805L163.07 14.5487C163.003 14.5885 163.039 14.5341 163.228 14.56C163.424 14.587 163.939 14.7498 164.289 15.3387L160.957 17.319L157.625 19.2993C159.841 23.0285 164.403 22.774 167.031 21.2124L165.051 17.8805ZM160.957 17.319L164.289 15.3394C164.639 15.9287 164.536 16.4586 164.466 16.6449C164.398 16.823 164.333 16.8279 164.401 16.7876L162.421 13.4558L160.441 10.1239C157.815 11.6843 155.408 15.5681 157.625 19.2987L160.957 17.319ZM157.581 8.25769L160.844 10.3495C160.887 10.2833 160.88 10.3479 160.699 10.4093C160.511 10.4735 159.978 10.5584 159.401 10.1887L161.492 6.92523L163.583 3.66177C159.93 1.32114 155.967 3.59409 154.318 6.16585L157.581 8.25769ZM161.492 6.92523L159.4 10.1882C158.823 9.8184 158.678 9.29894 158.658 9.10108C158.638 8.91176 158.694 8.87799 158.652 8.94384L161.915 11.0357L165.178 13.1275C166.827 10.5546 167.236 6.0037 163.584 3.66225L161.492 6.92523ZM161.915 11.0357L158.652 8.94359C158.61 9.00971 158.617 8.94485 158.798 8.88336C158.987 8.81904 159.519 8.73455 160.096 9.10404L158.004 12.3672L155.913 15.6304C159.565 17.9712 163.528 15.7003 165.178 13.1278L161.915 11.0357ZM158.004 12.3672L160.096 9.10424C160.672 9.47377 160.818 9.99303 160.838 10.1915C160.858 10.3813 160.802 10.4153 160.845 10.3493L157.581 8.25769L154.318 6.16614C152.669 8.73927 152.261 13.289 155.912 15.6302L158.004 12.3672ZM151.474 4.50452L152.133 8.32404C151.458 8.44047 151 8.15543 150.851 8.02303C150.709 7.89638 150.727 7.8338 150.741 7.91089L154.56 7.25164L158.38 6.59239C157.86 3.58078 155.09 -0.0523442 150.815 0.684998L151.474 4.50452ZM154.56 7.25164L150.741 7.91046C150.754 7.98805 150.716 7.93566 150.807 7.76886C150.903 7.59443 151.239 7.17184 151.915 7.05526L152.574 10.8748L153.232 14.6943C157.509 13.9565 158.899 9.60277 158.38 6.59282L154.56 7.25164ZM152.574 10.8748L151.915 7.05524C152.59 6.9387 153.048 7.2242 153.197 7.35654C153.339 7.48311 153.321 7.54537 153.307 7.46787L149.488 8.12669L145.668 8.78552C146.188 11.7959 148.956 15.4319 153.232 14.6943L152.574 10.8748ZM149.488 8.12669L153.307 7.46817C153.294 7.3907 153.332 7.44342 153.241 7.61048C153.145 7.7852 152.809 8.20729 152.134 8.32389L151.474 4.50452L150.814 0.685152C146.54 1.4235 145.149 5.77459 145.668 8.78522L149.488 8.12669Z" fill="#F4F9E6" mask="url(#path-5-outside-2_102_2878)"/>
<path d="M150.303 13.5899C150.974 12.5904 153.104 11.0414 156.256 12.8421C156.786 13.0598 157.984 14.1323 158.542 16.6791C158.868 18.742 161.103 20.1995 161.047 22.2873C161.021 23.2671 160.694 24.3828 159.81 25.52C158.687 26.6555 155.725 28.3937 152.856 26.2639C152.445 25.9092 151.21 25.2458 149.56 25.429C147.302 25.4416 143.119 24.1485 144.455 18.8741C144.569 18.4211 144.919 17.6323 145.584 16.8755C146.682 15.6279 148.6 15.4428 149.776 14.2694C149.973 14.073 150.153 13.8475 150.303 13.5899ZM143.993 8.31143C145.213 7.58267 146.945 8.23499 147.86 9.76753C148.775 11.3 148.528 13.133 147.308 13.8617C146.088 14.5904 144.357 13.9391 143.441 12.4068C142.526 10.8743 142.773 9.04021 143.993 8.31143ZM162.421 13.4558C163.955 12.5439 165.788 12.7945 166.514 14.0161C167.24 15.2379 166.585 16.9685 165.051 17.8805C163.516 18.7925 161.683 18.5408 160.957 17.319C160.231 16.0972 160.887 14.3677 162.421 13.4558ZM157.581 8.25769C158.545 6.75511 160.296 6.15853 161.492 6.92523C162.689 7.69232 162.878 9.53294 161.915 11.0357C160.951 12.5382 159.201 13.1341 158.004 12.3672C156.808 11.6002 156.618 9.76039 157.581 8.25769ZM151.474 4.50452C152.875 4.26295 154.257 5.49282 154.56 7.25164C154.864 9.01068 153.974 10.6331 152.574 10.8748C151.173 11.1164 149.791 9.88576 149.488 8.12669C149.185 6.36795 150.074 4.74639 151.474 4.50452Z" fill="#7D5739"/>
<path d="M156.897 30.1852C158.365 30.0576 159.688 30.4057 160.706 31.3658C161.56 32.1722 162.072 33.2939 162.359 34.5739L162.468 35.1324L162.469 35.1364C162.743 36.7816 163.056 41.962 163.299 47.0094C163.545 52.0941 163.727 57.2212 163.727 58.8336C163.727 61.148 163.495 62.9145 162.768 64.1285C162.378 64.7794 161.855 65.2602 161.207 65.5719C160.871 65.733 160.52 65.8384 160.165 65.9078C160.775 66.0404 161.401 66.2878 161.956 66.7428C163.101 67.6821 163.624 69.2206 163.624 71.3395C163.624 73.4392 162.159 75.4732 160.237 77.2496C159.447 77.9791 158.535 78.7044 157.526 79.4196C158.611 79.1586 159.503 78.8625 160.274 78.5358C161.947 77.827 163.119 76.9572 164.564 75.8688C165.054 75.4173 165.687 75.1144 166.38 75.2028C167.075 75.2914 167.861 75.8546 167.861 76.818C167.861 82.0959 165.763 85.4136 162.53 87.3209C159.423 89.1539 155.434 89.5826 151.79 89.5826C147.354 89.5826 143.84 88.5961 140.856 87.2906C135.59 88.9374 130.057 89.9957 125.123 89.9957C120.992 89.9957 117.844 89.4966 115.699 88.2428C114.596 87.5981 113.75 86.7502 113.193 85.6832C112.641 84.6261 112.41 83.4294 112.41 82.1403C112.41 80.9092 112.718 79.7393 113.426 78.7018C114.128 77.6736 115.167 76.859 116.496 76.2311C118.073 75.4859 120.132 74.9708 122.717 74.6783C120.334 74.4535 118.729 74.2096 117.641 73.9098C116.775 73.6709 116.063 73.3539 115.552 72.8434C114.999 72.2898 114.837 71.6646 114.755 71.2047V71.2037C114.68 70.7833 114.67 70.285 114.7 69.8326C114.726 69.4394 114.788 68.9908 114.912 68.5875L114.972 68.4059L114.976 68.3951C115.343 67.4399 115.965 66.7039 116.995 66.2858C117.257 66.1791 117.54 66.0996 117.84 66.0367C117.548 65.9865 117.272 65.9304 117.016 65.859C116.368 65.6782 115.75 65.3933 115.259 64.8854C114.762 64.3704 114.51 63.7455 114.377 63.0973C114.249 62.4693 114.218 61.7434 114.218 60.9518C114.218 60.1054 114.286 59.3319 114.464 58.6637C114.643 57.9926 114.955 57.3495 115.498 56.8668C116.278 56.1718 117.25 56.0352 118.231 56.1588C117.904 55.9695 117.595 55.764 117.305 55.5406C115.074 53.8193 114.218 51.2745 114.218 48.2389C114.218 47.0152 114.405 45.8604 114.891 44.8268C115.386 43.7762 116.158 42.9214 117.211 42.2653C119.249 40.9963 122.317 40.4869 126.518 40.4869C132.148 40.4869 135.934 41.9642 137.682 45.2555L138.324 45.2672C138.179 43.8251 137.992 41.8201 138.033 40.0094C138.061 38.7401 138.2 37.4088 138.612 36.3414C139.022 35.2792 139.839 34.1966 141.304 34.068L144.525 33.6041L144.575 33.5973L144.625 33.5944C145.977 33.5061 147.282 33.7167 148.221 34.8102C149.047 35.7721 149.376 37.2053 149.583 38.8571C149.988 42.0983 151.531 53.6115 151.531 58.4196C151.531 61.013 150.967 63.1087 149.495 64.5895C148.436 65.6536 147.031 66.2718 145.372 66.6139C147.363 66.5197 149.261 66.3999 150.974 66.278C152.355 66.1797 153.634 66.0779 154.748 65.9918C154.086 65.8394 153.458 65.5349 152.952 64.9508C152.06 63.9223 151.84 62.3446 151.84 60.4352C151.84 55.2471 151.067 40.4053 150.509 36.3512L150.507 36.3405C150.4 35.5087 150.344 34.7578 150.379 34.0973C150.415 33.4368 150.545 32.7847 150.875 32.2076C151.591 30.9547 152.913 30.584 154.239 30.4459L154.247 30.4449L156.882 30.1871L156.89 30.1862L156.897 30.1852ZM126.725 80.2281C124.848 80.2281 123.871 80.4608 123.408 80.6862C123.402 80.6891 123.396 80.6921 123.39 80.6949C123.427 80.7119 123.466 80.7318 123.51 80.7496C124.097 80.9881 125.143 81.2106 126.777 81.2106C127.463 81.2105 128.412 81.0813 129.553 80.8405C128.592 80.4458 127.677 80.2282 126.725 80.2281ZM145.647 74.9508C143.752 75.1338 141.304 75.319 138.663 75.319C138.201 75.319 137.676 75.315 137.109 75.3102C138.858 75.7199 140.375 76.2303 141.753 76.7682C143.309 76.1298 144.745 75.4957 145.942 74.9196C145.845 74.9292 145.747 74.9412 145.647 74.9508ZM137.449 54.3199C135.646 56.8682 132.046 57.903 126.879 57.903C126.859 57.903 126.838 57.902 126.818 57.902C129.378 58.2156 131.992 58.3678 134.374 58.3678C135.916 58.3678 137.592 58.3326 139.375 58.2369C139.353 56.8572 139.295 55.5978 139.214 54.3961C138.562 54.3716 137.966 54.3447 137.449 54.3199ZM126.673 48.4459C125.311 48.4459 124.553 48.6141 124.181 48.7946C124.05 48.8583 124.001 48.9072 123.989 48.9215C123.988 48.9285 123.986 48.9413 123.986 48.9625C123.986 49.0655 123.999 49.11 124.004 49.1227C124.013 49.1338 124.061 49.185 124.211 49.2535C124.662 49.4586 125.606 49.6344 127.449 49.6344C128.716 49.6344 129.391 49.512 129.712 49.3727C129.738 49.3617 129.756 49.348 129.772 49.3395C129.768 49.1315 129.728 49.0403 129.708 49.0045C129.689 48.9735 129.641 48.9045 129.469 48.818C129.057 48.61 128.227 48.4459 126.673 48.4459Z" fill="#7EB658" stroke="white" stroke-width="2.58395"/>
</svg>
