<svg width="144" height="17" viewBox="0 0 144 17" fill="none" xmlns="http://www.w3.org/2000/svg">
<mask id="path-1-outside-1_102_2900" maskUnits="userSpaceOnUse" x="0.5" y="0" width="144" height="17" fill="black">
<rect fill="white" x="0.5" width="144" height="17"/>
<path d="M7.48522 0.852C8.49322 0.852 8.43722 2.14 7.65322 2.196C6.28122 2.336 4.46122 2.42 3.08922 2.588C3.11722 3.568 3.17322 4.66 3.22922 5.808C4.74122 5.64 5.88922 5.584 7.51322 5.332C8.57722 5.164 8.91322 6.648 7.59722 6.788C6.00122 6.956 4.85322 7.04 3.31322 7.18C3.36922 8.776 3.48122 10.344 3.50922 11.66C3.53722 12.864 2.08122 13.032 2.02522 11.8C1.91322 9.336 1.94122 6.816 1.74522 3.848C1.66122 2.504 1.12922 1.468 2.52922 1.272C4.18122 1.048 5.83322 0.852 7.48522 0.852ZM15.8183 8.104C13.8583 8.692 11.6463 9.812 11.8703 10.848C11.9823 11.408 14.0263 11.688 16.1543 10.484C16.0423 9.588 15.9303 8.86 15.8183 8.104ZM15.5663 6.592C15.5103 6.2 15.4543 5.78 15.3983 5.332C15.2863 4.604 14.7543 4.268 13.9143 4.408C13.0743 4.548 12.2343 4.856 11.1703 5.22C10.3023 5.472 9.74228 4.24 10.6943 3.876C12.2063 3.288 13.1583 3.008 14.4743 2.924C15.7063 2.84 16.6863 3.596 16.8263 4.464C17.1063 6.144 17.3023 8.132 17.6103 10.204C17.6943 10.792 17.6103 11.548 16.7423 11.996C14.9783 12.92 10.8063 13.424 10.2463 11.184C9.82628 9.588 11.5623 7.852 15.5663 6.592ZM19.9131 3.4C19.7451 2.616 21.0891 2.224 21.3411 3.12C21.5931 3.988 21.7611 4.94 21.8451 5.976C22.6851 4.996 24.1971 4.324 26.1851 4.94C27.0531 5.22 26.7731 6.62 25.8491 6.368C24.3091 5.948 23.0771 6.228 21.9851 7.796C22.0411 9.084 22.0131 10.4 21.9571 11.66C21.8731 13.032 20.3891 12.948 20.4451 11.716C20.5851 8.244 20.4731 6.228 19.9131 3.4ZM34.5658 10.428C35.3498 10.008 36.1618 11.016 35.1818 11.772C34.3138 12.444 32.8858 12.864 31.6538 12.64C29.0218 12.164 28.3778 9.728 28.3778 7.74C28.3778 5.024 29.4978 2.728 32.1018 2.756C34.3138 2.784 35.4058 5.164 35.4618 7.096C35.4898 7.656 35.1258 8.188 34.3138 8.272C32.8578 8.44 31.3178 8.496 29.8898 8.412C30.1138 10.428 31.0658 11.1 32.0738 11.212C33.1938 11.352 33.8938 10.792 34.5658 10.428ZM29.8898 6.956C31.2058 6.956 32.6618 7.012 33.9498 6.844C33.8378 5.556 33.3338 4.268 31.9898 4.268C30.8418 4.268 30.0018 5.024 29.8898 6.956ZM37.4181 4.94C37.3061 4.072 38.7061 3.736 38.8741 4.828C39.0981 6.256 39.2941 7.992 39.7981 10.596C40.5541 8.468 41.1421 6.648 41.5621 5.388C41.8421 4.548 43.0741 4.184 43.4941 5.416C44.0821 7.208 44.3061 8.552 44.8101 10.344C45.5101 8.72 46.1541 6.844 46.7141 5.416C47.0781 4.492 48.3661 4.912 47.9741 6.032C47.4421 7.488 46.4621 9.896 46.0141 10.96C45.3421 12.528 44.1381 12.276 43.8021 11.212C43.2981 9.56 42.9621 8.132 42.4861 6.62C41.9261 8.412 41.5061 9.672 40.8621 11.184C40.2461 12.612 38.8741 12.668 38.5661 11.156C38.1181 8.916 37.7541 7.124 37.4181 4.94ZM55.6752 10.428C56.4592 10.008 57.2712 11.016 56.2912 11.772C55.4232 12.444 53.9952 12.864 52.7632 12.64C50.1312 12.164 49.4872 9.728 49.4872 7.74C49.4872 5.024 50.6072 2.728 53.2112 2.756C55.4232 2.784 56.5152 5.164 56.5712 7.096C56.5992 7.656 56.2352 8.188 55.4232 8.272C53.9672 8.44 52.4272 8.496 50.9992 8.412C51.2232 10.428 52.1752 11.1 53.1832 11.212C54.3032 11.352 55.0032 10.792 55.6752 10.428ZM50.9992 6.956C52.3152 6.956 53.7712 7.012 55.0592 6.844C54.9472 5.556 54.4432 4.268 53.0992 4.268C51.9512 4.268 51.1112 5.024 50.9992 6.956ZM59.5915 1.468C59.5355 0.431998 60.9915 0.431998 61.0475 1.356C61.2435 4.38 61.2995 8.748 61.5235 11.66C61.6355 13.34 60.0115 13.228 60.0115 11.996C59.9275 8.496 59.7595 4.716 59.5915 1.468ZM65.0876 1.468C65.0316 0.431998 66.4876 0.431998 66.5436 1.356C66.7396 4.38 66.7956 8.748 67.0196 11.66C67.1316 13.34 65.5076 13.228 65.5076 11.996C65.4236 8.496 65.2556 4.716 65.0876 1.468ZM71.7037 11.324C71.2277 11.436 70.6677 11.24 70.5837 10.26C70.5277 9.7 71.0597 8.86 71.8437 9C72.7117 9.14 73.1317 10.064 72.9357 11.324C72.7677 12.192 72.5157 12.92 71.8437 13.592C71.2837 14.152 70.6957 13.48 71.0317 13.088C71.6757 12.304 72.0677 11.24 71.7037 11.324ZM85.652 11.912C85.596 8.356 85.512 5.304 85.512 2.42C85.512 1.664 86.324 1.216 86.688 1.636C88.312 3.428 89.544 5.248 90.804 6.928C92.512 4.912 94.052 2.98 95.76 1.16C96.376 0.543999 97.244 0.992 97.272 1.832C97.328 4.632 97.216 7.768 97.3 10.596C97.3 11.828 95.592 11.968 95.676 10.484C95.816 7.852 95.732 5.78 95.732 3.372C94.304 4.94 92.932 6.732 91.588 8.412C91.252 8.832 90.58 8.888 90.244 8.468C89.264 7.152 88.004 5.332 86.968 4.072C87.108 6.396 87.108 9.56 87.22 11.772C87.304 12.948 85.68 12.976 85.652 11.912ZM106.371 4.296C106.735 3.512 107.995 4.268 107.687 4.94C106.567 7.768 104.215 12.556 102.871 15.216C102.227 16.476 100.911 15.72 101.443 14.6C102.031 13.424 102.731 12.024 103.403 10.596C102.227 8.58 100.995 6.508 100.155 5.08C99.5952 4.128 100.911 3.428 101.471 4.324C102.227 5.528 103.179 7.292 104.159 9.028C104.971 7.32 105.755 5.668 106.371 4.296ZM119.394 3.932C119.422 3.064 120.85 3.12 120.85 4.044V4.156C121.382 3.848 121.998 3.68 122.586 3.68C123.986 3.68 125.358 4.772 125.33 6.732C125.302 8.44 124.014 10.456 120.738 10.904C120.682 12.556 120.626 14.152 120.626 15.3C120.598 16.56 119.114 16.756 119.142 15.524C119.17 14.124 119.198 12.5 119.226 10.82C118.89 10.54 118.918 10.008 119.254 9.756C119.282 7.656 119.338 5.584 119.394 3.932ZM120.85 5.472C120.822 6.704 120.794 8.104 120.766 9.504C123.034 9.14 123.818 7.936 123.902 6.872C123.986 5.836 123.342 5.08 122.502 4.996C122.054 4.94 121.41 5.08 120.85 5.472ZM133.523 10.428C134.307 10.008 135.119 11.016 134.139 11.772C133.271 12.444 131.843 12.864 130.611 12.64C127.979 12.164 127.335 9.728 127.335 7.74C127.335 5.024 128.455 2.728 131.059 2.756C133.271 2.784 134.363 5.164 134.419 7.096C134.447 7.656 134.083 8.188 133.271 8.272C131.815 8.44 130.275 8.496 128.847 8.412C129.071 10.428 130.023 11.1 131.031 11.212C132.151 11.352 132.851 10.792 133.523 10.428ZM128.847 6.956C130.163 6.956 131.619 7.012 132.907 6.844C132.795 5.556 132.291 4.268 130.947 4.268C129.799 4.268 128.959 5.024 128.847 6.956ZM140.743 10.82C141.723 10.316 142.395 11.744 141.275 12.192C138.867 13.172 137.607 11.968 137.551 10.512C137.411 7.152 137.327 6.06 137.271 2.728C137.243 1.496 138.783 1.608 138.783 2.588C138.811 3.484 138.811 4.212 138.839 4.884C140.015 4.828 140.799 4.716 142.227 4.38C143.067 4.184 143.347 5.584 142.451 5.808C141.583 6.06 140.155 6.256 138.895 6.312C138.923 7.488 139.007 8.664 139.119 10.428C139.147 11.128 140.099 11.128 140.743 10.82Z"/>
</mask>
<path d="M7.48522 0.852C8.49322 0.852 8.43722 2.14 7.65322 2.196C6.28122 2.336 4.46122 2.42 3.08922 2.588C3.11722 3.568 3.17322 4.66 3.22922 5.808C4.74122 5.64 5.88922 5.584 7.51322 5.332C8.57722 5.164 8.91322 6.648 7.59722 6.788C6.00122 6.956 4.85322 7.04 3.31322 7.18C3.36922 8.776 3.48122 10.344 3.50922 11.66C3.53722 12.864 2.08122 13.032 2.02522 11.8C1.91322 9.336 1.94122 6.816 1.74522 3.848C1.66122 2.504 1.12922 1.468 2.52922 1.272C4.18122 1.048 5.83322 0.852 7.48522 0.852ZM15.8183 8.104C13.8583 8.692 11.6463 9.812 11.8703 10.848C11.9823 11.408 14.0263 11.688 16.1543 10.484C16.0423 9.588 15.9303 8.86 15.8183 8.104ZM15.5663 6.592C15.5103 6.2 15.4543 5.78 15.3983 5.332C15.2863 4.604 14.7543 4.268 13.9143 4.408C13.0743 4.548 12.2343 4.856 11.1703 5.22C10.3023 5.472 9.74228 4.24 10.6943 3.876C12.2063 3.288 13.1583 3.008 14.4743 2.924C15.7063 2.84 16.6863 3.596 16.8263 4.464C17.1063 6.144 17.3023 8.132 17.6103 10.204C17.6943 10.792 17.6103 11.548 16.7423 11.996C14.9783 12.92 10.8063 13.424 10.2463 11.184C9.82628 9.588 11.5623 7.852 15.5663 6.592ZM19.9131 3.4C19.7451 2.616 21.0891 2.224 21.3411 3.12C21.5931 3.988 21.7611 4.94 21.8451 5.976C22.6851 4.996 24.1971 4.324 26.1851 4.94C27.0531 5.22 26.7731 6.62 25.8491 6.368C24.3091 5.948 23.0771 6.228 21.9851 7.796C22.0411 9.084 22.0131 10.4 21.9571 11.66C21.8731 13.032 20.3891 12.948 20.4451 11.716C20.5851 8.244 20.4731 6.228 19.9131 3.4ZM34.5658 10.428C35.3498 10.008 36.1618 11.016 35.1818 11.772C34.3138 12.444 32.8858 12.864 31.6538 12.64C29.0218 12.164 28.3778 9.728 28.3778 7.74C28.3778 5.024 29.4978 2.728 32.1018 2.756C34.3138 2.784 35.4058 5.164 35.4618 7.096C35.4898 7.656 35.1258 8.188 34.3138 8.272C32.8578 8.44 31.3178 8.496 29.8898 8.412C30.1138 10.428 31.0658 11.1 32.0738 11.212C33.1938 11.352 33.8938 10.792 34.5658 10.428ZM29.8898 6.956C31.2058 6.956 32.6618 7.012 33.9498 6.844C33.8378 5.556 33.3338 4.268 31.9898 4.268C30.8418 4.268 30.0018 5.024 29.8898 6.956ZM37.4181 4.94C37.3061 4.072 38.7061 3.736 38.8741 4.828C39.0981 6.256 39.2941 7.992 39.7981 10.596C40.5541 8.468 41.1421 6.648 41.5621 5.388C41.8421 4.548 43.0741 4.184 43.4941 5.416C44.0821 7.208 44.3061 8.552 44.8101 10.344C45.5101 8.72 46.1541 6.844 46.7141 5.416C47.0781 4.492 48.3661 4.912 47.9741 6.032C47.4421 7.488 46.4621 9.896 46.0141 10.96C45.3421 12.528 44.1381 12.276 43.8021 11.212C43.2981 9.56 42.9621 8.132 42.4861 6.62C41.9261 8.412 41.5061 9.672 40.8621 11.184C40.2461 12.612 38.8741 12.668 38.5661 11.156C38.1181 8.916 37.7541 7.124 37.4181 4.94ZM55.6752 10.428C56.4592 10.008 57.2712 11.016 56.2912 11.772C55.4232 12.444 53.9952 12.864 52.7632 12.64C50.1312 12.164 49.4872 9.728 49.4872 7.74C49.4872 5.024 50.6072 2.728 53.2112 2.756C55.4232 2.784 56.5152 5.164 56.5712 7.096C56.5992 7.656 56.2352 8.188 55.4232 8.272C53.9672 8.44 52.4272 8.496 50.9992 8.412C51.2232 10.428 52.1752 11.1 53.1832 11.212C54.3032 11.352 55.0032 10.792 55.6752 10.428ZM50.9992 6.956C52.3152 6.956 53.7712 7.012 55.0592 6.844C54.9472 5.556 54.4432 4.268 53.0992 4.268C51.9512 4.268 51.1112 5.024 50.9992 6.956ZM59.5915 1.468C59.5355 0.431998 60.9915 0.431998 61.0475 1.356C61.2435 4.38 61.2995 8.748 61.5235 11.66C61.6355 13.34 60.0115 13.228 60.0115 11.996C59.9275 8.496 59.7595 4.716 59.5915 1.468ZM65.0876 1.468C65.0316 0.431998 66.4876 0.431998 66.5436 1.356C66.7396 4.38 66.7956 8.748 67.0196 11.66C67.1316 13.34 65.5076 13.228 65.5076 11.996C65.4236 8.496 65.2556 4.716 65.0876 1.468ZM71.7037 11.324C71.2277 11.436 70.6677 11.24 70.5837 10.26C70.5277 9.7 71.0597 8.86 71.8437 9C72.7117 9.14 73.1317 10.064 72.9357 11.324C72.7677 12.192 72.5157 12.92 71.8437 13.592C71.2837 14.152 70.6957 13.48 71.0317 13.088C71.6757 12.304 72.0677 11.24 71.7037 11.324ZM85.652 11.912C85.596 8.356 85.512 5.304 85.512 2.42C85.512 1.664 86.324 1.216 86.688 1.636C88.312 3.428 89.544 5.248 90.804 6.928C92.512 4.912 94.052 2.98 95.76 1.16C96.376 0.543999 97.244 0.992 97.272 1.832C97.328 4.632 97.216 7.768 97.3 10.596C97.3 11.828 95.592 11.968 95.676 10.484C95.816 7.852 95.732 5.78 95.732 3.372C94.304 4.94 92.932 6.732 91.588 8.412C91.252 8.832 90.58 8.888 90.244 8.468C89.264 7.152 88.004 5.332 86.968 4.072C87.108 6.396 87.108 9.56 87.22 11.772C87.304 12.948 85.68 12.976 85.652 11.912ZM106.371 4.296C106.735 3.512 107.995 4.268 107.687 4.94C106.567 7.768 104.215 12.556 102.871 15.216C102.227 16.476 100.911 15.72 101.443 14.6C102.031 13.424 102.731 12.024 103.403 10.596C102.227 8.58 100.995 6.508 100.155 5.08C99.5952 4.128 100.911 3.428 101.471 4.324C102.227 5.528 103.179 7.292 104.159 9.028C104.971 7.32 105.755 5.668 106.371 4.296ZM119.394 3.932C119.422 3.064 120.85 3.12 120.85 4.044V4.156C121.382 3.848 121.998 3.68 122.586 3.68C123.986 3.68 125.358 4.772 125.33 6.732C125.302 8.44 124.014 10.456 120.738 10.904C120.682 12.556 120.626 14.152 120.626 15.3C120.598 16.56 119.114 16.756 119.142 15.524C119.17 14.124 119.198 12.5 119.226 10.82C118.89 10.54 118.918 10.008 119.254 9.756C119.282 7.656 119.338 5.584 119.394 3.932ZM120.85 5.472C120.822 6.704 120.794 8.104 120.766 9.504C123.034 9.14 123.818 7.936 123.902 6.872C123.986 5.836 123.342 5.08 122.502 4.996C122.054 4.94 121.41 5.08 120.85 5.472ZM133.523 10.428C134.307 10.008 135.119 11.016 134.139 11.772C133.271 12.444 131.843 12.864 130.611 12.64C127.979 12.164 127.335 9.728 127.335 7.74C127.335 5.024 128.455 2.728 131.059 2.756C133.271 2.784 134.363 5.164 134.419 7.096C134.447 7.656 134.083 8.188 133.271 8.272C131.815 8.44 130.275 8.496 128.847 8.412C129.071 10.428 130.023 11.1 131.031 11.212C132.151 11.352 132.851 10.792 133.523 10.428ZM128.847 6.956C130.163 6.956 131.619 7.012 132.907 6.844C132.795 5.556 132.291 4.268 130.947 4.268C129.799 4.268 128.959 5.024 128.847 6.956ZM140.743 10.82C141.723 10.316 142.395 11.744 141.275 12.192C138.867 13.172 137.607 11.968 137.551 10.512C137.411 7.152 137.327 6.06 137.271 2.728C137.243 1.496 138.783 1.608 138.783 2.588C138.811 3.484 138.811 4.212 138.839 4.884C140.015 4.828 140.799 4.716 142.227 4.38C143.067 4.184 143.347 5.584 142.451 5.808C141.583 6.06 140.155 6.256 138.895 6.312C138.923 7.488 139.007 8.664 139.119 10.428C139.147 11.128 140.099 11.128 140.743 10.82Z"/>
<path d="M7.65322 2.196L7.61047 1.59752L7.60138 1.59817L7.59231 1.5991L7.65322 2.196ZM3.08922 2.588L3.01629 1.99245L2.47386 2.05887L2.48946 2.60513L3.08922 2.588ZM3.22922 5.808L2.62993 5.83723L2.66103 6.47482L3.29548 6.40433L3.22922 5.808ZM7.51322 5.332L7.60522 5.92491L7.6068 5.92466L7.51322 5.332ZM7.59722 6.788L7.66003 7.3847L7.66069 7.38463L7.59722 6.788ZM3.31322 7.18L3.2589 6.58246L2.69369 6.63385L2.71359 7.20104L3.31322 7.18ZM3.50922 11.66L2.90935 11.6728L2.90938 11.674L3.50922 11.66ZM2.02522 11.8L2.6246 11.7728L2.02522 11.8ZM1.74522 3.848L1.14638 3.88543L1.14652 3.88754L1.74522 3.848ZM2.52922 1.272L2.4486 0.677434L2.44603 0.677794L2.52922 1.272ZM7.48522 0.852V1.452C7.54704 1.452 7.58355 1.46177 7.60174 1.46865C7.61926 1.47528 7.62566 1.48133 7.62726 1.48289C7.62985 1.48544 7.64045 1.49771 7.64176 1.52851C7.64319 1.56216 7.63166 1.58652 7.62534 1.59468C7.62336 1.59723 7.62347 1.59633 7.62572 1.59511C7.62862 1.59353 7.62551 1.59645 7.61047 1.59752L7.65322 2.196L7.69597 2.79447C8.48562 2.73807 8.8651 2.05146 8.84068 1.47749C8.82799 1.17929 8.71258 0.866064 8.46668 0.625355C8.21489 0.378886 7.87116 0.252 7.48522 0.252V0.852ZM7.65322 2.196L7.59231 1.5991C6.91673 1.66803 6.12981 1.72327 5.32661 1.78316C4.52979 1.84257 3.71836 1.90648 3.01629 1.99245L3.08922 2.588L3.16214 3.18355C3.83208 3.10152 4.61664 3.03943 5.41583 2.97984C6.20863 2.92073 7.0177 2.86396 7.71413 2.7929L7.65322 2.196ZM3.08922 2.588L2.48946 2.60513C2.51768 3.59277 2.57409 4.69243 2.62993 5.83723L3.22922 5.808L3.82851 5.77877C3.77235 4.62757 3.71676 3.54323 3.68897 2.57086L3.08922 2.588ZM3.22922 5.808L3.29548 6.40433C4.76643 6.24089 5.96721 6.17908 7.60522 5.9249L7.51322 5.332L7.42122 4.7391C5.81123 4.98892 4.71601 5.03911 3.16296 5.21167L3.22922 5.808ZM7.51322 5.332L7.6068 5.92466C7.72648 5.90576 7.78318 5.93644 7.80558 5.95286C7.83479 5.97428 7.85012 6.00397 7.85375 6.02935C7.8567 6.04998 7.85267 6.06525 7.83775 6.08226C7.82214 6.10007 7.74961 6.1684 7.53375 6.19137L7.59722 6.788L7.66069 7.38463C8.10283 7.3376 8.4818 7.16793 8.74006 6.87336C8.99902 6.578 9.09124 6.20652 9.04169 5.85965C8.94125 5.15659 8.27826 4.60377 7.41964 4.73934L7.51322 5.332ZM7.59722 6.788L7.53441 6.1913C5.94347 6.35876 4.81034 6.44142 3.2589 6.58246L3.31322 7.18L3.36754 7.77754C4.8961 7.63858 6.05897 7.55324 7.66003 7.3847L7.59722 6.788ZM3.31322 7.18L2.71359 7.20104C2.77118 8.84231 2.88116 10.3478 2.90936 11.6728L3.50922 11.66L4.10908 11.6472C4.08127 10.3402 3.96726 8.70969 3.91285 7.15896L3.31322 7.18ZM3.50922 11.66L2.90938 11.674C2.9135 11.8509 2.86383 11.9444 2.8296 11.9869C2.79283 12.0326 2.75546 12.0447 2.7362 12.0468C2.71981 12.0485 2.71122 12.045 2.70097 12.0351C2.69033 12.0249 2.63321 11.9621 2.6246 11.7728L2.02522 11.8L1.42584 11.8272C1.44523 12.2539 1.59111 12.6321 1.86835 12.8993C2.14597 13.1668 2.51013 13.277 2.86123 13.2402C3.58597 13.1643 4.12918 12.5115 4.10906 11.646L3.50922 11.66ZM2.02522 11.8L2.6246 11.7728C2.51533 9.36887 2.53928 6.7669 2.34391 3.80846L1.74522 3.848L1.14652 3.88754C1.34315 6.8651 1.31111 9.30313 1.42584 11.8272L2.02522 11.8ZM1.74522 3.848L2.34405 3.81057C2.32128 3.44623 2.26783 3.10048 2.2298 2.82423C2.18908 2.52842 2.16847 2.32603 2.17926 2.17126C2.18908 2.03059 2.22055 2.00045 2.22855 1.99245C2.24591 1.97508 2.32965 1.90579 2.61241 1.8662L2.52922 1.272L2.44603 0.677794C2.02879 0.736208 1.65402 0.869916 1.38002 1.14392C1.09664 1.4273 1.00386 1.77691 0.982174 2.08774C0.961472 2.38447 1.00211 2.70533 1.04101 2.98789C1.08261 3.29002 1.12716 3.57777 1.14639 3.88543L1.74522 3.848ZM2.52922 1.272L2.60984 1.86656C4.25928 1.64291 5.8768 1.452 7.48522 1.452V0.852V0.252C5.78964 0.252 4.10316 0.453092 2.4486 0.67744L2.52922 1.272ZM15.8183 8.104L16.4118 8.01607L16.3102 7.33002L15.6459 7.5293L15.8183 8.104ZM11.8703 10.848L12.4587 10.7303L12.4567 10.7212L11.8703 10.848ZM16.1543 10.484L16.4497 11.0062L16.7995 10.8083L16.7496 10.4096L16.1543 10.484ZM15.5663 6.592L15.7464 7.16433L16.2323 7.01142L16.1603 6.50715L15.5663 6.592ZM15.3983 5.332L15.9936 5.25758L15.9926 5.24916L15.9913 5.24077L15.3983 5.332ZM13.9143 4.408L13.8156 3.81616L13.9143 4.408ZM11.1703 5.22L11.3376 5.79621L11.3511 5.79227L11.3645 5.7877L11.1703 5.22ZM10.6943 3.876L10.9086 4.43644L10.9117 4.4352L10.6943 3.876ZM14.4743 2.924L14.5125 3.52279L14.5151 3.52261L14.4743 2.924ZM16.8263 4.464L16.2339 4.55954L16.2344 4.56264L16.8263 4.464ZM17.6103 10.204L18.2043 10.1191L18.2038 10.1158L17.6103 10.204ZM16.7423 11.996L16.4671 11.4628L16.4639 11.4645L16.7423 11.996ZM10.2463 11.184L10.8284 11.0385L10.8265 11.0313L10.2463 11.184ZM15.8183 8.104L15.6459 7.5293C14.6343 7.83276 13.5369 8.2788 12.7065 8.79972C12.2938 9.05854 11.9136 9.35648 11.6473 9.6916C11.3813 10.0263 11.175 10.4716 11.2838 10.9748L11.8703 10.848L12.4567 10.7212C12.4535 10.7064 12.4398 10.6232 12.5868 10.4381C12.7335 10.2535 12.9867 10.0405 13.3441 9.81628C14.0537 9.3712 15.0422 8.96324 15.9907 8.6787L15.8183 8.104ZM11.8703 10.848L11.2819 10.9657C11.3764 11.4382 11.8089 11.6625 12.0853 11.7615C12.4127 11.8788 12.821 11.9333 13.2642 11.9274C14.1578 11.9156 15.2995 11.657 16.4497 11.0062L16.1543 10.484L15.8588 9.96179C14.8811 10.515 13.9368 10.7184 13.2483 10.7276C12.9005 10.7322 12.6438 10.6869 12.49 10.6318C12.2852 10.5585 12.4201 10.5378 12.4586 10.7303L11.8703 10.848ZM16.1543 10.484L16.7496 10.4096C16.6366 9.5051 16.5233 8.76875 16.4118 8.01607L15.8183 8.104L15.2248 8.19193C15.3373 8.95125 15.448 9.6709 15.5589 10.5584L16.1543 10.484ZM15.5663 6.592L16.1603 6.50715C16.1048 6.11906 16.0493 5.70257 15.9936 5.25758L15.3983 5.332L14.8029 5.40642C14.8593 5.85743 14.9158 6.28094 14.9723 6.67685L15.5663 6.592ZM15.3983 5.332L15.9913 5.24077C15.9148 4.74378 15.6782 4.30505 15.2473 4.0357C14.8305 3.77524 14.3244 3.73136 13.8156 3.81616L13.9143 4.408L14.0129 4.99984C14.3441 4.94464 14.524 4.99876 14.6113 5.0533C14.6843 5.09895 14.7697 5.19222 14.8053 5.42323L15.3983 5.332ZM13.9143 4.408L13.8156 3.81616C12.914 3.96643 12.0149 4.29691 10.9761 4.6523L11.1703 5.22L11.3645 5.7877C12.4537 5.41509 13.2345 5.12957 14.0129 4.99984L13.9143 4.408ZM11.1703 5.22L11.003 4.64379C10.9376 4.66277 10.9018 4.65075 10.8797 4.63889C10.8493 4.62258 10.8211 4.59163 10.8064 4.55512C10.7997 4.53824 10.7977 4.52484 10.7976 4.51653C10.7974 4.50889 10.7987 4.50603 10.7988 4.50577C10.799 4.50538 10.7995 4.50426 10.8009 4.50226C10.8023 4.50025 10.8054 4.49622 10.8116 4.49057C10.8235 4.47962 10.8517 4.45817 10.9086 4.43643L10.6943 3.876L10.48 3.31557C10.1118 3.45634 9.83121 3.70803 9.69112 4.04423C9.55479 4.37144 9.57785 4.71627 9.69311 5.00288C9.92122 5.57006 10.5672 6.01987 11.3376 5.79621L11.1703 5.22ZM10.6943 3.876L10.9117 4.4352C12.398 3.85722 13.2845 3.60117 14.5125 3.52278L14.4743 2.924L14.4361 2.32522C13.0321 2.41483 12.0146 2.71878 10.4768 3.3168L10.6943 3.876ZM14.4743 2.924L14.5151 3.52261C15.514 3.4545 16.1546 4.06761 16.2339 4.55954L16.8263 4.464L17.4186 4.36846C17.218 3.12439 15.8986 2.22549 14.4335 2.32539L14.4743 2.924ZM16.8263 4.464L16.2344 4.56264C16.5167 6.25632 16.6997 8.15868 17.0168 10.2922L17.6103 10.204L18.2038 10.1158C17.9049 8.10532 17.6958 6.03168 17.4181 4.36536L16.8263 4.464ZM17.6103 10.204L17.0163 10.2889C17.0502 10.5263 17.0425 10.7517 16.9712 10.9425C16.9063 11.1163 16.7735 11.3047 16.4671 11.4628L16.7423 11.996L17.0175 12.5292C17.579 12.2393 17.9223 11.8257 18.0953 11.3625C18.262 10.9163 18.2543 10.4697 18.2043 10.1191L17.6103 10.204ZM16.7423 11.996L16.4639 11.4645C15.6807 11.8747 14.2999 12.2125 13.0601 12.1768C12.4436 12.159 11.9117 12.0497 11.5217 11.8511C11.1477 11.6607 10.9184 11.3987 10.8284 11.0385L10.2463 11.184L9.6642 11.3295C9.85413 12.0893 10.3563 12.6043 10.9772 12.9205C11.5821 13.2285 12.3085 13.3555 13.0255 13.3762C14.4526 13.4175 16.0398 13.0413 17.0207 12.5275L16.7423 11.996ZM10.2463 11.184L10.8265 11.0313C10.695 10.5316 10.8607 9.91462 11.6479 9.20868C12.4399 8.49833 13.7839 7.78189 15.7464 7.16433L15.5663 6.592L15.3862 6.01967C13.3447 6.66211 11.8186 7.44367 10.8467 8.31532C9.86984 9.19138 9.37754 10.2404 9.66604 11.3367L10.2463 11.184ZM19.9131 3.4L20.5017 3.28344L20.4997 3.27428L19.9131 3.4ZM21.3411 3.12L20.7635 3.28245L20.7649 3.28729L21.3411 3.12ZM21.8451 5.976L21.247 6.02449L21.3634 7.45988L22.3006 6.36647L21.8451 5.976ZM26.1851 4.94L26.3693 4.36894L26.3626 4.36688L26.1851 4.94ZM25.8491 6.368L25.6912 6.94686L25.8491 6.368ZM21.9851 7.796L21.4927 7.4531L21.3768 7.61949L21.3856 7.82206L21.9851 7.796ZM21.9571 11.66L22.556 11.6967L22.5565 11.6866L21.9571 11.66ZM20.4451 11.716L21.0445 11.7432L21.0446 11.7402L20.4451 11.716ZM19.9131 3.4L20.4997 3.27428C20.4975 3.26375 20.4996 3.2651 20.4977 3.27272C20.496 3.27914 20.4941 3.27963 20.4985 3.27413C20.5108 3.25884 20.5485 3.22825 20.6109 3.21311C20.6725 3.19819 20.713 3.20895 20.7262 3.21539C20.7311 3.21773 20.7339 3.21995 20.7373 3.22408C20.7408 3.22827 20.7527 3.24406 20.7635 3.28245L21.3411 3.12L21.9187 2.95755C21.8111 2.57497 21.569 2.29042 21.2498 2.13561C20.9454 1.98805 20.6132 1.97781 20.3282 2.04689C19.7957 2.17598 19.1493 2.69947 19.3264 3.52572L19.9131 3.4ZM21.3411 3.12L20.7649 3.28729C21.0041 4.11126 21.1658 5.02287 21.247 6.02449L21.8451 5.976L22.4431 5.92751C22.3563 4.85713 22.1821 3.86474 21.9173 2.95271L21.3411 3.12ZM21.8451 5.976L22.3006 6.36647C22.9868 5.56589 24.2509 4.96883 26.0075 5.51312L26.1851 4.94L26.3626 4.36688C24.1432 3.67917 22.3833 4.42611 21.3895 5.58552L21.8451 5.976ZM26.1851 4.94L26.0009 5.51103C26.0339 5.52168 26.0519 5.53423 26.062 5.54309C26.0726 5.55236 26.0818 5.56406 26.0895 5.57991C26.1067 5.61515 26.1151 5.66948 26.1028 5.7258C26.0903 5.78306 26.0667 5.8009 26.0686 5.79959C26.0709 5.79795 26.0736 5.79738 26.072 5.79763C26.0698 5.79798 26.0498 5.80084 26.0069 5.78914L25.8491 6.368L25.6912 6.94686C26.0785 7.05248 26.4565 6.99358 26.7583 6.78153C27.0454 6.57985 27.2108 6.27744 27.2753 5.9812C27.4018 5.40041 27.1643 4.62544 26.3693 4.36897L26.1851 4.94ZM25.8491 6.368L26.0069 5.78914C25.1682 5.5604 24.3459 5.50364 23.5584 5.7676C22.7667 6.03296 22.09 6.59538 21.4927 7.4531L21.9851 7.796L22.4774 8.1389C22.9721 7.42862 23.4574 7.06704 23.9397 6.9054C24.4262 6.74236 24.9899 6.7556 25.6912 6.94686L25.8491 6.368ZM21.9851 7.796L21.3856 7.82206C21.4405 9.08521 21.4133 10.3817 21.3577 11.6334L21.9571 11.66L22.5565 11.6866C22.6128 10.4183 22.6416 9.08279 22.5845 7.76994L21.9851 7.796ZM21.9571 11.66L21.3582 11.6233C21.3437 11.8591 21.2737 11.9728 21.2326 12.0182C21.1924 12.0627 21.1623 12.0646 21.1542 12.0645C21.1454 12.0644 21.1286 12.0621 21.1075 12.0367C21.0868 12.0117 21.036 11.9299 21.0444 11.7432L20.4451 11.716L19.8457 11.6888C19.8058 12.5669 20.3559 13.2571 21.143 13.2645C21.9263 13.2718 22.5004 12.6036 22.5559 11.6967L21.9571 11.66ZM20.4451 11.716L21.0446 11.7402C21.1859 8.23415 21.0731 6.1691 20.5016 3.28345L19.9131 3.4L19.3245 3.51655C19.8731 6.28689 19.9842 8.25385 19.8456 11.6918L20.4451 11.716ZM34.5658 10.428L34.2825 9.89911L34.28 9.90042L34.5658 10.428ZM35.1818 11.772L34.8153 11.2969L34.8145 11.2976L35.1818 11.772ZM31.6538 12.64L31.7611 12.0497L31.7606 12.0496L31.6538 12.64ZM32.1018 2.756L32.1094 2.15605L32.1083 2.15603L32.1018 2.756ZM35.4618 7.096L34.8619 7.11339L34.8626 7.12596L35.4618 7.096ZM34.3138 8.272L34.2521 7.67514L34.245 7.67595L34.3138 8.272ZM29.8898 8.412L29.925 7.81304L29.2149 7.77126L29.2935 8.47826L29.8898 8.412ZM32.0738 11.212L32.1482 10.6166L32.1401 10.6157L32.0738 11.212ZM29.8898 6.956L29.2908 6.92128L29.254 7.556H29.8898V6.956ZM33.9498 6.844L34.0274 7.43896L34.5973 7.36462L34.5476 6.79202L33.9498 6.844ZM34.5658 10.428L34.8491 10.9569C34.9134 10.9225 34.9528 10.9278 34.9709 10.9328C34.9948 10.9395 35.0127 10.9544 35.0224 10.9704C35.0295 10.982 35.0368 11.0005 35.0278 11.036C35.0182 11.0738 34.978 11.1715 34.8153 11.2969L35.1818 11.772L35.5483 12.2471C35.8757 11.9945 36.1015 11.6827 36.1907 11.332C36.2805 10.979 36.2197 10.63 36.0482 10.3476C35.7058 9.78376 34.9583 9.53709 34.2825 9.89911L34.5658 10.428ZM35.1818 11.772L34.8145 11.2976C34.0707 11.8734 32.8131 12.2409 31.7611 12.0497L31.6538 12.64L31.5465 13.2303C32.9585 13.4871 34.5569 13.0146 35.5491 12.2464L35.1818 11.772ZM31.6538 12.64L31.7606 12.0496C30.6415 11.8472 29.9698 11.2449 29.558 10.4742C29.1323 9.67749 28.9778 8.6816 28.9778 7.74H28.3778H27.7778C27.7778 8.7864 27.9454 10.0025 28.4996 11.0398C29.0678 12.1031 30.0342 12.9568 31.547 13.2304L31.6538 12.64ZM28.3778 7.74H28.9778C28.9778 6.45103 29.2457 5.32865 29.7628 4.55138C30.2597 3.80471 31.0032 3.34422 32.0954 3.35596L32.1018 2.756L32.1083 2.15603C30.5964 2.13978 29.478 2.81329 28.7638 3.88662C28.07 4.92935 27.7778 6.31297 27.7778 7.74H28.3778ZM32.1018 2.756L32.0942 3.35595C32.9533 3.36683 33.6136 3.82402 34.0901 4.54338C34.5748 5.27501 34.8367 6.23977 34.8621 7.11338L35.4618 7.096L36.0616 7.07862C36.0309 6.02023 35.7188 4.82899 35.0905 3.88062C34.4541 2.91998 33.4623 2.17317 32.1094 2.15605L32.1018 2.756ZM35.4618 7.096L34.8626 7.12596C34.8695 7.2657 34.8282 7.38052 34.7536 7.4648C34.6807 7.54711 34.5352 7.64589 34.2521 7.67518L34.3138 8.272L34.3756 8.86881C34.9044 8.81411 35.3469 8.60489 35.6521 8.2602C35.9555 7.91748 36.0821 7.4863 36.0611 7.06604L35.4618 7.096ZM34.3138 8.272L34.245 7.67595C32.8196 7.84042 31.3146 7.89478 29.925 7.81304L29.8898 8.412L29.8546 9.01096C31.321 9.09723 32.896 9.03958 34.3826 8.86804L34.3138 8.272ZM29.8898 8.412L29.2935 8.47826C29.4145 9.5672 29.7407 10.3725 30.2425 10.9282C30.7515 11.4916 31.3879 11.7395 32.0076 11.8083L32.0738 11.212L32.1401 10.6157C31.7517 10.5725 31.4081 10.4284 31.1331 10.1238C30.8509 9.81146 30.5891 9.2728 30.4861 8.34574L29.8898 8.412ZM32.0738 11.212L31.9994 11.8074C33.3609 11.9776 34.2771 11.2667 34.8516 10.9556L34.5658 10.428L34.28 9.90042C33.5105 10.3173 33.0267 10.7264 32.1482 10.6166L32.0738 11.212ZM29.8898 6.956V7.556C31.1695 7.556 32.6885 7.6136 34.0274 7.43896L33.9498 6.844L33.8722 6.24904C32.6351 6.4104 31.2422 6.356 29.8898 6.356V6.956ZM33.9498 6.844L34.5476 6.79202C34.4876 6.10271 34.3196 5.34922 33.9377 4.7504C33.5361 4.12066 32.8959 3.668 31.9898 3.668V4.268V4.868C32.4278 4.868 32.7115 5.05934 32.9259 5.3956C33.1601 5.76278 33.3 6.29728 33.3521 6.89598L33.9498 6.844ZM31.9898 4.268V3.668C31.2736 3.668 30.5965 3.91048 30.095 4.49794C29.6103 5.06572 29.3509 5.88474 29.2908 6.92128L29.8898 6.956L30.4888 6.99072C30.5407 6.09526 30.7573 5.57028 31.0077 5.27706C31.2412 5.00352 31.5581 4.868 31.9898 4.868V4.268ZM37.4181 4.94L36.823 5.01678L36.824 5.02402L36.8251 5.03123L37.4181 4.94ZM38.8741 4.828L38.2811 4.91923L38.2813 4.92098L38.8741 4.828ZM39.7981 10.596L39.209 10.71L39.627 12.8698L40.3635 10.7969L39.7981 10.596ZM41.5621 5.388L40.9929 5.19826L41.5621 5.388ZM43.4941 5.416L44.0642 5.22892L44.062 5.22239L43.4941 5.416ZM44.8101 10.344L44.2325 10.5064L44.6909 12.1363L45.3611 10.5815L44.8101 10.344ZM46.7141 5.416L46.1558 5.19608L46.1555 5.19695L46.7141 5.416ZM47.9741 6.032L48.5377 6.23794L48.5404 6.23021L47.9741 6.032ZM46.0141 10.96L46.5656 11.1964L46.5671 11.1928L46.0141 10.96ZM43.8021 11.212L43.2282 11.3871L43.2299 11.3927L43.8021 11.212ZM42.4861 6.62L43.0584 6.43983L42.484 4.61519L41.9134 6.44103L42.4861 6.62ZM40.8621 11.184L41.413 11.4217L41.4141 11.4191L40.8621 11.184ZM38.5661 11.156L37.9777 11.2737L37.9782 11.2758L38.5661 11.156ZM37.4181 4.94L38.0132 4.86322C38.0098 4.83755 38.0131 4.82417 38.0148 4.81857C38.0168 4.81223 38.0204 4.80461 38.0284 4.79538C38.0472 4.77372 38.0854 4.74938 38.1341 4.74175C38.1803 4.73451 38.2047 4.74639 38.2131 4.75231C38.2136 4.75268 38.2598 4.78092 38.2811 4.91923L38.8741 4.828L39.4671 4.73676C39.4044 4.32908 39.2126 3.98981 38.9069 3.77319C38.609 3.56211 38.2589 3.50749 37.9481 3.55625C37.3498 3.65009 36.7158 4.18589 36.823 5.01678L37.4181 4.94ZM38.8741 4.828L38.2813 4.92098C38.5011 6.32194 38.7026 8.09326 39.209 10.71L39.7981 10.596L40.3872 10.482C39.8856 7.89074 39.6951 6.19006 39.4668 4.73502L38.8741 4.828ZM39.7981 10.596L40.3635 10.7969C41.1221 8.66152 41.7132 6.83205 42.1313 5.57774L41.5621 5.388L40.9929 5.19826C40.571 6.46394 39.9861 8.27448 39.2327 10.3951L39.7981 10.596ZM41.5621 5.388L42.1313 5.57774C42.2005 5.37011 42.3882 5.23766 42.539 5.22164C42.6026 5.21489 42.6573 5.22795 42.709 5.26433C42.7632 5.30254 42.853 5.39478 42.9262 5.6096L43.4941 5.416L44.062 5.22239C43.9252 4.82122 43.7035 4.49696 43.3999 4.28317C43.0936 4.06754 42.7441 3.99311 42.4122 4.02835C41.772 4.09634 41.2037 4.56589 40.9929 5.19826L41.5621 5.388ZM43.4941 5.416L42.924 5.60306C43.2109 6.47754 43.4097 7.24436 43.6009 8.02307C43.7914 8.79882 43.977 9.59782 44.2325 10.5064L44.8101 10.344L45.3877 10.1816C45.1392 9.29818 44.9608 8.52918 44.7663 7.73693C44.5725 6.94764 44.3652 6.14646 44.0642 5.22894L43.4941 5.416ZM44.8101 10.344L45.3611 10.5815C46.0641 8.95053 46.7286 7.02241 47.2727 5.63505L46.7141 5.416L46.1555 5.19695C45.5796 6.66559 44.9561 8.48947 44.2591 10.1065L44.8101 10.344ZM46.7141 5.416L47.2723 5.63591C47.3112 5.53716 47.3545 5.51715 47.3616 5.514C47.3749 5.50814 47.3888 5.50812 47.4016 5.51331C47.4117 5.51741 47.4249 5.52604 47.435 5.55175C47.4447 5.57667 47.4677 5.66263 47.4078 5.83379L47.9741 6.032L48.5404 6.23021C48.6765 5.84137 48.6855 5.45483 48.5526 5.11487C48.42 4.77571 48.162 4.52708 47.8536 4.40169C47.2149 4.14199 46.4559 4.43442 46.1558 5.19608L46.7141 5.416ZM47.9741 6.032L47.4105 5.82608C46.8834 7.26867 45.9078 9.66638 45.4611 10.7272L46.0141 10.96L46.5671 11.1928C47.0164 10.1256 48.0007 7.70733 48.5377 6.23792L47.9741 6.032ZM46.0141 10.96L45.4626 10.7236C45.1717 11.4023 44.8646 11.473 44.7821 11.473C44.6958 11.473 44.4901 11.3982 44.3742 11.0313L43.8021 11.212L43.2299 11.3927C43.4501 12.0898 44.0144 12.673 44.7821 12.673C45.5536 12.673 46.1844 12.0857 46.5656 11.1964L46.0141 10.96ZM43.8021 11.212L44.376 11.0369C44.1269 10.2205 43.9192 9.45894 43.7122 8.70472C43.5059 7.95284 43.3002 7.20782 43.0584 6.43983L42.4861 6.62L41.9138 6.80017C42.148 7.54418 42.3483 8.26915 42.555 9.02228C42.761 9.77306 42.9733 10.5515 43.2282 11.3871L43.8021 11.212ZM42.4861 6.62L41.9134 6.44103C41.3552 8.22741 40.9422 9.46476 40.3101 10.9489L40.8621 11.184L41.4141 11.4191C42.07 9.87924 42.497 8.59659 43.0588 6.79896L42.4861 6.62ZM40.8621 11.184L40.3112 10.9463C40.0538 11.5429 39.7214 11.6715 39.594 11.6725C39.532 11.673 39.2759 11.6344 39.154 11.0362L38.5661 11.156L37.9782 11.2758C38.1643 12.1896 38.7482 12.879 39.6032 12.8725C40.3928 12.8665 41.0544 12.2531 41.413 11.4217L40.8621 11.184ZM38.5661 11.156L39.1544 11.0383C38.7059 8.79565 38.3447 7.01713 38.0111 4.84877L37.4181 4.94L36.8251 5.03123C37.1635 7.23087 37.5303 9.03634 37.9777 11.2737L38.5661 11.156ZM55.6752 10.428L55.3919 9.89911L55.3894 9.90042L55.6752 10.428ZM56.2912 11.772L55.9247 11.2969L55.9239 11.2976L56.2912 11.772ZM52.7632 12.64L52.8705 12.0497L52.87 12.0496L52.7632 12.64ZM53.2112 2.756L53.2188 2.15605L53.2176 2.15603L53.2112 2.756ZM56.5712 7.096L55.9713 7.11339L55.9719 7.12596L56.5712 7.096ZM55.4232 8.272L55.3614 7.67514L55.3544 7.67595L55.4232 8.272ZM50.9992 8.412L51.0344 7.81304L50.3243 7.77126L50.4029 8.47826L50.9992 8.412ZM53.1832 11.212L53.2576 10.6166L53.2494 10.6157L53.1832 11.212ZM50.9992 6.956L50.4002 6.92128L50.3634 7.556H50.9992V6.956ZM55.0592 6.844L55.1368 7.43896L55.7067 7.36462L55.6569 6.79202L55.0592 6.844ZM55.6752 10.428L55.9585 10.9569C56.0228 10.9225 56.0622 10.9278 56.0803 10.9328C56.1042 10.9395 56.1221 10.9544 56.1318 10.9704C56.1389 10.982 56.1462 11.0005 56.1372 11.036C56.1275 11.0738 56.0873 11.1715 55.9247 11.2969L56.2912 11.772L56.6577 12.2471C56.985 11.9945 57.2108 11.6827 57.3001 11.332C57.3899 10.979 57.329 10.63 57.1576 10.3476C56.8152 9.78376 56.0676 9.53709 55.3919 9.89911L55.6752 10.428ZM56.2912 11.772L55.9239 11.2976C55.1801 11.8734 53.9225 12.2409 52.8705 12.0497L52.7632 12.64L52.6559 13.2303C54.0679 13.4871 55.6663 13.0146 56.6585 12.2464L56.2912 11.772ZM52.7632 12.64L52.87 12.0496C51.7508 11.8472 51.0792 11.2449 50.6674 10.4742C50.2416 9.67749 50.0872 8.6816 50.0872 7.74H49.4872H48.8872C48.8872 8.7864 49.0547 10.0025 49.609 11.0398C50.1772 12.1031 51.1435 12.9568 52.6564 13.2304L52.7632 12.64ZM49.4872 7.74H50.0872C50.0872 6.45103 50.355 5.32865 50.8722 4.55138C51.369 3.80471 52.1126 3.34422 53.2047 3.35596L53.2112 2.756L53.2176 2.15603C51.7058 2.13978 50.5873 2.81329 49.8732 3.88662C49.1793 4.92935 48.8872 6.31297 48.8872 7.74H49.4872ZM53.2112 2.756L53.2036 3.35595C54.0627 3.36683 54.7229 3.82402 55.1995 4.54338C55.6842 5.27501 55.9461 6.23977 55.9714 7.11338L56.5712 7.096L57.1709 7.07862C57.1403 6.02023 56.8282 4.82899 56.1999 3.88062C55.5634 2.91998 54.5717 2.17317 53.2188 2.15605L53.2112 2.756ZM56.5712 7.096L55.9719 7.12596C55.9789 7.2657 55.9375 7.38052 55.8629 7.4648C55.7901 7.54711 55.6446 7.64589 55.3615 7.67518L55.4232 8.272L55.4849 8.86881C56.0138 8.81411 56.4563 8.60489 56.7614 8.2602C57.0648 7.91748 57.1915 7.4863 57.1704 7.06604L56.5712 7.096ZM55.4232 8.272L55.3544 7.67595C53.929 7.84042 52.424 7.89478 51.0344 7.81304L50.9992 8.412L50.964 9.01096C52.4304 9.09723 54.0054 9.03958 55.492 8.86804L55.4232 8.272ZM50.9992 8.412L50.4029 8.47826C50.5238 9.5672 50.8501 10.3725 51.3519 10.9282C51.8609 11.4916 52.4973 11.7395 53.1169 11.8083L53.1832 11.212L53.2494 10.6157C52.8611 10.5725 52.5175 10.4284 52.2424 10.1238C51.9603 9.81146 51.6985 9.2728 51.5955 8.34574L50.9992 8.412ZM53.1832 11.212L53.1088 11.8074C54.4703 11.9776 55.3865 11.2667 55.961 10.9556L55.6752 10.428L55.3894 9.90042C54.6199 10.3173 54.1361 10.7264 53.2576 10.6166L53.1832 11.212ZM50.9992 6.956V7.556C52.2788 7.556 53.7979 7.6136 55.1368 7.43896L55.0592 6.844L54.9816 6.24904C53.7445 6.4104 52.3515 6.356 50.9992 6.356V6.956ZM55.0592 6.844L55.6569 6.79202C55.597 6.10271 55.4289 5.34922 55.0471 4.7504C54.6455 4.12066 54.0052 3.668 53.0992 3.668V4.268V4.868C53.5371 4.868 53.8209 5.05934 54.0353 5.3956C54.2694 5.76278 54.4094 6.29728 54.4614 6.89598L55.0592 6.844ZM53.0992 4.268V3.668C52.3829 3.668 51.7058 3.91048 51.2043 4.49794C50.7197 5.06572 50.4603 5.88474 50.4002 6.92128L50.9992 6.956L51.5982 6.99072C51.6501 6.09526 51.8667 5.57028 52.117 5.27706C52.3505 5.00352 52.6674 4.868 53.0992 4.868V4.268ZM59.5915 1.468L60.1907 1.43701L60.1906 1.43561L59.5915 1.468ZM61.0475 1.356L60.4486 1.3923L60.4487 1.39481L61.0475 1.356ZM61.5235 11.66L62.1222 11.6201L62.1217 11.614L61.5235 11.66ZM60.0115 11.996H60.6115V11.9888L60.6113 11.9816L60.0115 11.996ZM59.5915 1.468L60.1906 1.43561C60.1874 1.3767 60.1958 1.34352 60.2011 1.3286C60.2062 1.31427 60.2113 1.30817 60.2146 1.30491C60.2221 1.29725 60.2485 1.27856 60.3005 1.27656C60.3535 1.27452 60.3951 1.29181 60.4158 1.30819C60.4246 1.31518 60.4302 1.32223 60.4345 1.33048C60.4386 1.33834 60.4464 1.35666 60.4486 1.3923L61.0475 1.356L61.6464 1.3197C61.5943 0.461276 60.8686 0.0538211 60.2544 0.0774422C59.9425 0.0894403 59.6118 0.207242 59.3604 0.462091C59.0995 0.726497 58.9702 1.09158 58.9923 1.50038L59.5915 1.468ZM61.0475 1.356L60.4487 1.39481C60.546 2.89613 60.6087 4.73363 60.6754 6.57174C60.7418 8.40317 60.8121 10.2357 60.9252 11.706L61.5235 11.66L62.1217 11.614C62.0108 10.1723 61.9412 8.36483 61.8746 6.52826C61.8082 4.69837 61.7449 2.83986 61.6462 1.31719L61.0475 1.356ZM61.5235 11.66L60.9248 11.6999C60.9468 12.0295 60.8784 12.1963 60.8339 12.2636C60.7945 12.3233 60.7668 12.3215 60.7667 12.3215C60.7589 12.3221 60.7312 12.3205 60.6973 12.285C60.6663 12.2525 60.6115 12.1692 60.6115 11.996H60.0115H59.4115C59.4115 12.8898 60.0464 13.576 60.8522 13.5185C61.2441 13.4905 61.6014 13.2787 61.835 12.9254C62.0635 12.5797 62.1562 12.1305 62.1221 11.6201L61.5235 11.66ZM60.0115 11.996L60.6113 11.9816C60.5271 8.47378 60.3588 4.68765 60.1907 1.43701L59.5915 1.468L58.9923 1.49899C59.1601 4.74435 59.3278 8.51822 59.4116 12.0104L60.0115 11.996ZM65.0876 1.468L65.6868 1.43701L65.6867 1.43561L65.0876 1.468ZM66.5436 1.356L65.9447 1.3923L65.9448 1.39481L66.5436 1.356ZM67.0196 11.66L67.6183 11.6201L67.6178 11.614L67.0196 11.66ZM65.5076 11.996H66.1076V11.9888L66.1074 11.9816L65.5076 11.996ZM65.0876 1.468L65.6867 1.43561C65.6835 1.3767 65.6919 1.34352 65.6972 1.3286C65.7023 1.31427 65.7074 1.30817 65.7107 1.30491C65.7182 1.29725 65.7446 1.27856 65.7966 1.27656C65.8496 1.27452 65.8912 1.29181 65.9118 1.30819C65.9207 1.31518 65.9263 1.32223 65.9306 1.33048C65.9347 1.33834 65.9425 1.35666 65.9447 1.3923L66.5436 1.356L67.1425 1.3197C67.0904 0.461276 66.3646 0.0538211 65.7505 0.0774422C65.4385 0.0894403 65.1079 0.207242 64.8565 0.462091C64.5956 0.726497 64.4663 1.09158 64.4884 1.50038L65.0876 1.468ZM66.5436 1.356L65.9448 1.39481C66.0421 2.89613 66.1048 4.73363 66.1715 6.57174C66.2379 8.40317 66.3082 10.2357 66.4213 11.706L67.0196 11.66L67.6178 11.614C67.5069 10.1723 67.4373 8.36483 67.3707 6.52826C67.3043 4.69837 67.241 2.83986 67.1423 1.31719L66.5436 1.356ZM67.0196 11.66L66.4209 11.6999C66.4429 12.0295 66.3745 12.1963 66.33 12.2636C66.2906 12.3233 66.2629 12.3215 66.2628 12.3215C66.255 12.3221 66.2273 12.3205 66.1934 12.285C66.1624 12.2525 66.1076 12.1692 66.1076 11.996H65.5076H64.9076C64.9076 12.8898 65.5425 13.576 66.3483 13.5185C66.7402 13.4905 67.0975 13.2787 67.3311 12.9254C67.5596 12.5797 67.6523 12.1305 67.6182 11.6201L67.0196 11.66ZM65.5076 11.996L66.1074 11.9816C66.0232 8.47378 65.8549 4.68765 65.6868 1.43701L65.0876 1.468L64.4884 1.49899C64.6562 4.74435 64.8239 8.51822 64.9077 12.0104L65.5076 11.996ZM71.7037 11.324L71.5687 10.7394L71.5662 10.74L71.7037 11.324ZM70.5837 10.26L71.1815 10.2088L71.1807 10.2003L70.5837 10.26ZM71.8437 9L71.7382 9.59074L71.7481 9.59234L71.8437 9ZM72.9357 11.324L73.5247 11.438L73.5268 11.4272L73.5285 11.4162L72.9357 11.324ZM71.0317 13.088L71.4873 13.4786L71.4953 13.4688L71.0317 13.088ZM71.7037 11.324L71.5662 10.74C71.4476 10.7679 71.3856 10.7432 71.3567 10.7215C71.3294 10.7011 71.2146 10.5958 71.1815 10.2088L70.5837 10.26L69.9858 10.3112C70.0367 10.9042 70.2439 11.3869 70.6367 11.6815C71.0277 11.9748 71.4837 11.9921 71.8411 11.9081L71.7037 11.324ZM70.5837 10.26L71.1807 10.2003C71.1717 10.1101 71.218 9.91758 71.3551 9.75697C71.4777 9.61325 71.6065 9.56714 71.7382 9.59066L71.8437 9L71.9491 8.40934C71.2968 8.29286 70.7676 8.59675 70.4422 8.97803C70.1313 9.34242 69.9397 9.84989 69.9866 10.3197L70.5837 10.26ZM71.8437 9L71.7481 9.59234C71.9642 9.6272 72.1301 9.74903 72.2447 9.99522C72.3687 10.2615 72.4288 10.6788 72.3428 11.2318L72.9357 11.324L73.5285 11.4162C73.6385 10.7092 73.5866 10.0345 73.3326 9.48878C73.0692 8.92297 72.5911 8.5128 71.9392 8.40766L71.8437 9ZM72.9357 11.324L72.3466 11.21C72.1896 12.0211 71.9716 12.6155 71.4194 13.1677L71.8437 13.592L72.2679 14.0163C73.0597 13.2245 73.3457 12.3629 73.5247 11.438L72.9357 11.324ZM71.8437 13.592L71.4194 13.1677C71.3602 13.2269 71.3471 13.2094 71.3885 13.2063C71.4283 13.2033 71.4649 13.2185 71.4876 13.2376C71.5059 13.2529 71.5248 13.2785 71.5312 13.3207C71.5392 13.3734 71.5236 13.436 71.4872 13.4785L71.0317 13.088L70.5761 12.6975C70.1416 13.2045 70.3474 13.847 70.7157 14.1564C70.9134 14.3225 71.181 14.4252 71.4781 14.403C71.7767 14.3806 72.0471 14.2371 72.2679 14.0163L71.8437 13.592ZM71.0317 13.088L71.4953 13.4688C71.857 13.0286 72.15 12.5097 72.3072 12.0918C72.3797 11.8991 72.4521 11.6547 72.4422 11.4278C72.4375 11.3204 72.41 11.0971 72.2274 10.9167C72.01 10.702 71.7381 10.7003 71.5687 10.7394L71.7037 11.324L71.8386 11.9086C71.7602 11.9267 71.5556 11.9399 71.384 11.7703C71.2471 11.6351 71.2437 11.4873 71.2434 11.4801C71.2422 11.4536 71.2446 11.5084 71.1841 11.6692C71.0753 11.9583 70.8503 12.3634 70.568 12.7072L71.0317 13.088ZM85.652 11.912L85.0521 11.9214L85.0522 11.9278L85.652 11.912ZM86.688 1.636L86.2345 2.02905L86.2434 2.03891L86.688 1.636ZM90.804 6.928L90.324 7.288L90.7755 7.88991L91.2618 7.31585L90.804 6.928ZM95.76 1.16L95.3358 0.735735L95.329 0.742468L95.3225 0.749411L95.76 1.16ZM97.272 1.832L97.872 1.82L97.8717 1.81201L97.272 1.832ZM97.3 10.596H97.9V10.5871L97.8998 10.5782L97.3 10.596ZM95.676 10.484L96.2751 10.5179L96.2752 10.5159L95.676 10.484ZM95.732 3.372H96.332V1.82208L95.2884 2.968L95.732 3.372ZM91.588 8.412L91.1195 8.03718V8.03718L91.588 8.412ZM90.244 8.468L89.7628 8.82636L89.769 8.8347L89.7755 8.84282L90.244 8.468ZM86.968 4.072L87.4315 3.69094L86.258 2.26374L86.3691 4.10808L86.968 4.072ZM87.22 11.772L86.6207 11.8023L86.6216 11.8147L87.22 11.772ZM85.652 11.912L86.252 11.9026C86.1958 8.33666 86.112 5.29793 86.112 2.42H85.512H84.912C84.912 5.31007 84.9963 8.37534 85.0521 11.9214L85.652 11.912ZM85.512 2.42H86.112C86.112 2.26364 86.1954 2.14916 86.2796 2.09701C86.3215 2.07104 86.3399 2.07507 86.326 2.07449C86.3009 2.07345 86.2601 2.05833 86.2346 2.02896L86.688 1.636L87.1414 1.24304C86.6959 0.729007 86.0423 0.83234 85.6475 1.07699C85.2346 1.33284 84.912 1.82036 84.912 2.42H85.512ZM86.688 1.636L86.2434 2.03891C87.8425 3.80341 89.043 5.5799 90.324 7.288L90.804 6.928L91.284 6.568C90.0451 4.9161 88.7815 3.05259 87.1326 1.23309L86.688 1.636ZM90.804 6.928L91.2618 7.31585C92.9852 5.28174 94.5034 3.37582 96.1975 1.57059L95.76 1.16L95.3225 0.749411C93.6007 2.58418 92.0389 4.54226 90.3462 6.54015L90.804 6.928ZM95.76 1.16L96.1843 1.58426C96.2609 1.50763 96.324 1.48399 96.3625 1.47677C96.4022 1.46935 96.4417 1.47435 96.4811 1.49289C96.5586 1.52939 96.6653 1.63863 96.6724 1.85199L97.272 1.832L97.8717 1.81201C97.8508 1.18537 97.5095 0.650611 96.992 0.407108C96.455 0.154382 95.8142 0.257267 95.3358 0.735735L95.76 1.16ZM97.272 1.832L96.6721 1.844C96.7 3.234 96.6861 4.70855 96.6755 6.19926C96.6651 7.68592 96.6579 9.18731 96.7003 10.6138L97.3 10.596L97.8998 10.5782C97.8581 9.17669 97.865 7.69608 97.8755 6.20774C97.886 4.72345 97.9001 3.23 97.8719 1.82L97.272 1.832ZM97.3 10.596H96.7C96.7 10.7588 96.6468 10.845 96.6045 10.8885C96.5566 10.9377 96.4984 10.9581 96.4515 10.9585C96.4097 10.9589 96.379 10.9448 96.3535 10.9146C96.3267 10.8827 96.2605 10.7761 96.2751 10.5179L95.676 10.484L95.077 10.4501C95.0496 10.9339 95.1654 11.3663 95.4352 11.687C95.7064 12.0094 96.0868 12.1616 96.4616 12.1585C97.218 12.1521 97.9 11.5308 97.9 10.596H97.3ZM95.676 10.484L96.2752 10.5159C96.4163 7.86278 96.332 5.75372 96.332 3.372H95.732H95.132C95.132 5.80628 95.2158 7.84122 95.0769 10.4521L95.676 10.484ZM95.732 3.372L95.2884 2.968C93.8434 4.55474 92.4518 6.37176 91.1195 8.03718L91.588 8.412L92.0565 8.78682C93.4122 7.09223 94.7647 5.32526 96.1756 3.776L95.732 3.372ZM91.588 8.412L91.1195 8.03718C91.0647 8.10576 90.9751 8.15079 90.8828 8.15592C90.7948 8.16081 90.742 8.12995 90.7126 8.09318L90.244 8.468L89.7755 8.84282C90.3951 9.6173 91.5257 9.45036 92.0566 8.78682L91.588 8.412ZM90.244 8.468L90.7253 8.10964C89.7669 6.82274 88.4787 4.96458 87.4315 3.69094L86.968 4.072L86.5046 4.45306C87.5294 5.69942 88.7611 7.48126 89.7628 8.82636L90.244 8.468ZM86.968 4.072L86.3691 4.10808C86.4383 5.25721 86.4732 6.61822 86.5047 7.97791C86.5361 9.33177 86.5643 10.686 86.6208 11.8023L87.22 11.772L87.8193 11.7417C87.7638 10.646 87.736 9.31223 87.7044 7.95009C87.6729 6.59378 87.6377 5.21079 87.5669 4.03592L86.968 4.072ZM87.22 11.772L86.6216 11.8147C86.6321 11.9629 86.5895 12.0155 86.5752 12.0309C86.5528 12.0549 86.5098 12.0795 86.4465 12.0828C86.3819 12.0862 86.3312 12.0654 86.304 12.0428C86.2878 12.0294 86.2545 11.9969 86.2518 11.8962L85.652 11.912L85.0522 11.9278C85.0636 12.3591 85.2437 12.7221 85.5373 12.9659C85.8198 13.2006 86.1751 13.2988 86.5096 13.2812C86.8453 13.2635 87.1943 13.1271 87.4536 12.8484C87.7211 12.561 87.8499 12.1691 87.8185 11.7293L87.22 11.772ZM106.371 4.296L105.827 4.04331L105.824 4.05025L106.371 4.296ZM107.687 4.94L107.142 4.69001L107.135 4.70438L107.129 4.71907L107.687 4.94ZM102.871 15.216L103.405 15.4891L103.407 15.4866L102.871 15.216ZM101.443 14.6L100.906 14.3316L100.901 14.3426L101.443 14.6ZM103.403 10.596L103.946 10.8515L104.08 10.5661L103.921 10.2937L103.403 10.596ZM100.155 5.08L99.638 5.38421L100.155 5.08ZM101.471 4.324L100.962 4.642L100.963 4.64306L101.471 4.324ZM104.159 9.028L103.637 9.32296L104.205 10.3294L104.701 9.28561L104.159 9.028ZM106.371 4.296L106.915 4.54867C106.924 4.52914 106.926 4.53453 106.912 4.54589C106.897 4.55712 106.883 4.56139 106.877 4.56234C106.875 4.56268 106.92 4.55844 106.995 4.59917C107.068 4.63885 107.114 4.69198 107.132 4.72482C107.139 4.73845 107.136 4.73942 107.135 4.72803C107.134 4.71402 107.138 4.69914 107.142 4.69001L107.687 4.94L108.233 5.18999C108.402 4.82113 108.343 4.45056 108.194 4.16643C108.05 3.89302 107.817 3.68015 107.568 3.54482C107.321 3.41056 107.001 3.32232 106.67 3.38041C106.31 3.44363 106 3.6715 105.827 4.04333L106.371 4.296ZM107.687 4.94L107.129 4.71907C106.021 7.51791 103.681 12.2824 102.336 14.9454L102.871 15.216L103.407 15.4866C104.749 12.8296 107.113 8.01809 108.245 5.16093L107.687 4.94ZM102.871 15.216L102.337 14.9429C102.224 15.1642 102.113 15.2367 102.064 15.258C102.018 15.2777 101.995 15.2692 101.984 15.2638C101.97 15.2568 101.944 15.2363 101.929 15.1837C101.915 15.1336 101.905 15.0254 101.985 14.8574L101.443 14.6L100.901 14.3426C100.524 15.1372 100.756 15.9914 101.448 16.3372C101.78 16.5033 102.174 16.5175 102.539 16.3596C102.901 16.2033 103.197 15.8978 103.405 15.4891L102.871 15.216ZM101.443 14.6L101.98 14.8683C102.567 13.6931 103.271 12.2869 103.946 10.8515L103.403 10.596L102.86 10.3405C102.192 11.7611 101.495 13.1549 100.907 14.3317L101.443 14.6ZM103.403 10.596L103.921 10.2937C102.745 8.27691 101.51 6.19982 100.672 4.77579L100.155 5.08L99.638 5.38421C100.48 6.81618 101.709 8.88309 102.885 10.8983L103.403 10.596ZM100.155 5.08L100.672 4.77579C100.604 4.66017 100.62 4.6069 100.622 4.60016C100.627 4.58413 100.642 4.55676 100.684 4.53402C100.725 4.511 100.773 4.50482 100.813 4.5143C100.844 4.52158 100.902 4.54469 100.962 4.642L101.471 4.324L101.98 4.006C101.518 3.26688 100.689 3.15966 100.103 3.48398C99.8148 3.64324 99.5713 3.91337 99.4692 4.26834C99.3644 4.6326 99.426 5.02383 99.638 5.38421L100.155 5.08ZM101.471 4.324L100.963 4.64306C101.709 5.83124 102.646 7.56879 103.637 9.32296L104.159 9.028L104.682 8.73304C103.712 7.01521 102.745 5.22476 101.979 4.00494L101.471 4.324ZM104.159 9.028L104.701 9.28561C105.512 7.57909 106.299 5.92086 106.919 4.54175L106.371 4.296L105.824 4.05025C105.211 5.41513 104.43 7.06091 103.617 8.77038L104.159 9.028ZM119.394 3.932L119.994 3.95233L119.994 3.95134L119.394 3.932ZM120.85 4.156H120.25V5.19667L121.151 4.67526L120.85 4.156ZM125.33 6.732L125.93 6.74183L125.93 6.74057L125.33 6.732ZM120.738 10.904L120.657 10.3095L120.156 10.3781L120.139 10.8837L120.738 10.904ZM120.626 15.3L121.226 15.3133V15.3H120.626ZM119.142 15.524L119.742 15.5376L119.742 15.536L119.142 15.524ZM119.226 10.82L119.826 10.83L119.831 10.5429L119.61 10.3591L119.226 10.82ZM119.254 9.756L119.614 10.236L119.85 10.059L119.854 9.764L119.254 9.756ZM120.85 5.472L120.506 4.98046L120.257 5.15467L120.25 5.45837L120.85 5.472ZM120.766 9.504L120.166 9.492L120.152 10.2103L120.861 10.0964L120.766 9.504ZM123.902 6.872L123.304 6.82351L123.304 6.82478L123.902 6.872ZM122.502 4.996L122.428 5.59137L122.435 5.59229L122.443 5.59302L122.502 4.996ZM119.394 3.932L119.994 3.95134C119.995 3.9269 119.999 3.92222 119.996 3.9279C119.994 3.9332 119.99 3.93581 119.991 3.93502C119.998 3.93019 120.034 3.91125 120.098 3.91498C120.161 3.91864 120.204 3.94169 120.224 3.95937C120.232 3.96681 120.237 3.97364 120.24 3.98132C120.243 3.98868 120.25 4.00729 120.25 4.044H120.85H121.45C121.45 3.1814 120.756 2.75126 120.168 2.71702C119.871 2.69975 119.545 2.77181 119.276 2.97173C118.991 3.18321 118.807 3.51267 118.795 3.91265L119.394 3.932ZM120.85 4.044H120.25V4.156H120.85H121.45V4.044H120.85ZM120.85 4.156L121.151 4.67526C121.595 4.41811 122.108 4.28 122.586 4.28V3.68V3.08C121.889 3.08 121.169 3.27789 120.55 3.63674L120.85 4.156ZM122.586 3.68V4.28C123.656 4.28 124.753 5.10239 124.73 6.72343L125.33 6.732L125.93 6.74057C125.963 4.44161 124.317 3.08 122.586 3.08V3.68ZM125.33 6.732L124.73 6.72216C124.708 8.09862 123.676 9.89668 120.657 10.3095L120.738 10.904L120.82 11.4985C124.353 11.0153 125.897 8.78138 125.93 6.74183L125.33 6.732ZM120.738 10.904L120.139 10.8837C120.083 12.5307 120.026 14.1393 120.026 15.3H120.626H121.226C121.226 14.1647 121.282 12.5813 121.338 10.9243L120.738 10.904ZM120.626 15.3L120.026 15.2867C120.018 15.6725 119.813 15.7477 119.779 15.7524C119.759 15.7552 119.77 15.7493 119.782 15.761C119.792 15.7707 119.738 15.7276 119.742 15.5376L119.142 15.524L118.542 15.5104C118.533 15.9364 118.654 16.3308 118.935 16.6109C119.218 16.893 119.596 16.9903 119.947 16.9406C120.656 16.8403 121.207 16.1875 121.226 15.3133L120.626 15.3ZM119.142 15.524L119.742 15.536C119.77 14.1349 119.798 12.5101 119.826 10.83L119.226 10.82L118.626 10.81C118.598 12.4899 118.57 14.1131 118.542 15.512L119.142 15.524ZM119.226 10.82L119.61 10.3591C119.599 10.3493 119.587 10.3315 119.588 10.2985C119.589 10.2628 119.605 10.243 119.614 10.236L119.254 9.756L118.894 9.276C118.258 9.75302 118.199 10.7452 118.842 11.2809L119.226 10.82ZM119.254 9.756L119.854 9.764C119.882 7.66902 119.938 5.60124 119.994 3.95233L119.394 3.932L118.795 3.91167C118.738 5.56676 118.682 7.64298 118.654 9.748L119.254 9.756ZM120.85 5.472L120.25 5.45837C120.222 6.69134 120.194 8.09222 120.166 9.492L120.766 9.504L121.366 9.516C121.394 8.11578 121.422 6.71665 121.45 5.48563L120.85 5.472ZM120.766 9.504L120.861 10.0964C122.086 9.89991 122.973 9.46587 123.573 8.87933C124.175 8.28992 124.448 7.58328 124.5 6.91922L123.902 6.872L123.304 6.82478C123.273 7.22472 123.111 7.65208 122.734 8.02167C122.353 8.39413 121.715 8.74409 120.671 8.91158L120.766 9.504ZM123.902 6.872L124.5 6.92049C124.607 5.59814 123.765 4.51933 122.562 4.39898L122.502 4.996L122.443 5.59302C122.919 5.64067 123.365 6.07386 123.304 6.82351L123.902 6.872ZM122.502 4.996L122.577 4.40063C121.965 4.32423 121.174 4.51273 120.506 4.98046L120.85 5.472L121.194 5.96354C121.646 5.64727 122.143 5.55577 122.428 5.59137L122.502 4.996ZM133.523 10.428L133.24 9.89911L133.237 9.90042L133.523 10.428ZM134.139 11.772L133.772 11.2969L133.772 11.2976L134.139 11.772ZM130.611 12.64L130.718 12.0497L130.718 12.0496L130.611 12.64ZM131.059 2.756L131.066 2.15605L131.065 2.15603L131.059 2.756ZM134.419 7.096L133.819 7.11339L133.82 7.12596L134.419 7.096ZM133.271 8.272L133.209 7.67514L133.202 7.67595L133.271 8.272ZM128.847 8.412L128.882 7.81304L128.172 7.77126L128.251 8.47826L128.847 8.412ZM131.031 11.212L131.105 10.6166L131.097 10.6157L131.031 11.212ZM128.847 6.956L128.248 6.92128L128.211 7.556H128.847V6.956ZM132.907 6.844L132.984 7.43896L133.554 7.36462L133.505 6.79202L132.907 6.844ZM133.523 10.428L133.806 10.9569C133.87 10.9225 133.91 10.9278 133.928 10.9328C133.952 10.9395 133.97 10.9544 133.979 10.9704C133.987 10.982 133.994 11.0005 133.985 11.036C133.975 11.0738 133.935 11.1715 133.772 11.2969L134.139 11.772L134.505 12.2471C134.833 11.9945 135.059 11.6827 135.148 11.332C135.238 10.979 135.177 10.63 135.005 10.3476C134.663 9.78376 133.915 9.53709 133.24 9.89911L133.523 10.428ZM134.139 11.772L133.772 11.2976C133.028 11.8734 131.77 12.2409 130.718 12.0497L130.611 12.64L130.504 13.2303C131.916 13.4871 133.514 13.0146 134.506 12.2464L134.139 11.772ZM130.611 12.64L130.718 12.0496C129.598 11.8472 128.927 11.2449 128.515 10.4742C128.089 9.67749 127.935 8.6816 127.935 7.74H127.335H126.735C126.735 8.7864 126.902 10.0025 127.457 11.0398C128.025 12.1031 128.991 12.9568 130.504 13.2304L130.611 12.64ZM127.335 7.74H127.935C127.935 6.45103 128.203 5.32865 128.72 4.55138C129.217 3.80471 129.96 3.34422 131.052 3.35596L131.059 2.756L131.065 2.15603C129.553 2.13978 128.435 2.81329 127.721 3.88662C127.027 4.92935 126.735 6.31297 126.735 7.74H127.335ZM131.059 2.756L131.051 3.35595C131.91 3.36683 132.571 3.82402 133.047 4.54338C133.532 5.27501 133.794 6.23977 133.819 7.11338L134.419 7.096L135.019 7.07862C134.988 6.02023 134.676 4.82899 134.048 3.88062C133.411 2.91998 132.419 2.17317 131.066 2.15605L131.059 2.756ZM134.419 7.096L133.82 7.12596C133.827 7.2657 133.785 7.38052 133.711 7.4648C133.638 7.54711 133.492 7.64589 133.209 7.67518L133.271 8.272L133.333 8.86881C133.861 8.81411 134.304 8.60489 134.609 8.2602C134.912 7.91748 135.039 7.4863 135.018 7.06604L134.419 7.096ZM133.271 8.272L133.202 7.67595C131.777 7.84042 130.272 7.89478 128.882 7.81304L128.847 8.412L128.812 9.01096C130.278 9.09723 131.853 9.03958 133.34 8.86804L133.271 8.272ZM128.847 8.412L128.251 8.47826C128.372 9.5672 128.698 10.3725 129.2 10.9282C129.709 11.4916 130.345 11.7395 130.965 11.8083L131.031 11.212L131.097 10.6157C130.709 10.5725 130.365 10.4284 130.09 10.1238C129.808 9.81146 129.546 9.2728 129.443 8.34574L128.847 8.412ZM131.031 11.212L130.956 11.8074C132.318 11.9776 133.234 11.2667 133.809 10.9556L133.523 10.428L133.237 9.90042C132.468 10.3173 131.984 10.7264 131.105 10.6166L131.031 11.212ZM128.847 6.956V7.556C130.126 7.556 131.646 7.6136 132.984 7.43896L132.907 6.844L132.829 6.24904C131.592 6.4104 130.199 6.356 128.847 6.356V6.956ZM132.907 6.844L133.505 6.79202C133.445 6.10271 133.277 5.34922 132.895 4.7504C132.493 4.12066 131.853 3.668 130.947 3.668V4.268V4.868C131.385 4.868 131.669 5.05934 131.883 5.3956C132.117 5.76278 132.257 6.29728 132.309 6.89598L132.907 6.844ZM130.947 4.268V3.668C130.231 3.668 129.553 3.91048 129.052 4.49794C128.567 5.06572 128.308 5.88474 128.248 6.92128L128.847 6.956L129.446 6.99072C129.498 6.09526 129.714 5.57028 129.965 5.27706C130.198 5.00352 130.515 4.868 130.947 4.868V4.268ZM140.743 10.82L141.002 11.3613L141.01 11.3575L141.018 11.3536L140.743 10.82ZM141.275 12.192L141.052 11.6349L141.049 11.6363L141.275 12.192ZM137.551 10.512L138.151 10.4889L138.151 10.487L137.551 10.512ZM137.271 2.728L137.871 2.71792L137.871 2.71437L137.271 2.728ZM138.783 2.588H138.183V2.59737L138.183 2.60674L138.783 2.588ZM138.839 4.884L138.24 4.90898L138.265 5.51203L138.868 5.48332L138.839 4.884ZM142.227 4.38L142.091 3.79569L142.09 3.79595L142.227 4.38ZM142.451 5.808L142.306 5.22591L142.295 5.22865L142.284 5.23179L142.451 5.808ZM138.895 6.312L138.868 5.71259L138.281 5.73869L138.295 6.32628L138.895 6.312ZM139.119 10.428L139.719 10.404L139.718 10.39L139.119 10.428ZM140.743 10.82L141.018 11.3536C141.076 11.3236 141.116 11.3159 141.139 11.3142C141.161 11.3125 141.174 11.3159 141.183 11.3193C141.202 11.3265 141.229 11.3468 141.245 11.386C141.262 11.4238 141.26 11.4589 141.249 11.4859C141.241 11.5054 141.206 11.5735 141.052 11.6349L141.275 12.192L141.498 12.7491C141.905 12.5865 142.205 12.3081 142.356 11.9496C142.503 11.5986 142.482 11.2242 142.348 10.912C142.214 10.6012 141.959 10.331 141.611 10.1982C141.252 10.0612 140.849 10.0908 140.469 10.2864L140.743 10.82ZM141.275 12.192L141.049 11.6363C139.951 12.083 139.242 11.9834 138.832 11.7462C138.422 11.5091 138.172 11.0551 138.151 10.4889L137.551 10.512L136.952 10.5351C136.986 11.4249 137.394 12.3009 138.231 12.7848C139.067 13.2686 140.191 13.281 141.501 12.7477L141.275 12.192ZM137.551 10.512L138.151 10.487C138.01 7.11813 137.927 6.04 137.871 2.71792L137.271 2.728L136.671 2.73808C136.727 6.08 136.812 7.18587 136.952 10.537L137.551 10.512ZM137.271 2.728L137.871 2.71437C137.867 2.53519 137.918 2.47483 137.93 2.46239C137.946 2.44534 137.975 2.42891 138.022 2.42847C138.073 2.42801 138.117 2.44697 138.142 2.46991C138.159 2.48458 138.183 2.51261 138.183 2.588H138.783H139.383C139.383 1.70924 138.668 1.2225 138.011 1.22853C137.677 1.23159 137.326 1.35691 137.061 1.63474C136.792 1.91716 136.661 2.30481 136.671 2.74163L137.271 2.728ZM138.783 2.588L138.183 2.60674C138.21 3.46579 138.212 4.24526 138.24 4.90898L138.839 4.884L139.439 4.85902C139.41 4.17874 139.412 3.50221 139.383 2.56926L138.783 2.588ZM138.839 4.884L138.868 5.48332C140.086 5.42531 140.907 5.30707 142.365 4.96405L142.227 4.38L142.09 3.79595C140.692 4.12492 139.944 4.23069 138.811 4.28468L138.839 4.884ZM142.227 4.38L142.363 4.9643C142.386 4.95901 142.389 4.96273 142.379 4.96046C142.37 4.95827 142.363 4.95385 142.361 4.95241C142.361 4.95196 142.368 4.95747 142.377 4.97394C142.386 4.99046 142.394 5.01361 142.399 5.04177C142.41 5.10249 142.399 5.15154 142.385 5.17672C142.379 5.18745 142.373 5.19452 142.365 5.20029C142.358 5.20583 142.341 5.21701 142.306 5.22591L142.451 5.808L142.597 6.39009C143.43 6.18184 143.684 5.40814 143.581 4.83123C143.529 4.54031 143.383 4.23898 143.124 4.02547C142.847 3.79847 142.481 3.70469 142.091 3.79569L142.227 4.38ZM142.451 5.808L142.284 5.23179C141.478 5.46566 140.102 5.65777 138.868 5.71259L138.895 6.312L138.922 6.91141C140.208 6.85423 141.688 6.65434 142.618 6.38421L142.451 5.808ZM138.895 6.312L138.295 6.32628C138.324 7.51756 138.409 8.70997 138.52 10.466L139.119 10.428L139.718 10.39C139.605 8.61803 139.523 7.45844 139.495 6.29772L138.895 6.312ZM139.119 10.428L138.52 10.452C138.533 10.7763 138.66 11.0631 138.891 11.2724C139.108 11.4691 139.373 11.5592 139.61 11.5952C140.075 11.6659 140.595 11.5558 141.002 11.3613L140.743 10.82L140.484 10.2787C140.247 10.3922 139.97 10.4361 139.79 10.4088C139.705 10.3958 139.687 10.3739 139.697 10.3834C139.721 10.4054 139.72 10.4297 139.719 10.404L139.119 10.428Z" mask="url(#path-1-outside-1_102_2900)"/>
</svg>
