<svg viewBox="0 0 40 40" fill="none" xmlns="http://www.w3.org/2000/svg">
<path fill-rule="evenodd" clip-rule="evenodd" d="M25.5136 8.46077L25.5148 9.3978C28.9582 9.66767 31.2327 12.014 31.2364 15.6122L31.25 26.1444C31.2549 30.0674 28.7903 32.4812 24.8398 32.4875L15.1899 32.5C11.264 32.505 8.76853 30.0337 8.76359 26.0994L8.75001 15.6909C8.74508 12.069 10.9394 9.72889 14.3827 9.4128L14.3815 8.47577C14.3803 7.92604 14.7875 7.5125 15.3306 7.5125C15.8736 7.51125 16.2809 7.92354 16.2821 8.47327L16.2833 9.34783L23.6142 9.33783L23.613 8.46327C23.6118 7.91355 24.019 7.50125 24.5621 7.50001C25.0928 7.49876 25.5124 7.91105 25.5136 8.46077ZM10.6519 16.077L29.337 16.052V15.6147C29.284 12.9285 27.9363 11.5192 25.5173 11.3093L25.5185 12.2714C25.5185 12.8086 25.1002 13.2346 24.5695 13.2346C24.0264 13.2359 23.6179 12.8111 23.6179 12.2739L23.6167 11.2619L16.2858 11.2719L16.287 12.2826C16.287 12.8211 15.881 13.2459 15.338 13.2459C14.7949 13.2471 14.3864 12.8236 14.3864 12.2851L14.3852 11.3231C11.9786 11.5642 10.6469 12.9785 10.6506 15.6884L10.6519 16.077ZM24.0499 21.7554V21.7691C24.0622 22.3438 24.5312 22.7799 25.1002 22.7674C25.6555 22.7536 26.0986 22.2776 26.0863 21.7029C26.0603 21.1532 25.6148 20.7046 25.0607 20.7059C24.493 20.7184 24.0487 21.1807 24.0499 21.7554ZM25.0693 27.3651C24.5016 27.3526 24.0437 26.8791 24.0425 26.3043C24.0301 25.7296 24.4856 25.2536 25.0533 25.2399H25.0656C25.6457 25.2399 26.1159 25.7134 26.1159 26.3006C26.1171 26.8878 25.6481 27.3638 25.0693 27.3651ZM18.9652 21.7754C18.9898 22.3501 19.4601 22.7986 20.0278 22.7736C20.5831 22.7474 21.0262 22.2726 21.0015 21.6979C20.9879 21.1357 20.5313 20.6984 19.9759 20.6996C19.4082 20.7246 18.9639 21.2006 18.9652 21.7754ZM20.0327 27.3088C19.465 27.3338 18.996 26.8853 18.9701 26.3106C18.9701 25.7359 19.4132 25.2611 19.9809 25.2349C20.5362 25.2336 20.9941 25.6709 21.0065 26.2319C21.0324 26.8078 20.5881 27.2826 20.0327 27.3088ZM13.8804 21.8191C13.9051 22.3938 14.3753 22.8436 14.943 22.8173C15.4984 22.7923 15.9415 22.3163 15.9155 21.7416C15.9032 21.1794 15.4466 20.7421 14.89 20.7434C14.3222 20.7684 13.8792 21.2444 13.8804 21.8191ZM14.948 27.3151C14.3803 27.3413 13.9113 26.8915 13.8854 26.3168C13.8841 25.7421 14.3284 25.2661 14.8961 25.2411C15.4515 25.2399 15.9094 25.6772 15.9217 26.2394C15.9476 26.8141 15.5046 27.2901 14.948 27.3151Z"/>
</svg>
