<svg viewBox="0 0 18 18" fill="none" xmlns="http://www.w3.org/2000/svg">
<path d="M9.3982 6.72099L12.3768 10.6489C12.4178 10.7032 12.4487 10.762 12.4692 10.8251C12.4897 10.8883 12.5 10.9521 12.5 11.0166C12.5 11.1455 12.4654 11.2583 12.3963 11.355C12.3271 11.4517 12.2359 11.5 12.1228 11.5L5.87725 11.5C5.76407 11.5 5.6729 11.4503 5.60374 11.3508C5.53458 11.2514 5.5 11.1354 5.5 11.0028C5.5 10.9843 5.54108 10.8668 5.62323 10.65L8.6018 6.72099C8.65769 6.64733 8.72056 6.59208 8.79042 6.55525C8.86028 6.51842 8.93014 6.5 9 6.5C9.06986 6.5 9.13972 6.51842 9.20958 6.55525C9.27944 6.59208 9.34232 6.64733 9.3982 6.72099Z"/>
</svg>
