<svg viewBox="0 0 40 40" fill="none" xmlns="http://www.w3.org/2000/svg">
<path fill-rule="evenodd" clip-rule="evenodd" d="M9.375 17.8972C9.375 12.1474 14.1799 7.5 19.9918 7.5C25.8201 7.5 30.625 12.1474 30.625 17.8972C30.625 20.7946 29.5713 23.4845 27.8369 25.7645C25.9235 28.2794 23.5652 30.4706 20.9107 32.1905C20.3031 32.588 19.7548 32.618 19.0881 32.1905C16.4184 30.4706 14.0601 28.2794 12.1631 25.7645C10.4275 23.4845 9.375 20.7946 9.375 17.8972ZM16.4928 18.2209C16.4928 20.1471 18.0646 21.6621 19.9918 21.6621C21.9203 21.6621 23.5072 20.1471 23.5072 18.2209C23.5072 16.3097 21.9203 14.721 19.9918 14.721C18.0646 14.721 16.4928 16.3097 16.4928 18.2209Z"/>
</svg>
