<svg viewBox="0 0 20 20" fill="none" xmlns="http://www.w3.org/2000/svg">
<path fill-rule="evenodd" clip-rule="evenodd" d="M10 1.875C5.52 1.875 1.875 5.52 1.875 10C1.875 14.48 5.52 18.125 10 18.125C14.48 18.125 18.125 14.48 18.125 10C18.125 5.52 14.48 1.875 10 1.875Z" fill="#FFD86F"/>
<path d="M9.99857 10.8762L11.5573 12.4336C11.8015 12.6776 12.1972 12.6775 12.4413 12.4335C12.6855 12.1892 12.6854 11.7932 12.4411 11.5491L10.8836 9.99285L12.441 8.43864C12.6854 8.19475 12.6858 7.7989 12.4419 7.55452C12.198 7.31014 11.8021 7.30979 11.5578 7.55374L9.9994 9.10952L8.44148 7.55225C8.19731 7.30818 7.80153 7.30822 7.55741 7.55234C7.31322 7.79653 7.31326 8.19246 7.5575 8.4366L9.1144 9.99285L7.55764 11.547C7.31333 11.7909 7.31307 12.1867 7.55706 12.4309C7.80092 12.675 8.19647 12.6753 8.44065 12.4315L9.99857 10.8762Z" fill="black"/>
</svg>
