<svg viewBox="0 0 29 32" fill="none" xmlns="http://www.w3.org/2000/svg">
<path fill-rule="evenodd" clip-rule="evenodd" d="M18.3766 9.01301C26.477 -0.681655 34.3821 13.6584 22.2803 15.9811C34.3821 18.4048 26.3794 32.6438 18.3766 22.949C22.4755 35.0674 6.56747 34.9665 10.6665 22.949C2.56606 32.6438 -5.33918 18.4048 6.76266 15.9811C-5.43677 13.6584 2.56606 -0.580672 10.6665 9.01301C6.46988 -3.00434 22.4755 -3.00434 18.3766 9.01301ZM14.4727 14.1633C15.4487 14.1633 16.327 14.9712 16.327 15.9811C16.327 16.9909 15.4487 17.8999 14.4727 17.8999C13.4968 17.8999 12.7159 16.9909 12.7159 15.9811C12.7159 14.9712 13.4968 14.1633 14.4727 14.1633Z"/>
</svg>
