<svg viewBox="0 0 40 40" fill="none" xmlns="http://www.w3.org/2000/svg">
<path d="M19.5386 8.05942C19.8409 7.98019 20.1591 7.98019 20.4614 8.05942C20.8198 8.15336 21.117 8.38095 21.2735 8.50083L21.3183 8.53488L30.0414 15.0765C30.5352 15.4461 30.9516 15.7578 31.2615 16.1638C31.5338 16.5205 31.7368 16.9234 31.8604 17.3522C32.001 17.8402 32.0005 18.3539 31.9999 18.9631L31.9999 26.9115C31.9999 27.5748 31.9999 28.1397 31.9613 28.6034C31.9207 29.0906 31.8318 29.5646 31.5964 30.0177C31.2414 30.7008 30.6751 31.2562 29.9785 31.6043C29.5164 31.8352 29.0331 31.9223 28.5363 31.9621C28.0635 32 27.4875 32 26.8111 32H21.1493V22.7359C21.1493 22.1136 20.6349 21.6091 20.0004 21.6091C19.3658 21.6091 18.8514 22.1136 18.8514 22.7359V32H13.1889C12.5125 32 11.9365 32 11.4637 31.9621C10.9669 31.9223 10.4836 31.8352 10.0215 31.6043C9.32493 31.2562 8.75858 30.7008 8.40365 30.0177C8.16823 29.5646 8.07934 29.0906 8.03875 28.6034C8.00011 28.1396 8.00013 27.5748 8.00014 26.9115L8.00007 18.9631C7.9995 18.3539 7.99902 17.8402 8.13964 17.3522C8.2632 16.9234 8.4662 16.5205 8.73849 16.1638C9.04839 15.7578 9.46478 15.4461 9.95858 15.0765L18.6817 8.53488L18.7265 8.50082C18.883 8.38095 19.1802 8.15335 19.5386 8.05942Z"/>
</svg>
