<svg width="20" height="20" viewBox="0 0 20 20" fill="none" xmlns="http://www.w3.org/2000/svg">
<path fill-rule="evenodd" clip-rule="evenodd" d="M10.004 14.25C9.59 14.25 9.249 13.914 9.249 13.5C9.249 13.086 9.581 12.75 9.995 12.75H10.004C10.418 12.75 10.754 13.086 10.754 13.5C10.754 13.914 10.418 14.25 10.004 14.25ZM9.25 6.105C9.25 5.691 9.586 5.355 10 5.355C10.414 5.355 10.75 5.691 10.75 6.105V10C10.75 10.414 10.414 10.75 10 10.75C9.586 10.75 9.25 10.414 9.25 10V6.105ZM10 0.25C2.802 0.25 0.25 2.802 0.25 10C0.25 17.198 2.802 19.75 10 19.75C17.198 19.75 19.75 17.198 19.75 10C19.75 2.802 17.198 0.25 10 0.25Z" fill="#CECECE"/>
</svg>
