<svg viewBox="0 0 40 40" fill="none" xmlns="http://www.w3.org/2000/svg">
<path fill-rule="evenodd" clip-rule="evenodd" d="M23.5997 13.668C31.1215 4.88225 38.462 17.8779 27.2246 19.9829C38.462 22.1793 31.0309 35.0835 23.5997 26.2976C27.4058 37.2798 12.6341 37.1884 16.4403 26.2976C8.91848 35.0835 1.57791 22.1793 12.8153 19.9829C1.48728 17.8779 8.91848 4.97377 16.4403 13.668C12.5435 2.77732 27.4058 2.77732 23.5997 13.668ZM19.9746 18.3355C20.8809 18.3355 21.6965 19.0677 21.6965 19.9829C21.6965 20.898 20.8809 21.7217 19.9746 21.7217C19.0684 21.7217 18.3434 20.898 18.3434 19.9829C18.3434 19.0677 19.0684 18.3355 19.9746 18.3355Z"/>
</svg>
