<svg viewBox="0 0 40 40" fill="none" xmlns="http://www.w3.org/2000/svg">
<path fill-rule="evenodd" clip-rule="evenodd" d="M25.7626 9.5C27.3271 9.5 28.8321 10.1183 29.9392 11.2278C31.0476 12.335 31.6671 13.8283 31.6671 15.3917V24.6083C31.6671 27.8633 29.0187 30.5 25.7626 30.5H14.2371C10.9809 30.5 8.33374 27.8633 8.33374 24.6083V15.3917C8.33374 12.1367 10.9692 9.5 14.2371 9.5H25.7626ZM27.6187 17.13L27.7121 17.0367C27.9909 16.6983 27.9909 16.2083 27.6992 15.87C27.5371 15.6962 27.3142 15.59 27.0821 15.5667C26.8371 15.5538 26.6037 15.6367 26.4276 15.8L21.1671 20C20.4904 20.5612 19.5209 20.5612 18.8337 20L13.5837 15.8C13.2209 15.5317 12.7192 15.5667 12.4171 15.8817C12.1021 16.1967 12.0671 16.6983 12.3342 17.0483L12.4871 17.2L17.7954 21.3417C18.4487 21.855 19.2409 22.135 20.0704 22.135C20.8976 22.135 21.7037 21.855 22.3559 21.3417L27.6187 17.13Z"/>
</svg>
