<svg viewBox="0 0 32 32" fill="none" xmlns="http://www.w3.org/2000/svg">
<path d="M13.2839 25.6373C13.9504 25.4963 18.0128 25.4963 18.6794 25.6373C19.2491 25.769 19.8649 26.0765 19.8649 26.7477C19.8318 27.3867 19.457 27.9532 18.9391 28.3131C18.2673 28.8368 17.4782 29.1692 16.654 29.2887C16.1982 29.3478 15.7501 29.3491 15.3102 29.2887C14.4848 29.1692 13.6965 28.8371 13.0261 28.3121C12.5066 27.9536 12.1315 27.3869 12.0983 26.7477C12.0984 26.0764 12.7142 25.769 13.2839 25.6373ZM16.0602 2.66663C18.8338 2.66663 21.6673 3.9831 23.3503 6.16663C24.442 7.57248 24.9431 8.97746 24.9431 11.1608V11.7281C24.9431 13.4025 25.3853 14.3897 26.3591 15.527C27.0972 16.3649 27.3337 17.4411 27.3337 18.608C27.3337 19.7736 26.9505 20.8806 26.1833 21.7789C25.1788 22.8558 23.7618 23.5432 22.3161 23.6627C20.2211 23.8413 18.1248 23.9918 16.0007 23.9918C13.8752 23.9918 11.7802 23.9017 9.68524 23.6627C8.23823 23.5432 6.82119 22.8559 5.81805 21.7789C5.0508 20.8806 4.6667 19.7736 4.66669 18.608C4.66669 17.4411 4.90354 16.3649 5.64032 15.527C6.64474 14.3896 7.05829 13.4027 7.05829 11.7281V11.1608C7.05829 8.91833 7.61786 7.45167 8.76923 6.01624C10.4813 3.92268 13.2259 2.66663 15.9411 2.66663H16.0602Z"/>
</svg>
