<svg viewBox="0 0 20 20" fill="none" xmlns="http://www.w3.org/2000/svg">
<path d="M13.6279 1.66699C16.4418 1.66711 18.3328 3.63523 18.333 6.57324V13.4189C18.333 13.5445 18.3104 13.6569 18.3037 13.7783C18.2995 13.8492 18.2998 13.9204 18.2939 13.9912C18.2906 14.0228 18.2817 14.0523 18.2783 14.084C18.2508 14.3455 18.2086 14.5955 18.1494 14.8379C18.1344 14.9027 18.1171 14.9651 18.0996 15.0283C18.0329 15.2633 17.9545 15.488 17.8604 15.7021C17.8329 15.7621 17.8027 15.8198 17.7744 15.8789C17.6728 16.0829 17.5629 16.2785 17.4355 16.46C17.3964 16.5158 17.3524 16.566 17.3115 16.6201C17.1791 16.7917 17.0414 16.9563 16.8848 17.1055C16.8339 17.1538 16.776 17.1954 16.7227 17.2412C16.5619 17.3795 16.3976 17.5117 16.2168 17.625C16.1519 17.6658 16.0803 17.6958 16.0137 17.7324C15.8296 17.8341 15.6438 17.9341 15.4414 18.0107C15.3581 18.0424 15.2653 18.0585 15.1787 18.0859C14.9795 18.1476 14.7825 18.2124 14.5684 18.249C14.4068 18.2773 14.2305 18.2808 14.0605 18.2949C13.9158 18.3058 13.7785 18.334 13.6279 18.334H6.36426C6.05105 18.334 5.75195 18.3024 5.46289 18.2549C5.45206 18.2532 5.44164 18.2507 5.43164 18.249C4.30434 18.0548 3.36866 17.5111 2.71289 16.6904C2.70539 16.6904 2.70477 16.6823 2.69727 16.6748C2.03815 15.8449 1.66607 14.7288 1.66602 13.4189V6.57324C1.66619 3.63517 3.55861 1.66703 6.36426 1.66699H13.6279ZM6.36426 2.8291C4.21694 2.82914 2.82927 4.30184 2.8291 6.57324V13.4189C2.82914 14.0563 2.94792 14.6257 3.15039 15.1182C3.17616 15.0874 4.78296 13.128 4.79785 13.1123C5.37452 12.454 6.4571 11.4722 7.87793 12.0664C8.21936 12.208 8.5191 12.4071 8.79395 12.582C9.27145 12.9012 9.55306 13.0514 9.84473 13.0264C9.96527 13.0097 10.0783 12.9737 10.1855 12.9072C10.6502 12.6208 11.9628 10.7067 12.0439 10.5996C12.9523 9.41628 14.3529 9.0998 15.5195 9.7998C15.6772 9.89387 16.7984 10.6773 17.1699 10.9922V6.57324C17.1698 4.3019 15.7827 2.82921 13.6279 2.8291H6.36426ZM7.06543 5C7.64682 5 8.17368 5.24472 8.55078 5.63477C8.92929 6.0111 9.16697 6.52972 9.16699 7.0957C9.16699 8.22483 8.22144 9.16699 7.08691 9.16699C6.08992 9.16684 5.23952 8.4382 5.04883 7.49512C5.01737 7.35371 5.00003 7.20785 5 7.05762C5 5.92045 5.92363 5 7.06543 5Z"/>
</svg>
