<svg viewBox="0 0 40 40" fill="none" xmlns="http://www.w3.org/2000/svg">
<path fill-rule="evenodd" clip-rule="evenodd" d="M20.0001 7.5C16.3513 7.5 13.3934 10.4174 13.3934 14.0162C13.3934 17.615 16.3513 20.5324 20.0001 20.5324C23.6489 20.5324 26.6069 17.615 26.6069 14.0162C26.6069 10.4174 23.6489 7.5 20.0001 7.5Z"/>
<path fill-rule="evenodd" clip-rule="evenodd" d="M20 22.1261C16.8828 22.1261 13.9739 22.7279 11.7973 23.8843C9.6223 25.0398 8.00001 26.8685 8.00001 29.3072L8 29.743C7.99996 29.9912 7.99992 30.2439 8.01782 30.4599C8.03773 30.7002 8.08569 30.9985 8.24251 31.302C8.45581 31.7149 8.79617 32.0505 9.21481 32.2609C9.52256 32.4156 9.82492 32.4628 10.0686 32.4825C10.2876 32.5001 10.5438 32.5 10.7955 32.5L29.2048 32.4989C29.4564 32.4989 29.7126 32.499 29.9317 32.4813C30.1753 32.4617 30.4776 32.4143 30.7854 32.2597C31.2039 32.0493 31.5443 31.7136 31.7575 31.3008C31.9143 30.9973 31.9623 30.6991 31.9822 30.4588C32.0001 30.2428 32 29.9901 32 29.7419L32 29.3072C32 26.8685 30.3777 25.0398 28.2027 23.8843C26.0261 22.7279 23.1172 22.1261 20 22.1261Z"/>
</svg>
