<svg viewBox="0 0 24 24" fill="none" xmlns="http://www.w3.org/2000/svg">
<path d="M8.91815 10.9927C9.21508 10.1615 10.4504 8.6778 13.0148 9.39014C13.4306 9.4497 14.4756 9.99624 15.3303 11.7056C15.9336 13.1127 17.7836 13.7463 18.1203 15.2397C18.2782 15.9407 18.2465 16.793 17.8234 17.7603C17.2298 18.7694 15.4368 20.5386 13.0148 19.5415C12.6587 19.3634 11.6613 19.1143 10.5217 19.5415C8.91882 19.9571 5.71307 19.7906 5.71307 15.8013C5.71312 15.4586 5.81966 14.8348 6.15643 14.1772C6.71184 13.0933 8.04151 12.6164 8.6662 11.5708C8.77074 11.3958 8.85811 11.2028 8.91815 10.9927ZM3.48358 8.37842C4.21955 7.64088 5.56695 7.79222 6.49335 8.71631C7.41975 9.64075 7.57415 10.9884 6.83807 11.7261C6.10201 12.4635 4.75465 12.3124 3.82831 11.3882C2.90191 10.4637 2.74751 9.11606 3.48358 8.37842ZM17.506 8.71631C18.4324 7.79188 19.7807 7.63985 20.5168 8.37744C21.2529 9.11508 21.0984 10.4628 20.1721 11.3872C19.2456 12.3117 17.8974 12.4627 17.1613 11.7251C16.4258 10.9875 16.5801 9.64058 17.506 8.71631ZM13.131 5.89307C13.5452 4.65163 14.6826 3.91202 15.6711 4.2417C16.6596 4.57148 17.1253 5.84591 16.7111 7.0874C16.2969 8.32875 15.1595 9.06755 14.1711 8.73779C13.1827 8.40794 12.717 7.1344 13.131 5.89307ZM8.11542 4.32568C9.06728 3.90188 10.2705 4.52688 10.8029 5.72217C11.3352 6.91777 10.9951 8.23092 10.0432 8.65479C9.09118 9.07856 7.88796 8.45288 7.35565 7.25732C6.82352 6.06191 7.16372 4.74966 8.11542 4.32568Z"/>
</svg>
