<svg width="20" height="20" viewBox="0 0 20 20" fill="none" xmlns="http://www.w3.org/2000/svg">
<path d="M10.7168 0C11.4731 0 12.158 0.420067 12.5362 1.04004C12.7201 1.33993 12.8431 1.70976 12.8125 2.09961C12.7921 2.39961 12.8834 2.70047 13.0469 2.98047C13.5682 3.83035 14.7238 4.14989 15.6231 3.66992C16.6347 3.09027 17.9116 3.44004 18.4942 4.42969L19.1787 5.61035C19.7714 6.60033 19.4448 7.87045 18.4229 8.44043C17.5543 8.95047 17.2474 10.0805 17.7686 10.9404C17.9321 11.2103 18.1163 11.4401 18.4024 11.5801C18.7601 11.7701 19.0363 12.0701 19.2305 12.3701C19.6084 12.99 19.5778 13.75 19.21 14.4199L18.4942 15.6201C18.116 16.26 17.4111 16.6601 16.6856 16.6602C16.3281 16.6602 15.9295 16.5602 15.6026 16.3604C15.3369 16.1904 15.0301 16.1299 14.7032 16.1299C13.6914 16.1299 12.8432 16.9602 12.8125 17.9502C12.8124 19.0999 11.8723 19.9998 10.6973 20H9.30668C8.12141 19.9999 7.18178 19.1 7.18168 17.9502C7.16124 16.9602 6.31256 16.1299 5.30082 16.1299C4.9636 16.1299 4.65688 16.1904 4.4014 16.3604C4.07446 16.5602 3.66574 16.6601 3.3184 16.6602C2.5826 16.6602 1.87719 16.2601 1.49906 15.6201L0.793983 14.4199C0.41594 13.77 0.395463 12.9901 0.773475 12.3701C0.936944 12.0702 1.24351 11.7701 1.59086 11.5801C1.87696 11.4401 2.06168 11.2104 2.23539 10.9404C2.74637 10.0804 2.43901 8.95043 1.57035 8.44043C0.558793 7.87045 0.23221 6.60028 0.814491 5.61035L1.49906 4.42969C2.0918 3.43988 3.35903 3.09012 4.3809 3.66992C5.26989 4.14987 6.42504 3.83024 6.94633 2.98047C7.10984 2.70047 7.20212 2.39961 7.18168 2.09961C7.16133 1.70975 7.2737 1.33994 7.46781 1.04004C7.84595 0.420117 8.53043 0.0199985 9.2764 0H10.7168ZM10.0118 7.17969C8.40753 7.17987 7.10954 8.43999 7.10941 10.0098C7.10941 11.5796 8.40745 12.8299 10.0118 12.8301C11.6162 12.8301 12.8838 11.5798 12.8838 10.0098C12.8837 8.43987 11.6161 7.17969 10.0118 7.17969Z" fill="#CECECE"/>
</svg>
