<svg viewBox="0 0 28 27" fill="none" xmlns="http://www.w3.org/2000/svg">
<circle cx="14" cy="13.5" r="13.5"/>
<path d="M10.1318 14.5459C10.5768 14.2771 11.1654 14.4042 11.4464 14.8297C11.9825 15.6414 12.9262 16.1772 14.0001 16.1772C15.074 16.1772 16.0177 15.6414 16.5538 14.8297C16.8349 14.4042 17.4234 14.2771 17.8684 14.5459C18.3134 14.8147 18.4462 15.3776 18.1651 15.8032C17.2945 17.1213 15.755 18 14.0001 18C12.2453 18 10.7057 17.1213 9.83511 15.8032C9.55404 15.3776 9.68688 14.8147 10.1318 14.5459Z" fill="#343434"/>
<path d="M12.1471 11.2658C12.1471 11.9649 11.5545 12.5316 10.8235 12.5316C10.0926 12.5316 9.5 11.9649 9.5 11.2658C9.5 10.5667 10.0926 10 10.8235 10C11.5545 10 12.1471 10.5667 12.1471 11.2658Z" fill="#343434"/>
<path d="M18.5 11.2658C18.5 11.9649 17.9074 12.5316 17.1765 12.5316C16.4455 12.5316 15.8529 11.9649 15.8529 11.2658C15.8529 10.5667 16.4455 10 17.1765 10C17.9074 10 18.5 10.5667 18.5 11.2658Z" fill="#343434"/>
</svg>
