<svg viewBox="0 0 28 28" fill="none" xmlns="http://www.w3.org/2000/svg">
<path d="M22.0957 10.1467C22.3282 10.1468 22.5393 10.2478 22.7061 10.4192C22.8615 10.6024 22.9397 10.8302 22.917 11.0706C22.917 11.1499 22.2956 19.0124 21.9404 22.3225C21.718 24.3536 20.4084 25.5875 18.4443 25.6213C16.9343 25.6552 15.4582 25.6663 14.0049 25.6663C12.4618 25.6663 10.9521 25.6552 9.4873 25.6213C7.5891 25.5758 6.27842 24.3198 6.06738 22.3225C5.70202 19.0008 5.09142 11.1499 5.08008 11.0706C5.06874 10.8302 5.14616 10.6023 5.30273 10.4192C5.457 10.2478 5.67949 10.1468 5.91309 10.1467H22.0957ZM16.4092 2.33325C17.4403 2.33341 18.3612 3.05303 18.6279 4.07935L18.8184 4.93091C18.9727 5.62506 19.5745 6.11644 20.2666 6.11646H23.668C24.1218 6.11646 24.4999 6.49347 24.5 6.9729V7.41626C24.5 7.88409 24.1218 8.27271 23.668 8.27271H4.33301C3.87802 8.27271 3.5 7.88409 3.5 7.41626V6.9729C3.50007 6.49347 3.87806 6.11646 4.33301 6.11646H7.73438C8.4253 6.11646 9.02709 5.62574 9.18262 4.93286L9.36035 4.13696C9.63718 3.05325 10.5482 2.3334 11.5908 2.33325H16.4092Z"/>
</svg>
