<svg viewBox="0 0 38 38" fill="none" xmlns="http://www.w3.org/2000/svg">
<path d="M17.1044 11.9086C17.1044 10.862 17.9547 10.0117 18.9997 10.0117C20.0447 10.0117 20.8965 10.862 20.8965 11.9086C20.8965 12.9551 20.0447 13.8054 18.9997 13.8054C17.9547 13.8054 17.1044 12.9551 17.1044 11.9086Z"/>
<path d="M17.1044 19.0003C17.1044 17.9538 17.9547 17.1035 18.9997 17.1035C20.0447 17.1035 20.8965 17.9538 20.8965 19.0003C20.8965 20.0469 20.0447 20.8972 18.9997 20.8972C17.9547 20.8972 17.1044 20.0469 17.1044 19.0003Z"/>
<path d="M17.1044 26.0921C17.1044 25.0456 17.9547 24.1953 18.9997 24.1953C20.0447 24.1953 20.8965 25.0456 20.8965 26.0921C20.8965 27.1387 20.0447 27.989 18.9997 27.989C17.9547 27.989 17.1044 27.1387 17.1044 26.0921Z"/>
</svg>
