<svg viewBox="0 0 40 40" fill="none" xmlns="http://www.w3.org/2000/svg">
<path fill-rule="evenodd" clip-rule="evenodd" d="M5.8335 19.9989C5.8335 12.1804 12.1802 5.83228 20.0002 5.83228C27.8343 5.83228 34.1668 12.1804 34.1668 19.9989C34.1668 27.8204 27.8343 34.1656 20.0002 34.1656C12.1802 34.1656 5.8335 27.8204 5.8335 19.9989ZM18.7535 14.6298C18.7535 13.9512 19.3202 13.3831 20.0002 13.3831C20.6802 13.3831 21.2327 13.9512 21.2327 14.6298V20.8914C21.2327 21.5729 20.6802 22.1239 20.0002 22.1239C19.3202 22.1239 18.7535 21.5729 18.7535 20.8914V14.6298ZM20.0143 26.6304C19.3202 26.6304 18.7677 26.0637 18.7677 25.3837C18.7677 24.7037 19.3202 24.1512 20.0002 24.1512C20.6943 24.1512 21.2468 24.7037 21.2468 25.3837C21.2468 26.0637 20.6943 26.6304 20.0143 26.6304Z"/>
</svg>
